<svg width="51" height="28" viewBox="0 0 51 28"  xmlns="http://www.w3.org/2000/svg">
<path d="M5.68 18.54C4.98667 18.54 4.45333 18.38 4.08 18.06C3.72 17.74 3.54 17.38 3.54 16.98C3.54 16.6333 3.66667 16.3333 3.92 16.08C4.17333 15.8267 4.54667 15.7 5.04 15.7C5.21333 15.7 5.41333 15.72 5.64 15.76C5.88 15.7867 6.06 15.8067 6.18 15.82C6.16667 15.4733 6.08667 15.1467 5.94 14.84C5.80667 14.5333 5.63333 14.24 5.42 13.96C5.20667 13.6667 5.00667 13.4133 4.82 13.2C4.40667 13.9867 3.99333 14.64 3.58 15.16C3.18 15.68 2.74 16.1733 2.26 16.64C2.02 16.88 1.76667 17 1.5 17C1.28667 17 1.11333 16.9267 0.98 16.78C0.846667 16.62 0.78 16.4267 0.78 16.2C0.78 15.9333 0.873333 15.6867 1.06 15.46L1.32 15.14C2.05333 14.2333 2.60667 13.4867 2.98 12.9C3.20667 12.5133 3.47333 12 3.78 11.36C4.08667 10.7067 4.38667 10.0333 4.68 9.34C4.93333 8.75333 5.46 8.46 6.26 8.46C6.63333 8.46 6.89333 8.49333 7.04 8.56C7.18667 8.62667 7.26 8.73333 7.26 8.88C7.26 8.96 7.23333 9.08667 7.18 9.26C7.12667 9.43333 7.05333 9.60667 6.96 9.78C6.72 10.26 6.6 10.6667 6.6 11C6.6 11.2 6.66667 11.42 6.8 11.66C6.94667 11.9 7.16667 12.2 7.46 12.56C7.88667 13.12 8.20667 13.6 8.42 14C8.64667 14.3867 8.76 14.8133 8.76 15.28C8.76 15.4133 8.74667 15.6 8.72 15.84C9.37333 15.5867 10.14 14.9133 11.02 13.82C11.18 13.6333 11.36 13.54 11.56 13.54C11.7333 13.54 11.8667 13.62 11.96 13.78C12.0667 13.94 12.12 14.16 12.12 14.44C12.12 14.9467 11.9933 15.36 11.74 15.68C11.0733 16.5067 10.4333 17.0733 9.82 17.38C9.22 17.6733 8.47333 17.8333 7.58 17.86C7.04667 18.3133 6.41333 18.54 5.68 18.54ZM19.4152 13.54C19.5885 13.54 19.7218 13.62 19.8152 13.78C19.9218 13.94 19.9752 14.16 19.9752 14.44C19.9752 14.9733 19.8485 15.3867 19.5952 15.68C19.0218 16.3867 18.3952 16.9667 17.7152 17.42C17.0352 17.8733 16.2552 18.1 15.3752 18.1C12.6552 18.1 11.2952 16.1867 11.2952 12.36C11.2952 11.7733 11.3152 11.18 11.3552 10.58H10.5752C10.1752 10.58 9.90182 10.5067 9.75516 10.36C9.62182 10.2133 9.55516 9.98 9.55516 9.66C9.55516 8.91333 9.85516 8.54 10.4552 8.54H11.5952C11.8218 7.07333 12.1685 5.73333 12.6352 4.52C13.1018 3.30667 13.6618 2.34 14.3152 1.62C14.9818 0.899999 15.6952 0.539999 16.4552 0.539999C17.0152 0.539999 17.4552 0.786666 17.7752 1.28C18.0952 1.77333 18.2552 2.39333 18.2552 3.14C18.2552 5.20667 17.3885 7.00667 15.6552 8.54H17.8952C18.1085 8.54 18.2618 8.58667 18.3552 8.68C18.4485 8.77333 18.4952 8.94667 18.4952 9.2C18.4952 10.12 17.7418 10.58 16.2352 10.58H13.7952C13.7685 11.2467 13.7552 11.7667 13.7552 12.14C13.7552 13.5267 13.9152 14.5 14.2352 15.06C14.5685 15.62 15.0885 15.9 15.7952 15.9C16.3685 15.9 16.8752 15.7267 17.3152 15.38C17.7552 15.0333 18.2752 14.5133 18.8752 13.82C19.0352 13.6333 19.2152 13.54 19.4152 13.54ZM15.9152 2.46C15.7152 2.46 15.4885 2.71333 15.2352 3.22C14.9952 3.71333 14.7618 4.40667 14.5352 5.3C14.3218 6.18 14.1418 7.16 13.9952 8.24C14.7818 7.56 15.3685 6.8 15.7552 5.96C16.1552 5.10667 16.3552 4.33333 16.3552 3.64C16.3552 2.85333 16.2085 2.46 15.9152 2.46ZM27.2667 13.54C27.4401 13.54 27.5734 13.62 27.6667 13.78C27.7734 13.94 27.8267 14.16 27.8267 14.44C27.8267 14.9733 27.7001 15.3867 27.4467 15.68C26.9534 16.28 26.2534 16.8333 25.3467 17.34C24.4534 17.8467 23.4934 18.1 22.4667 18.1C21.0667 18.1 19.9801 17.72 19.2067 16.96C18.4334 16.2 18.0467 15.16 18.0467 13.84C18.0467 12.92 18.2401 12.0667 18.6267 11.28C19.0134 10.48 19.5467 9.84667 20.2267 9.38C20.9201 8.91333 21.7001 8.68 22.5667 8.68C23.3401 8.68 23.9601 8.91333 24.4267 9.38C24.8934 9.83333 25.1267 10.4533 25.1267 11.24C25.1267 12.16 24.7934 12.9533 24.1267 13.62C23.4734 14.2733 22.3601 14.7933 20.7867 15.18C21.1201 15.7933 21.7534 16.1 22.6867 16.1C23.2867 16.1 23.9667 15.8933 24.7267 15.48C25.5001 15.0533 26.1667 14.5 26.7267 13.82C26.8867 13.6333 27.0667 13.54 27.2667 13.54ZM22.2267 10.64C21.7334 10.64 21.3134 10.9267 20.9667 11.5C20.6334 12.0733 20.4667 12.7667 20.4667 13.58V13.62C21.2534 13.4333 21.8734 13.1533 22.3267 12.78C22.7801 12.4067 23.0067 11.9733 23.0067 11.48C23.0067 11.2267 22.9334 11.0267 22.7867 10.88C22.6534 10.72 22.4667 10.64 22.2267 10.64ZM34.5089 11.9C34.5089 12.9533 34.2622 13.9533 33.7689 14.9C33.2889 15.8333 32.6422 16.5933 31.8289 17.18C31.0289 17.7667 30.1689 18.0733 29.2489 18.1C29.0756 20.6733 28.6822 22.82 28.0689 24.54C27.4556 26.2733 26.5556 27.14 25.3689 27.14C24.6489 27.14 24.1156 26.88 23.7689 26.36C23.4222 25.84 23.2489 25.12 23.2489 24.2C23.2489 22.8933 23.5489 21.3667 24.1489 19.62C24.7489 17.8867 25.6756 15.9733 26.9289 13.88C26.9289 11.9333 26.9156 10.58 26.8889 9.82C26.8756 9.43333 27.0289 9.12667 27.3489 8.9C27.6689 8.67333 28.0689 8.56 28.5489 8.56C28.8289 8.56 29.0289 8.62 29.1489 8.74C29.2822 8.84667 29.3556 9.06667 29.3689 9.4C29.3689 9.73333 29.3756 9.98 29.3889 10.14C29.8156 9.60667 30.2356 9.22667 30.6489 9C31.0622 8.76 31.5022 8.64 31.9689 8.64C32.7156 8.64 33.3222 8.94 33.7889 9.54C34.2689 10.14 34.5089 10.9267 34.5089 11.9ZM29.3489 16.18C29.8289 16.0733 30.2689 15.8133 30.6689 15.4C31.0822 14.9733 31.4089 14.4533 31.6489 13.84C31.8889 13.2133 32.0089 12.56 32.0089 11.88C32.0089 11.48 31.9289 11.18 31.7689 10.98C31.6089 10.7667 31.3956 10.66 31.1289 10.66C30.6489 10.66 30.0689 11.1667 29.3889 12.18C29.3756 12.7667 29.3689 13.6267 29.3689 14.76C29.3689 15.3733 29.3622 15.8467 29.3489 16.18ZM25.5289 25.18C25.8889 25.18 26.1889 24.3933 26.4289 22.82C26.6689 21.26 26.8222 19.3133 26.8889 16.98C26.3156 18.3133 25.8622 19.5867 25.5289 20.8C25.1956 22.0133 25.0289 23.0333 25.0289 23.86C25.0289 24.2867 25.0822 24.6133 25.1889 24.84C25.2822 25.0667 25.3956 25.18 25.5289 25.18ZM49.5825 15.76C49.8625 15.76 50.0758 15.8533 50.2225 16.04C50.3692 16.2267 50.4425 16.46 50.4425 16.74C50.4425 17.0867 50.3292 17.4 50.1025 17.68C49.8892 17.9467 49.5958 18.08 49.2225 18.08C48.5825 18.08 47.6292 18.0333 46.3625 17.94C46.1092 17.9267 45.6425 17.9 44.9625 17.86C44.2825 17.82 43.7492 17.8 43.3625 17.8C43.1892 17.8 42.9358 17.86 42.6025 17.98C42.5358 17.9933 42.4025 18.0267 42.2025 18.08C42.0158 18.1333 41.8558 18.16 41.7225 18.16C41.5092 18.16 41.3292 18.0667 41.1825 17.88C41.0492 17.68 40.9825 17.3867 40.9825 17C40.9825 16.5733 41.0825 16.2467 41.2825 16.02C41.4825 15.78 41.7958 15.5667 42.2225 15.38C43.1292 14.98 43.9825 14.4733 44.7825 13.86C45.5958 13.2333 46.2425 12.56 46.7225 11.84C47.2158 11.12 47.4625 10.4333 47.4625 9.78C47.4625 9.26 47.3425 8.88 47.1025 8.64C46.8758 8.38667 46.5092 8.26 46.0025 8.26C45.4158 8.26 44.9425 8.42 44.5825 8.74C44.2358 9.06 44.0625 9.50667 44.0625 10.08C44.0625 10.8667 43.6692 11.26 42.8825 11.26C42.5092 11.26 42.2158 11.1533 42.0025 10.94C41.8025 10.7267 41.7025 10.42 41.7025 10.02C41.7025 9.35333 41.8758 8.74 42.2225 8.18C42.5692 7.62 43.0892 7.17333 43.7825 6.84C44.4758 6.49333 45.3225 6.32 46.3225 6.32C47.5225 6.32 48.4625 6.62 49.1425 7.22C49.8225 7.82 50.1625 8.65333 50.1625 9.72C50.1625 10.7333 49.7158 11.7933 48.8225 12.9C47.9425 14.0067 46.6692 14.9867 45.0025 15.84L49.5825 15.76Z" fill="#B0B0B0"/>
</svg>
