<svg width="20" height="20" viewBox="0 0 20 20" fill="none" xmlns="http://www.w3.org/2000/svg">
<path d="M10.0004 12.2308C9.90003 12.2308 9.80656 12.2148 9.72003 12.1827C9.6335 12.1506 9.55121 12.0956 9.47316 12.0177L5.72795 8.27251C5.61267 8.15709 5.55364 8.01202 5.55087 7.8373C5.54823 7.66272 5.60725 7.51501 5.72795 7.39418C5.84878 7.27348 5.99517 7.21313 6.16712 7.21313C6.33906 7.21313 6.48545 7.27348 6.60628 7.39418L10.0004 10.7886L13.3946 7.39418C13.51 7.2789 13.6551 7.21987 13.8298 7.21709C14.0044 7.21445 14.1521 7.27348 14.2729 7.39418C14.3936 7.51501 14.454 7.6614 14.454 7.83334C14.454 8.00529 14.3936 8.15168 14.2729 8.27251L10.5277 12.0177C10.4497 12.0956 10.3674 12.1506 10.2809 12.1827C10.1943 12.2148 10.1009 12.2308 10.0004 12.2308Z" fill="#B0B0B0"/>
</svg>
