<svg width="20" height="21" viewBox="0 0 20 21" fill="none" xmlns="http://www.w3.org/2000/svg">
<rect y="0.5" width="20" height="20" rx="10" fill="#E08E57"/>
<path d="M9.89967 15.9861C9.34728 15.9861 8.85205 15.9194 8.41395 15.7861C7.97586 15.6623 7.58538 15.4908 7.24252 15.2718C6.90919 15.0432 6.61871 14.7908 6.37109 14.5146L7.35681 13.1861C7.68062 13.4813 8.033 13.7385 8.41395 13.9575C8.80443 14.167 9.23776 14.2718 9.71395 14.2718C10.0759 14.2718 10.3901 14.2146 10.6568 14.1004C10.933 13.9861 11.1425 13.8194 11.2854 13.6004C11.4378 13.3813 11.514 13.1146 11.514 12.8004C11.514 12.448 11.4282 12.148 11.2568 11.9004C11.0949 11.6432 10.8044 11.448 10.3854 11.3146C9.96633 11.1813 9.37586 11.1146 8.61395 11.1146V9.60036C9.26157 9.60036 9.77109 9.5337 10.1425 9.40036C10.514 9.25751 10.7759 9.06703 10.9282 8.82893C11.0901 8.58132 11.1711 8.30036 11.1711 7.98608C11.1711 7.57655 11.0473 7.25751 10.7997 7.02893C10.552 6.79084 10.2044 6.67179 9.75681 6.67179C9.38538 6.67179 9.03776 6.75751 8.71395 6.92893C8.39967 7.09084 8.08538 7.31465 7.77109 7.60036L6.68538 6.30036C7.15205 5.90989 7.64252 5.60036 8.15681 5.37179C8.67109 5.1337 9.23776 5.01465 9.85681 5.01465C10.533 5.01465 11.1282 5.12417 11.6425 5.34322C12.1663 5.56227 12.5711 5.88131 12.8568 6.30036C13.1425 6.71941 13.2854 7.22893 13.2854 7.82893C13.2854 8.40036 13.133 8.89084 12.8282 9.30036C12.5235 9.70989 12.0901 10.0242 11.5282 10.2432V10.3146C11.9187 10.4194 12.2711 10.5908 12.5854 10.8289C12.9092 11.0575 13.1616 11.348 13.3425 11.7004C13.533 12.0527 13.6282 12.4623 13.6282 12.9289C13.6282 13.567 13.4568 14.1146 13.114 14.5718C12.7806 15.0289 12.3282 15.3813 11.7568 15.6289C11.1949 15.867 10.5759 15.9861 9.89967 15.9861Z" fill="#CE671D"/>
</svg>
