<svg width="20" height="21" viewBox="0 0 20 21" fill="none" xmlns="http://www.w3.org/2000/svg">
<path d="M9.30056 15.8931C8.73865 15.8931 8.23865 15.8265 7.80056 15.6931C7.36246 15.5598 6.97199 15.3836 6.62913 15.1646C6.28627 14.9455 5.98151 14.7074 5.71484 14.4503L6.68627 13.1074C6.88627 13.3074 7.10056 13.4884 7.32913 13.6503C7.56722 13.8122 7.82437 13.9408 8.10056 14.036C8.38627 14.1312 8.69103 14.1789 9.01484 14.1789C9.37675 14.1789 9.6958 14.1027 9.97199 13.9503C10.2577 13.7979 10.4815 13.5789 10.6434 13.2931C10.8053 12.9979 10.8863 12.6455 10.8863 12.236C10.8863 11.6265 10.7196 11.155 10.3863 10.8217C10.0625 10.4884 9.63389 10.3217 9.10056 10.3217C8.7958 10.3217 8.53389 10.3646 8.31484 10.4503C8.0958 10.5265 7.82913 10.6646 7.51484 10.8646L6.5577 10.2503L6.84342 5.10742H12.5006V6.87885H8.6577L8.4577 9.12171C8.66722 9.02647 8.87199 8.95504 9.07199 8.90742C9.27199 8.8598 9.49103 8.83599 9.72913 8.83599C10.3196 8.83599 10.8625 8.95504 11.3577 9.19314C11.8529 9.42171 12.2482 9.78361 12.5434 10.2789C12.8387 10.7741 12.9863 11.4074 12.9863 12.1789C12.9863 12.9598 12.8101 13.6312 12.4577 14.1931C12.1148 14.7455 11.6625 15.1693 11.1006 15.4646C10.5482 15.7503 9.94818 15.8931 9.30056 15.8931Z" fill="#BBBBBB"/>
</svg>
