<svg width="26" height="25" viewBox="0 0 26 25" fill="none" xmlns="http://www.w3.org/2000/svg">
<path d="M13 20.9123L6.77499 24.6623C6.49999 24.8373 6.21249 24.9123 5.91249 24.8873C5.61249 24.8623 5.34999 24.7623 5.12499 24.5873C4.89999 24.4123 4.72499 24.1936 4.59999 23.9311C4.47499 23.6686 4.44999 23.3748 4.52499 23.0498L6.17499 15.9623L0.662492 11.1998C0.412492 10.9748 0.256242 10.7186 0.193742 10.4311C0.131242 10.1436 0.149992 9.8623 0.249992 9.5873C0.349992 9.3123 0.499992 9.0873 0.699992 8.9123C0.899992 8.7373 1.17499 8.6248 1.52499 8.5748L8.79999 7.9373L11.6125 1.2623C11.7375 0.962305 11.9312 0.737305 12.1937 0.587305C12.4562 0.437305 12.725 0.362305 13 0.362305C13.275 0.362305 13.5437 0.437305 13.8062 0.587305C14.0687 0.737305 14.2625 0.962305 14.3875 1.2623L17.2 7.9373L24.475 8.5748C24.825 8.6248 25.1 8.7373 25.3 8.9123C25.5 9.0873 25.65 9.3123 25.75 9.5873C25.85 9.8623 25.8687 10.1436 25.8062 10.4311C25.7437 10.7186 25.5875 10.9748 25.3375 11.1998L19.825 15.9623L21.475 23.0498C21.55 23.3748 21.525 23.6686 21.4 23.9311C21.275 24.1936 21.1 24.4123 20.875 24.5873C20.65 24.7623 20.3875 24.8623 20.0875 24.8873C19.7875 24.9123 19.5 24.8373 19.225 24.6623L13 20.9123Z" fill="#DBDBDB"/>
</svg>
