<svg width="263" height="305" viewBox="0 0 263 305" fill="none" xmlns="http://www.w3.org/2000/svg">
<rect y="141.061" width="133.988" height="163.763" rx="6.61671" fill="#FFB64A"/>
<path fill-rule="evenodd" clip-rule="evenodd" d="M124.062 160.084C124.062 156.429 121.1 153.467 117.445 153.467H16.5405C12.8862 153.467 9.92383 156.429 9.92383 160.084V285.801C9.92383 289.455 12.8862 292.418 16.5405 292.418H96.3545V268.846C96.3545 265.191 99.3169 262.229 102.971 262.229H124.062V160.084Z" fill="#E0E0E0"/>
<path d="M96.3545 292.418L110.208 277.323L124.062 262.229H102.971C99.3169 262.229 96.3545 265.191 96.3545 268.846V292.418Z" fill="#CACACA"/>
<path d="M25.6387 253.545H89.3245" stroke="#9C96A4" stroke-width="4.96253" stroke-linecap="round"/>
<path d="M25.6387 234.521H105.866" stroke="#9C96A4" stroke-width="4.96253" stroke-linecap="round"/>
<path d="M25.6387 214.67H105.866" stroke="#9C96A4" stroke-width="4.96253" stroke-linecap="round"/>
<path d="M25.6387 194.818H105.866" stroke="#9C96A4" stroke-width="4.96253" stroke-linecap="round"/>
<path fill-rule="evenodd" clip-rule="evenodd" d="M79.2307 141.885C79.3398 141.212 79.3965 140.522 79.3965 139.818C79.3965 132.738 73.6567 126.998 66.5762 126.998C59.4958 126.998 53.756 132.738 53.756 139.818C53.756 140.522 53.8127 141.212 53.9218 141.885H49.6221C42.3135 141.885 36.3887 147.81 36.3887 155.119V163.39C36.3887 165.217 37.8699 166.698 39.697 166.698H93.4577C95.2849 166.698 96.7661 165.217 96.7661 163.39V155.119C96.7661 147.81 90.8413 141.885 83.5327 141.885H79.2307ZM73.6059 139.818C73.6059 143.7 70.4583 146.848 66.5756 146.848C62.6929 146.848 59.5454 143.7 59.5454 139.818C59.5454 135.935 62.6929 132.787 66.5756 132.787C70.4583 132.787 73.6059 135.935 73.6059 139.818Z" fill="#958D96"/>
<path fill-rule="evenodd" clip-rule="evenodd" d="M222.842 172.209C241.015 159.04 252.84 137.61 252.84 113.412C252.84 111.778 252.786 110.157 252.68 108.551H246.34C246.456 110.156 246.515 111.777 246.515 113.412C246.515 133.805 237.312 152.043 222.842 164.179V172.209Z" fill="#929292"/>
<path fill-rule="evenodd" clip-rule="evenodd" d="M245.283 88.8296C245.42 86.9635 245.49 85.0787 245.49 83.1776C245.49 41.2578 211.59 7.27501 169.771 7.27501C127.953 7.27501 94.0523 41.2578 94.0523 83.1776C94.0523 85.0787 94.122 86.9635 94.2591 88.8296H86.9835C86.8584 86.9618 86.7949 85.0771 86.7949 83.1776C86.7949 37.2399 123.945 0 169.771 0C215.598 0 252.747 37.2399 252.747 83.1776C252.747 85.0771 252.684 86.9618 252.559 88.8296H245.283Z" fill="#929292"/>
<path d="M80.3164 80.0789C80.3164 75.2913 84.1975 71.4102 88.9852 71.4102H93.2561C95.0515 71.4102 96.5069 72.8656 96.5069 74.6609V109.816C96.5069 111.611 95.0515 113.067 93.2561 113.067H88.9852C84.1975 113.067 80.3164 109.185 80.3164 104.398V80.0789Z" fill="#5F5F5F"/>
<path d="M258.684 80.0789C258.684 75.2913 254.802 71.4102 250.015 71.4102H245.744C243.949 71.4102 242.493 72.8656 242.493 74.6609V109.816C242.493 111.611 243.949 113.067 245.744 113.067H250.015C254.802 113.067 258.684 109.185 258.684 104.398V80.0789Z" fill="#5F5F5F"/>
<path d="M76 79.7005C76 78.4828 76.6806 77.3672 77.7633 76.81L82.4762 74.3848V110.09L77.7633 107.665C76.6806 107.108 76 105.992 76 104.775V79.7005Z" fill="#D9D9D9"/>
<path d="M263 79.7005C263 78.4828 262.319 77.3672 261.237 76.81L256.524 74.3848V110.09L261.237 107.665C262.319 107.108 263 105.992 263 104.775V79.7005Z" fill="#D9D9D9"/>
<rect width="30.7757" height="15.4114" rx="7.70571" transform="matrix(0.9025 -0.430691 0.428403 0.903588 196.473 172.074)" fill="#757575"/>
</svg>
