<svg width="259" height="88" viewBox="0 0 259 88" fill="none" xmlns="http://www.w3.org/2000/svg">
<rect y="0.148438" width="259" height="87.7037" rx="10.963" fill="#00B2FF"/>
<path d="M73.0863 57.7043V46.9172H79.4814V57.7043H73.0863ZM62.5801 57.7043V30.2969H68.9752V57.7043H62.5801ZM52.074 57.7043V39.2573H58.469V57.7043H52.074Z" fill="white"/>
<path d="M93.1102 58.5002L100.905 34.1296H106.66L114.455 58.5002H109.324L105.871 45.8051C105.498 44.5334 105.137 43.2179 104.786 41.8585C104.457 40.4771 104.106 39.1397 103.733 37.846H103.602C103.295 39.1616 102.955 40.4991 102.582 41.8585C102.231 43.2179 101.881 44.5334 101.53 45.8051L98.0435 58.5002H93.1102ZM97.9448 52.2514V48.4691H109.522V52.2514H97.9448ZM117.304 58.5002V34.1296H122.172V58.5002H117.304ZM155.937 30.9394H160.114V61.3945H155.937V30.9394ZM152.286 42.582H157.351V46.0682H152.286V42.582ZM149.293 31.4327H153.371V60.046H149.293V31.4327ZM134.822 34.0638H146.826V53.7971H134.822V34.0638ZM142.781 37.4842H138.9V50.4096H142.781V37.4842ZM171.622 36.07H175.207V37.1882C175.207 38.9862 174.889 40.6854 174.253 42.286C173.617 43.8647 172.664 45.246 171.392 46.43C170.12 47.5921 168.487 48.4582 166.491 49.0282L164.485 45.6407C165.713 45.2679 166.776 44.7965 167.675 44.2265C168.596 43.6345 169.342 42.9548 169.912 42.1874C170.504 41.4199 170.931 40.6197 171.195 39.7865C171.48 38.9314 171.622 38.0653 171.622 37.1882V36.07ZM172.444 36.07H175.996V37.1882C175.996 37.9995 176.139 38.7998 176.424 39.5891C176.731 40.3785 177.169 41.1239 177.739 41.8256C178.331 42.5053 179.077 43.1192 179.976 43.6674C180.897 44.2155 181.982 44.6431 183.232 44.95L181.226 48.4034C179.274 47.8771 177.641 47.0659 176.325 45.9696C175.032 44.8514 174.056 43.5358 173.398 42.0229C172.762 40.51 172.444 38.8985 172.444 37.1882V36.07ZM165.505 34.1296H182.147V37.55H165.505V34.1296ZM171.622 31.0051H176.029V35.6754H171.622V31.0051ZM185.139 30.9722H189.514V49.3242H185.139V30.9722ZM179.219 49.8505C181.368 49.8505 183.221 50.0807 184.778 50.5411C186.334 51.0016 187.529 51.6594 188.363 52.5145C189.218 53.3696 189.645 54.4111 189.645 55.6389C189.645 57.4807 188.713 58.9059 186.85 59.9145C184.986 60.9231 182.443 61.4274 179.219 61.4274C175.996 61.4274 173.453 60.9231 171.589 59.9145C169.726 58.9059 168.794 57.4807 168.794 55.6389C168.794 53.8191 169.726 52.4048 171.589 51.3962C173.453 50.3657 175.996 49.8505 179.219 49.8505ZM179.219 53.1722C177.904 53.1722 176.786 53.2599 175.865 53.4354C174.966 53.6108 174.286 53.8848 173.826 54.2576C173.387 54.6303 173.168 55.0908 173.168 55.6389C173.168 56.4502 173.672 57.0641 174.681 57.4807C175.711 57.8754 177.224 58.0727 179.219 58.0727C181.193 58.0727 182.695 57.8754 183.725 57.4807C184.756 57.0641 185.271 56.4502 185.271 55.6389C185.271 55.0908 185.041 54.6303 184.58 54.2576C184.12 53.8848 183.44 53.6108 182.541 53.4354C181.664 53.2599 180.557 53.1722 179.219 53.1722Z" fill="white"/>
</svg>
