<svg width="184" height="302" viewBox="0 0 184 302" fill="none" xmlns="http://www.w3.org/2000/svg">
<mask id="path-1-inside-1_882_9095" fill="white">
<path d="M0.192279 299.785C0.594581 299.348 1.09129 298.969 1.38668 298.469C3.70313 294.581 7.20625 292.895 11.5908 292.273C16.0405 291.639 20.1299 292.966 24.3147 293.859C25.6111 294.133 26.2585 297.189 25.3794 298.507C25.1686 298.819 24.8612 299.067 24.6546 299.382C22.865 302.154 20.716 302.37 17.4591 301.646C13.4648 300.754 9.21095 300.339 4.97196 301.742C3.6283 302.185 1.67652 300.769 0 300.201C0.0620764 300.063 0.126034 299.921 0.18811 299.783L0.192279 299.785Z"/>
<path d="M98.8671 122.076C101.021 121.021 102.906 121.067 104.868 121.851C105.755 122.204 106.697 122.402 107.617 122.672C107.827 121.516 108.165 120.365 108.197 119.205C108.211 118.609 107.671 118.003 107.347 117.333C109.711 118.031 110.228 117.742 110.425 115.439C110.567 113.751 111.248 113.27 112.52 114.439C114.399 116.168 115.744 115.609 116.997 113.371C117.921 114.384 118.712 115.27 119.517 116.136C119.984 116.636 120.514 117.558 120.953 117.522C122.902 117.361 125.157 117.43 126.657 116.435C127.933 115.591 128.774 113.554 127.924 111.531C126.84 108.963 127.443 108.059 130.028 107.289C131.002 107 132.049 106.151 132.561 105.266C133.929 102.886 136.33 102.601 138.548 102.01C139.074 101.868 139.875 102.528 140.474 102.936C142.541 104.354 144.672 103.615 145.711 101.354C145.949 100.836 147.353 100.487 148.066 100.666C148.743 100.836 149.118 102.042 149.818 102.354C150.536 102.675 151.903 102.831 152.269 102.418C153.788 100.703 155.05 101.125 156.605 102.285C157.218 102.744 158.471 103.124 158.974 102.803C160.927 101.574 162.482 102.312 164.216 103.23C167.637 105.051 167.728 105.046 170.116 102.024C171.589 100.161 173.061 98.5056 175.815 99.0331C178.641 103.372 180.146 108.174 180.086 113.522C180.045 117.251 180.585 120.998 180.411 124.713C180.269 127.722 179.359 130.685 178.975 133.694C178.788 135.157 179.103 136.675 179.057 138.161C179.016 139.565 179.254 141.252 178.582 142.312C175.078 147.839 174.118 153.806 174.616 160.204C174.804 162.584 174.996 165.043 173.583 167.318C173.235 167.882 173.601 169.299 174.122 169.905C175.092 171.024 176.418 171.836 178.074 173.157C179.785 171.079 181.422 169.088 183.123 167.024C184.665 169.373 180.832 183.284 176.089 193.888C174.763 193.223 173.423 192.59 172.124 191.883C170.784 191.154 169.832 191.273 168.808 192.59C168.236 193.324 167.015 193.548 165.922 194.085C165.684 193.163 165.56 192.879 165.538 192.581C165.208 188.058 165.213 188.118 160.589 188.141C157.607 188.159 154.826 188.269 153.225 191.466C152.905 192.108 151.766 192.489 150.929 192.691C147.54 193.503 144.146 194.328 140.712 194.883C139.147 195.135 137.483 194.805 135.868 194.7C134.761 194.626 133.485 194.08 132.593 194.461C130.663 195.291 129.95 194.383 129.09 192.934C126.524 188.59 127.073 188.517 122.321 190.741C119.375 192.122 116.677 192.429 113.695 191.007C111.962 190.177 110.036 189.742 108.088 189.095C110.745 186.081 110.489 186.173 109.158 182.554C108.115 179.72 106.048 178.105 103.811 176.583C103.107 176.101 101.918 176.257 100.948 176.243C97.3486 176.202 94.7325 173.129 95.2584 169.62C95.4094 168.597 95.2813 167.533 95.2813 166.327C98.0941 164.942 99.2375 162.103 99.9419 159.062C100.308 157.466 100.774 156.319 102.553 155.829C104.067 155.407 104.712 152.604 104.04 150.182C103.509 148.265 101.986 148.976 100.674 148.857C98.9174 148.701 97.1657 148.284 95.4734 147.77C95.2036 147.687 94.9383 146.302 95.2127 145.912C98.5835 141.142 96.2601 136.015 96.1046 131.066C96.0726 129.997 94.5724 128.97 93.5662 127.699C95.4643 127.286 97.2617 129.703 99.1461 127.392C100.783 125.378 100.509 123.938 98.8488 122.067L98.8671 122.076Z"/>
<path d="M150.871 100.574C149.563 98.4643 147.774 97.2214 145.259 98.4827C144.541 98.845 143.672 99.5284 143.489 100.226C143.054 101.909 142.295 101.9 141.321 100.877C139.08 98.5239 136.194 97.4278 133.225 96.4646C132.517 96.2353 131.693 95.9096 131.035 96.0747C128.112 96.8177 126.315 95.3821 124.856 93.1439C124.673 92.8641 124.439 92.4651 124.508 92.1945C125.185 89.6581 123.488 89.2958 121.672 88.8279C120.104 88.4197 118.617 87.6859 117.062 87.1951C116.463 87.0071 115.759 86.9979 115.127 87.0896C114.716 87.1493 114.35 87.5437 113.961 87.7822C111.5 89.2866 109.448 88.8555 107.805 86.4888C106.447 84.5349 102.664 84.4845 101.297 86.475C101.008 86.8924 101.04 87.6171 101.118 88.1721C101.219 88.883 101.512 89.571 101.827 90.6121C99.0829 90.3415 96.6818 90.2223 94.3263 89.8186C92.9954 89.5893 92.6661 88.6536 92.7301 87.108C92.9313 82.3196 95.0398 78.2101 96.668 73.8941C97.0797 72.8025 96.5583 71.3577 96.4485 69.8625C96.2793 69.9955 96.3845 69.8396 96.4988 69.835C98.4655 69.7662 99.9657 68.9819 100.171 66.8767C100.304 65.5374 98.0356 63.9413 96.0323 64.0972C93.4985 64.2944 91.5364 63.5285 90.2192 61.3728C88.8562 59.1345 86.7706 59.6161 85.0463 59.8317C84.5707 57.5889 84.1042 55.5157 83.7154 53.4289C83.6559 53.1216 83.9166 52.7363 84.0767 52.4061C85.458 49.5257 85.3528 45.8977 89.1992 44.2878C90.7634 43.632 89.7069 38.1602 88.0787 36.9356C86.8621 36.0229 85.6455 35.1055 84.3831 34.257C83.0842 33.3856 82.1512 32.4729 82.0094 30.6841C81.8539 28.6981 78.945 27.0561 76.9738 27.5469C76.1048 27.7625 75.2587 28.0606 74.0466 28.4275C74.1244 26.3085 75.309 23.8639 72.6242 22.997C71.865 22.7539 70.781 23.5337 69.2168 24.0565C68.6634 23.0062 67.9042 21.6211 67.1953 20.2084C66.962 19.7451 66.9574 19.1351 66.6556 18.7499C64.8124 16.4061 64.8947 15.7319 67.3691 14.1266C67.6847 13.9202 68.0231 13.7505 68.6085 13.4157C70.0127 16.1034 72.3315 15.5118 74.8104 15.3696C78.0715 15.1815 81.3691 15.8374 84.653 15.8466C87.5801 15.8512 90.5027 15.4246 93.4299 15.2733C94.4635 15.2182 95.5063 15.4613 96.5445 15.498C99.6089 15.6035 102.673 15.6448 105.733 15.7778C106.616 15.8191 107.499 16.0484 108.358 16.2731C109.808 16.6492 111.231 17.3922 112.69 17.4565C118.658 17.7225 123.886 13.8285 125.629 8.04024C126.09 6.50833 126.53 4.97642 126.987 3.44451C127.475 1.80558 128.694 0.657407 130.646 0C132.173 3.93068 133.724 7.87054 135.238 11.8242C137.772 18.4334 139.981 25.1894 142.89 31.6243C145.387 37.1511 148.575 42.3707 151.63 47.6269C156.409 55.8597 161.665 63.8358 166.087 72.2521C169.54 78.8292 172.079 85.8971 174.905 92.7907C175.34 93.8548 175.152 95.1758 175.285 96.8269C171.429 96.2949 169.893 99.267 167.775 101.487C167.405 101.872 166.261 101.886 165.676 101.624C163.439 100.629 161.399 98.8221 158.733 100.629C158.463 100.813 157.727 100.492 157.306 100.239C154.37 98.4643 153.693 98.4689 150.871 100.56V100.574Z"/>
<path d="M93.7309 174.262C94.6045 175.078 95.4644 175.73 96.1321 176.546C97.303 177.972 98.7208 178.404 100.532 178.367C104.287 178.293 107.264 182.137 107.983 185.403C108.06 185.765 107.484 186.384 107.082 186.724C105.119 188.375 105.357 190.315 107.772 191.195C110.763 192.287 113.782 193.324 116.837 194.209C117.697 194.457 118.795 194.278 119.677 193.98C121.681 193.305 123.62 192.429 125.815 191.544C126.584 192.778 127.444 193.929 128.061 195.204C128.957 197.048 130.147 197.699 132.077 196.768C132.607 196.511 133.376 196.181 133.801 196.383C138.379 198.552 142.71 196.438 147.11 195.699C148.899 195.397 150.673 194.97 152.43 194.498C153.125 194.31 154.067 194.012 154.355 193.47C156.294 189.824 159.587 190.196 162.908 190.319C163.882 192.071 162.126 195.007 165.455 195.736C167.779 196.245 169.677 196.319 170.628 193.562C172.11 194.282 173.423 194.741 174.502 195.521C175.06 195.924 175.572 196.942 175.49 197.603C175.129 200.46 174.539 203.29 174.031 206.134C171.383 205.538 168.538 207.615 168.698 210.193C168.835 212.413 168.282 214.055 166.274 215.078C163.973 216.247 163.626 218.596 162.748 220.678C162.213 221.948 161.453 223.278 160.433 224.154C156.861 227.214 153.134 230.085 149.598 232.919C149.132 232.722 148.944 232.704 148.876 232.608C148.043 231.388 147.458 229.512 146.347 229.117C145.327 228.75 143.753 230.012 142.395 230.475C141.846 230.663 141.178 230.842 140.648 230.7C138.26 230.053 135.9 229.287 133.348 228.507C133.302 227.81 133.248 226.92 133.22 226.498C131.331 225.219 129.721 224.132 127.75 222.792C128.299 224.962 128.774 226.824 129.282 228.833C128.546 229.31 127.791 229.796 126.881 230.392C126.51 229.383 126.186 228.503 125.779 227.393C124.26 227.893 122.856 228.351 121.15 228.906C122.481 231.718 121.393 233.621 119.234 235.263C118.077 236.144 118.145 238.776 119.023 240.015C119.293 240.396 119.449 240.983 119.403 241.455C119.174 243.854 118.863 246.239 118.58 248.633C118.827 248.72 119.074 248.807 119.321 248.894C118.324 249.39 117.331 249.881 116.586 250.252C115.406 248.72 114.34 247.34 113.009 245.615C113.512 245.037 114.454 244.083 115.227 243.014C115.547 242.57 115.52 241.872 115.653 241.29C115.113 241.331 114.463 241.194 114.061 241.45C112.684 242.331 112.007 241.666 111.294 240.299C112.03 239.666 112.767 239.033 113.508 238.4L113.48 237.717C112.789 237.717 111.77 237.423 111.463 237.767C110.146 239.253 108.545 239.171 106.853 239.015C104.886 238.836 102.915 238.721 100.957 238.506C99.4435 238.341 98.2269 235.488 98.7208 233.25C98.8855 232.511 99.4023 231.814 99.4206 231.094C99.4343 230.31 99.0547 229.521 98.8443 228.732C98.6248 228.755 98.4007 228.773 98.1811 228.796C97.8061 229.346 97.3624 229.86 97.0651 230.452C96.0086 232.543 95.0939 234.433 92.0295 233.085C90.3922 232.364 84.8031 236.089 83.2984 238.588C82.4705 237.877 81.0847 237.249 81.0207 236.506C80.9384 235.506 81.8531 234.41 82.3882 233.383C82.5163 233.135 82.841 232.984 83.0743 232.791C85.8276 230.489 85.6264 226.196 82.5803 224.081C81.2128 223.132 79.9642 222.292 80.2752 220.316C80.3438 219.884 80.0236 219.174 79.6577 218.921C75.8433 216.33 77.3206 212.624 77.6225 209.207C77.7048 208.257 78.1484 207.271 78.6515 206.441C81.2448 202.144 79.9779 198.213 77.691 194.324C77.4624 193.934 77.3343 193.278 77.499 192.888C79.6349 187.87 81.1396 182.481 85.5532 178.789C86.0243 178.394 86.8613 177.876 87.2455 178.05C88.86 178.789 89.825 177.945 90.8404 176.945C91.7551 176.046 92.7247 175.202 93.7401 174.271L93.7309 174.262Z"/>
<path d="M82.1636 250.289C80.2609 250.115 78.2759 249.518 76.4693 249.867C73.9721 250.348 73.9858 252.5 75.0698 254.967C73.7663 254.596 73.0802 254.33 72.3713 254.206C70.7111 253.917 70.1119 253.146 70.5281 251.367C70.9398 249.601 70.8071 247.707 71.205 245.936C71.7813 243.372 70.4778 241.923 68.5706 240.735C67.3266 239.96 63.4069 242.015 63.1965 243.652C62.945 245.611 62.7071 247.633 62.9404 249.569C63.041 250.399 64.3216 251.096 65.0854 251.835C65.8538 252.582 67.1299 253.188 67.3403 254.064C68.1132 257.238 66.6085 258.256 62.4419 257.361C62.794 262.81 58.1197 264.186 54.7489 267.328C54.4425 265.25 54.2596 263.686 53.9806 262.141C53.4592 259.224 52.5261 258.586 49.7316 259.058C48.483 259.269 47.2253 259.402 45.5924 259.623C46.1504 257.692 46.6215 256.073 47.0743 254.499C51.401 254.788 51.6251 254.573 52.7274 250.555C52.9469 249.748 53.5323 248.734 54.223 248.431C55.5173 247.858 56.2583 248.853 56.7614 250.005C56.9946 250.537 57.3788 251.004 58.0603 252.078C58.6686 250.183 59.2312 248.817 59.533 247.395C59.7983 246.166 57.8682 244.845 56.519 245.427C51.5657 247.56 46.6124 249.693 41.7688 252.059C39.8433 253 39.4729 255.119 39.3311 257.169C39.0292 261.599 38.1053 262.585 33.7146 263.342C32.3791 263.572 31.0436 263.833 29.237 264.168C29.237 261.755 29.237 259.517 29.237 257.279C29.237 256.361 29.2827 255.44 29.1684 254.536C29.1226 254.197 28.6744 253.908 28.4137 253.596C28.1027 253.866 27.5722 254.1 27.5264 254.412C27.3435 255.614 27.22 256.838 27.2429 258.049C27.2977 261.136 25.6101 263.553 22.3765 263.819C20.6705 263.957 19.3578 264.503 18.9188 266.663C18.1595 270.364 17.972 270.328 14.1347 270.213C13.6865 270.199 13.2383 270.13 12.4562 270.052C12.4562 268.007 12.2961 265.966 12.4927 263.957C12.8266 260.554 10.8417 258.022 9.47412 255.274C9.18141 254.687 8.12946 254.389 7.36108 254.16C4.81355 253.399 3.29966 251.564 3.25392 248.931C3.22191 247.023 3.25392 245.115 3.26764 243.207C3.26764 242.987 3.3454 242.767 3.414 242.409C5.3075 242.189 6.81682 242.253 6.84883 244.854C6.86255 246.124 7.21015 247.427 7.62178 248.642C7.8962 249.45 8.55481 250.128 9.12652 250.991C11.546 248.537 8.19807 246.831 9.08078 244.514C10.7639 245.569 12.2869 246.665 13.9426 247.5C14.6652 247.863 15.6715 247.808 16.5084 247.679C16.7188 247.647 17.0024 246.528 16.8423 246.051C16.6731 245.546 16.0694 244.982 15.5525 244.845C13.5721 244.336 11.546 244.001 9.54273 243.574C7.3062 243.097 6.58356 241.428 7.97396 239.625C8.98016 238.318 9.25001 237.112 8.92985 235.433C8.70117 234.231 9.44211 232.851 9.69823 231.544C9.8766 230.631 9.96808 229.7 10.1007 228.778C9.28203 228.714 8.46334 228.645 7.45713 228.567C6.61557 227.379 6.49208 226.081 7.75899 224.691C8.7652 223.586 9.82172 222.403 8.94815 220.623C8.80636 220.339 9.36893 219.706 9.72567 218.999C10.7685 220.284 11.5689 221.265 12.3738 222.256C14.8985 219.756 14.9168 219.545 12.8769 217.009C10.8782 214.527 8.8704 212.055 6.83511 209.537C8.42675 207.652 10.0961 206.042 11.3036 204.143C12.511 202.245 13.2611 200.048 14.2856 197.823C15.9504 199.823 17.8622 201.447 16.975 204.327C16.8423 204.753 17.2402 205.533 17.6244 205.9C18.8867 207.097 24.645 207.134 26.0125 206.024C27.1377 205.116 28.1759 204.084 29.3605 203.267C30.8881 202.213 31.4735 200.818 31.597 199.02C31.6427 198.355 32.1687 197.383 32.7084 197.181C33.3121 196.956 34.1857 197.433 34.9403 197.621C35.9328 197.869 36.9162 198.126 38.1968 198.456C38.2608 198.603 38.5215 199.066 38.677 199.562C39.1253 200.979 39.6284 202.657 41.3801 202.391C42.4 202.235 43.3148 201.025 44.1472 200.167C44.7783 199.516 45.2037 198.667 45.8806 197.667C45.7342 200.286 45.533 202.428 45.5193 204.575C45.4964 208.093 47.7787 209.409 50.9482 207.79C51.2181 207.652 51.5016 207.538 51.6617 207.464C56.304 209.391 60.6124 211.239 65.8081 208.716C70.2171 206.574 75.0927 207.895 75.1841 214.083C75.207 215.523 75.4677 216.963 75.6232 218.403C75.6415 218.554 75.6232 218.743 75.701 218.848C77.288 220.949 78.6052 223.375 80.5536 225.058C83.435 227.549 83.7323 229.526 80.8509 231.961C80.2792 232.443 79.4102 233.03 79.3782 233.608C79.2181 236.286 77.2057 236.777 75.2939 237.474C74.3609 237.813 73.437 238.047 73.7434 239.497C74.0407 240.877 74.8137 241.162 76.0257 241.102C77.2377 241.042 78.4726 241.203 79.6709 241.065C81.7702 240.831 82.159 241.987 82.0218 243.689C82.008 243.84 82.0126 244.001 81.976 244.143C81.4318 246.147 80.3935 248.179 82.8359 250.014L82.1864 250.303L82.1636 250.289Z"/>
<path d="M42.5151 87.117C41.5546 87.5435 40.457 87.7912 39.6611 88.4287C37.9597 89.7863 36.702 89.6304 35.7461 87.6949C35.5768 87.3555 35.3847 87.0161 35.2658 86.6583C34.6301 84.7182 33.6559 83.2276 31.3096 83.6449C30.898 79.9757 31.2136 79.54 34.5661 79.2327C36.6654 79.04 38.7693 78.9208 40.7817 78.774C40.4981 76.999 40.4341 75.3203 39.9127 73.7976C39.5788 72.8252 38.7144 71.8804 37.8408 71.2841C35.9702 69.9999 34.9548 68.4038 34.5615 66.1197C33.848 62.0009 32.9561 57.9051 31.8813 53.869C31.3508 51.8738 31.6252 50.5162 33.3266 49.3604C34.3191 48.6862 35.1789 47.8101 36.6151 46.5855C37.8179 49.1127 38.8928 51.3647 40.027 53.7497C42.7026 50.585 40.9646 47.2918 40.4341 43.9482C40.896 43.7418 41.3534 43.5171 41.8245 43.3336C43.535 42.6686 43.8598 41.3522 42.5471 40.1001C41.4632 39.0636 40.2877 38.1187 38.9705 36.9767C40.8732 36.0089 42.538 35.1604 44.0198 34.4036C44.866 36.3942 45.6527 38.238 46.5354 40.3111C49.4854 37.3252 49.4945 37.0776 47.1574 34.399C47.9669 32.4314 49.179 31.6517 51.0633 33.1194C52.2311 31.6272 51.7753 29.8629 49.6958 27.8265C48.5707 27.9549 47.5096 28.3723 46.668 28.1017C45.0992 27.5971 44.8614 24.4966 46.3296 23.1252C47.3495 22.1712 48.6896 21.5658 49.8696 20.7815C50.8026 20.1623 51.7173 19.5156 52.7876 18.7772C53.2358 19.6074 53.6154 20.4971 54.1551 21.2769C55.0195 22.5336 57.2927 22.4281 57.3979 21.0842C57.6814 17.5709 60.3616 17.603 62.0996 17.1031C63.0006 18.2222 63.7004 19.0891 64.391 19.9559C64.6563 20.2908 64.9307 20.6256 65.1594 20.9833C66.0787 22.4143 66.8882 23.9279 67.9127 25.2763C69.0653 26.7899 70.442 27.7256 72.212 24.8039C72.0565 26.1845 71.9833 26.744 71.9284 27.3082C71.7089 29.6382 73.145 30.8215 75.473 30.2252C79.164 29.285 79.1228 29.2942 80.2388 32.9543C80.44 33.6239 81.0163 34.2568 81.5743 34.7155C82.8046 35.7337 84.131 36.6281 85.4208 37.5729C88.5354 39.8433 88.4897 42.7236 85.1875 44.5812C83.6691 45.4343 83.0836 46.503 83.0196 48.2229C82.9739 49.4384 82.297 50.6171 81.9493 51.828C81.7481 52.5251 81.4554 53.2727 81.5286 53.9607C81.7252 55.7907 82.297 57.5933 82.3473 59.4141C82.4021 61.2671 83.0379 62.2853 84.8902 61.9413C87.1496 61.5239 88.7047 62.3679 89.903 64.1704C91.0052 65.8261 92.6014 66.1885 94.4675 66.1426C95.5606 66.1151 96.6583 66.4086 97.756 66.5554C97.7468 66.8306 97.7377 67.1012 97.724 67.3764C96.8824 67.5002 96.0363 67.6195 95.1993 67.7525C93.5345 68.0185 92.7981 68.9129 93.8135 70.4356C94.934 72.1143 94.6962 73.5912 93.9187 75.3295C92.4414 78.641 90.8269 81.902 90.8497 85.7318C90.8589 87.039 89.999 88.4838 89.1895 89.6212C88.6818 90.3321 87.5658 90.8642 86.6602 90.9743C85.2515 91.144 84.4191 91.5109 84.2316 93.0703C83.884 95.9186 81.6795 96.9781 79.0634 95.8681C78.3407 95.5608 77.0647 95.6434 76.4747 96.1066C73.0353 98.8035 69.7239 101.666 66.2296 104.592C64.7843 103.294 63.4854 101.881 61.9395 100.835C61.0614 100.239 59.6984 99.8309 58.7014 100.046C55.2985 100.78 51.9323 101.725 48.6164 102.789C46.915 103.335 45.7807 103.014 44.683 101.647C43.0914 99.6704 41.2391 98.1201 40.9189 95.1389C40.6033 92.2493 40.832 89.9377 43.1874 87.9609C42.9588 87.6719 42.7301 87.3876 42.5014 87.0986L42.5151 87.117Z"/>
<path d="M68.6074 161.025C69.0694 158.512 66.6407 157.255 64.9027 155.673C64.5597 155.361 63.151 155.599 62.7851 156.039C61.1249 158.048 59.1079 158.186 56.8256 157.672C56.2402 157.539 55.5953 157.438 55.0144 157.535C53.0615 157.86 52.4212 156.805 51.9501 155.118C51.0308 151.829 50.9393 151.829 47.5273 152.017C45.7116 152.118 43.9004 152.37 42.0847 152.485C40.4061 152.59 39.8756 153.824 39.7201 155.113C39.2215 159.19 35.3705 159.287 32.9053 161.007C32.7269 161.131 31.8808 160.548 31.5423 160.131C29.9598 158.177 28.3956 156.209 26.9275 154.168C26.0265 152.911 25.0614 152.054 23.3875 152.15C22.8158 152.182 21.9056 151.82 21.7181 151.389C21.5397 150.971 21.9147 149.971 22.3492 149.687C24.2976 148.421 24.3159 146.669 24.0324 144.66C23.8037 143.027 23.8494 141.349 23.7899 140.009C24.8739 139.386 25.6514 138.941 26.4244 138.5C25.8161 137.638 25.1666 136.803 24.6178 135.904C24.1467 135.134 23.4423 134.295 23.4423 133.483C23.4515 129.52 23.7305 125.562 23.7534 121.599C23.7579 120.498 23.2228 119.393 22.8935 118.122C21.3842 119.388 20.3826 120.677 19.0699 121.227C16.8745 122.149 16.7465 119.705 15.6945 118.48C15.4201 118.806 15.1823 119.044 14.9948 119.315C14.5191 119.984 14.0617 120.672 13.5998 121.351C13.2476 120.65 12.8223 119.98 12.5661 119.246C12.2917 118.462 12.0996 117.632 12.0127 116.801C11.8572 115.361 11.4822 114.251 9.72132 114.797C9.34628 113.531 9.02612 112.458 8.67852 111.279C7.7958 111.531 7.09145 111.729 6.06695 112.022C6.06695 111.178 5.77881 110.261 6.11269 109.848C8.99868 106.248 11.3084 102.092 15.4476 99.6522C15.6305 99.5422 15.8683 99.5192 16.3669 99.3633C16.5132 101.102 16.4904 102.771 16.8517 104.353C17.0529 105.239 17.7527 106.216 18.5119 106.67C18.8824 106.89 20.0944 106.17 20.6067 105.592C22.8249 103.06 22.6145 101.675 19.8977 99.6201C19.1751 99.0743 18.4662 98.5056 17.4417 97.7121C19.2254 96.593 20.8399 95.5794 22.5962 94.474C23.6207 96.0334 24.5583 97.4644 25.4959 98.8955C25.7338 98.8496 25.9716 98.8083 26.2048 98.7624V93.7814C28.8256 93.6851 31.3457 92.9513 33.6096 95.4739C35.1418 97.1847 37.3189 98.3818 39.3587 99.5422C41.3895 100.698 42.4597 102.28 42.7936 104.56C42.9902 105.895 43.4659 107.188 43.8135 108.477C44.0971 108.463 44.3212 108.513 44.3806 108.44C48.1585 103.551 54.1683 103.854 59.268 102.079C59.7665 101.904 60.7315 102.4 61.1752 102.872C64.9348 106.917 68.6257 111.027 72.152 115.494C70.3317 114.903 68.9321 114.857 67.7887 116.43C66.4441 118.287 63.9514 119.411 65.0765 122.576C66.2428 125.86 66.8465 129.341 67.7476 132.721C68.4611 135.4 71.4111 137.317 73.8306 136.918C74.7407 138.12 75.5914 139.248 76.4558 140.39C74.0912 142.243 72.8655 147.128 74.4663 149.164C74.7453 149.517 75.0837 150.091 75.4085 150.104C77.8965 150.201 77.7731 152.191 78.1572 153.797C78.578 155.572 78.825 157.397 79.3464 159.14C79.9273 161.089 78.9119 161.617 77.3477 162.117C76.3278 162.442 75.2621 163.084 74.5806 163.892C73.5516 165.112 72.806 165.144 71.8364 163.91C71.0635 162.924 69.9566 162.204 68.6074 161.025Z"/>
<path d="M36.9261 168.584C35.4717 168.965 34.0219 169.368 32.5583 169.731C30.0976 170.336 28.0166 169.359 26.393 167.41C25.4737 166.305 24.0467 165.621 22.5511 164.534C23.1685 164.144 23.9506 163.25 24.7968 163.186C27.3031 162.993 29.8324 163.126 32.3525 163.14C32.4897 163.14 32.6223 163.273 32.7641 163.282C34.4518 163.433 40.9098 158.952 41.2437 157.209C41.637 155.15 42.5838 154.104 44.7563 154.471C45.049 154.522 45.36 154.444 45.6619 154.412C49.3208 153.976 49.3757 153.958 50.4642 157.388C50.9216 158.828 51.6808 159.562 53.2176 159.581C54.4296 159.594 55.6371 159.778 56.8445 159.902C59.4515 160.159 62.0677 160.461 63.8057 157.654C65.2875 158.778 66.5544 159.636 66.4812 161.681C66.3761 164.562 66.6322 164.69 69.5731 164.268C69.7103 166.956 71.9971 167.167 73.7214 167.07C74.906 167.006 76.0128 165.47 77.0967 164.64C78.0709 165.162 79.3333 165.837 80.5956 166.516C80.7786 165.575 80.9615 164.64 81.2085 163.392C82.6126 162.534 83.9618 162.488 85.4666 164.291C86.1481 165.112 87.8357 165.217 89.0981 165.378C90.0403 165.497 91.0419 165.195 91.9612 165.085C94.2938 169.258 92.8668 174.088 88.8328 175.987C88.6407 176.078 88.3526 176.212 88.2108 176.134C85.6175 174.698 84.6433 176.922 83.1706 178.253C78.8348 182.169 77.5724 187.738 75.3084 192.755C75.0203 193.393 75.4777 194.448 75.7658 195.246C76.0677 196.08 76.7354 196.796 76.9733 197.64C78.3774 202.548 78.3225 202.759 75.5051 208.34C75.3222 208.281 75.0798 208.272 74.9517 208.143C72.0566 205.359 68.3336 204.772 64.6884 206.808C60.9974 208.872 57.5168 208.125 54.6263 205.676C53.0621 204.35 52.1336 204.685 50.9079 205.483C48.4884 207.056 47.2764 206.639 47.5645 203.446C47.6926 202.034 47.8298 200.584 48.246 199.241C48.6165 198.053 49.051 197.016 47.592 196.383C46.2016 195.782 44.7471 195.016 43.6586 196.943C43.0412 198.039 42.3368 199.08 41.4266 200.534C40.9464 199.433 40.5668 198.791 40.3884 198.099C40.0134 196.631 39.2038 195.865 37.6305 195.975C37.2051 196.003 36.5054 195.938 36.3773 195.686C35.2842 193.576 33.7978 194.581 32.2747 194.966C30.2806 195.47 29.5122 196.53 29.3887 198.654C29.1783 202.327 23.7402 205.726 20.2642 204.575C19.8846 204.451 19.2855 203.983 19.3221 203.768C19.8892 200.52 17.3142 198.69 15.8003 195.947C19.0568 194.108 21.028 190.265 25.6063 190.65C26.3701 190.714 27.2208 189.655 28.0349 189.113C27.2162 188.646 26.4387 187.903 25.5697 187.765C23.4155 187.426 21.2201 187.366 19.0248 187.192C18.4622 184.848 18.6543 183.307 21.1607 182.188C23.2097 181.27 24.9706 179.528 26.5988 177.89C29 175.473 30.1159 175.17 33.1163 176.831C33.4959 177.042 33.9121 177.188 34.342 177.376C35.2751 175.863 34.5067 175.079 33.4456 174.281C32.7595 173.762 32.2244 173.033 31.6207 172.4C32.4485 171.992 33.2535 171.524 34.1088 171.185C34.8085 170.909 35.6409 170.914 36.2767 170.552C36.7844 170.263 37.0817 169.607 37.4704 169.111C37.2875 168.942 37.1091 168.772 36.9261 168.598V168.584Z"/>
<path d="M101.977 151.581C102.265 152.778 102.229 154.039 100.18 154.631C99.4478 154.842 98.7938 155.906 98.437 156.727C97.6229 158.589 97.1335 160.594 96.2554 162.419C96.0038 162.942 94.9016 163.235 94.1606 163.3C93.2093 163.382 92.2122 162.947 91.2701 163.052C88.8048 163.323 86.5134 163.575 84.9447 160.91C84.6062 160.341 83.1426 160.442 81.7522 160.135C81.1256 157.388 80.3527 154.159 79.6666 150.907C79.3602 149.453 78.9623 148.302 77.1328 148.26C76.6892 148.251 75.8293 147.361 75.9025 147.045C76.305 145.293 75.9117 143.215 78.0155 142.068C78.697 141.697 79.3373 140.482 79.2733 139.716C79.2138 139.023 78.1345 138.44 77.5627 137.757C77.0779 137.179 76.5474 136.583 76.273 135.9C75.7836 134.698 75.253 133.936 73.7574 134.423C72.0515 134.982 70.3226 134.06 69.8149 132.23C68.8408 128.717 67.7888 125.194 67.2674 121.599C67.1073 120.489 68.4428 119.035 69.3576 117.966C69.6732 117.599 70.7937 117.939 71.5484 117.948C72.5043 117.961 73.4602 117.975 74.4161 117.989C74.32 116.934 74.5761 115.645 74.0593 114.87C72.1338 111.962 69.9522 109.219 67.4595 105.862C68.5206 104.995 69.5405 104.11 70.6108 103.289C72.7604 101.642 74.9054 99.9959 77.1191 98.4365C77.5582 98.1246 78.354 97.9824 78.8571 98.1521C82.4063 99.3446 85.9417 97.2027 86.4082 93.8958C88.2652 92.8546 89.8842 91.9419 91.0688 91.2769C94.7689 91.8272 98.2724 92.4923 101.812 92.8088C103.528 92.9601 104.232 90.5614 103.363 88.0342C105.32 86.5756 105.718 86.6674 106.889 88.8414C108.883 92.529 109.821 92.7629 113.494 90.4926C114.267 90.0155 115.053 89.5615 115.511 89.2909C117.761 90.0201 119.727 90.6531 122.042 91.4007C121.186 91.8227 120.423 92.0061 119.956 92.4831C119.403 93.0519 118.625 94.0655 118.813 94.5379C119.06 95.1617 120.345 95.9781 120.848 95.79C123.176 94.9323 124.662 95.5515 125.902 97.6476C126.181 98.12 127.411 98.2576 128.161 98.1705C131.226 97.8311 133.961 98.7117 137.039 100.285C133.897 100.67 131.953 102.202 130.53 104.518C130.297 104.899 129.707 105.151 129.236 105.27C125.815 106.128 124.534 108.573 125.756 111.806C126.016 112.494 125.911 113.324 125.948 113.82C124.365 114.32 123.144 114.705 121.58 115.2C120.688 114.251 119.622 112.976 118.401 111.871C117.688 111.224 116.727 110.481 115.886 110.49C115.396 110.495 114.925 111.907 114.299 112.93C114.536 112.87 114.358 112.98 114.266 112.93C112.144 111.793 110.118 112.189 108.188 114.118C108.033 114.274 107.818 114.366 107.63 114.48C104.735 116.232 104.589 116.719 105.97 119.425C104.122 119.315 102.146 119.026 100.189 119.126C97.4399 119.273 96.2828 121.649 97.5863 123.961C97.8516 124.433 97.9568 125.369 97.6824 125.667C97.3805 125.993 96.5435 125.901 95.9489 125.864C94.9427 125.804 93.749 125.231 92.9806 125.603C90.7441 126.676 90.648 128.41 92.665 129.997C93.8633 130.937 94.4167 131.951 94.3436 133.482C94.2887 134.611 94.5402 135.753 94.6454 136.89C94.9107 139.706 95.0022 142.403 93.3831 145.031C91.7869 147.623 92.5415 149.146 95.5373 150.058C97.5086 150.659 99.5576 151.008 101.986 151.563L101.977 151.581Z"/>
</mask>
<path d="M0.192279 299.785C0.594581 299.348 1.09129 298.969 1.38668 298.469C3.70313 294.581 7.20625 292.895 11.5908 292.273C16.0405 291.639 20.1299 292.966 24.3147 293.859C25.6111 294.133 26.2585 297.189 25.3794 298.507C25.1686 298.819 24.8612 299.067 24.6546 299.382C22.865 302.154 20.716 302.37 17.4591 301.646C13.4648 300.754 9.21095 300.339 4.97196 301.742C3.6283 302.185 1.67652 300.769 0 300.201C0.0620764 300.063 0.126034 299.921 0.18811 299.783L0.192279 299.785Z" fill="white"/>
<path d="M98.8671 122.076C101.021 121.021 102.906 121.067 104.868 121.851C105.755 122.204 106.697 122.402 107.617 122.672C107.827 121.516 108.165 120.365 108.197 119.205C108.211 118.609 107.671 118.003 107.347 117.333C109.711 118.031 110.228 117.742 110.425 115.439C110.567 113.751 111.248 113.27 112.52 114.439C114.399 116.168 115.744 115.609 116.997 113.371C117.921 114.384 118.712 115.27 119.517 116.136C119.984 116.636 120.514 117.558 120.953 117.522C122.902 117.361 125.157 117.43 126.657 116.435C127.933 115.591 128.774 113.554 127.924 111.531C126.84 108.963 127.443 108.059 130.028 107.289C131.002 107 132.049 106.151 132.561 105.266C133.929 102.886 136.33 102.601 138.548 102.01C139.074 101.868 139.875 102.528 140.474 102.936C142.541 104.354 144.672 103.615 145.711 101.354C145.949 100.836 147.353 100.487 148.066 100.666C148.743 100.836 149.118 102.042 149.818 102.354C150.536 102.675 151.903 102.831 152.269 102.418C153.788 100.703 155.05 101.125 156.605 102.285C157.218 102.744 158.471 103.124 158.974 102.803C160.927 101.574 162.482 102.312 164.216 103.23C167.637 105.051 167.728 105.046 170.116 102.024C171.589 100.161 173.061 98.5056 175.815 99.0331C178.641 103.372 180.146 108.174 180.086 113.522C180.045 117.251 180.585 120.998 180.411 124.713C180.269 127.722 179.359 130.685 178.975 133.694C178.788 135.157 179.103 136.675 179.057 138.161C179.016 139.565 179.254 141.252 178.582 142.312C175.078 147.839 174.118 153.806 174.616 160.204C174.804 162.584 174.996 165.043 173.583 167.318C173.235 167.882 173.601 169.299 174.122 169.905C175.092 171.024 176.418 171.836 178.074 173.157C179.785 171.079 181.422 169.088 183.123 167.024C184.665 169.373 180.832 183.284 176.089 193.888C174.763 193.223 173.423 192.59 172.124 191.883C170.784 191.154 169.832 191.273 168.808 192.59C168.236 193.324 167.015 193.548 165.922 194.085C165.684 193.163 165.56 192.879 165.538 192.581C165.208 188.058 165.213 188.118 160.589 188.141C157.607 188.159 154.826 188.269 153.225 191.466C152.905 192.108 151.766 192.489 150.929 192.691C147.54 193.503 144.146 194.328 140.712 194.883C139.147 195.135 137.483 194.805 135.868 194.7C134.761 194.626 133.485 194.08 132.593 194.461C130.663 195.291 129.95 194.383 129.09 192.934C126.524 188.59 127.073 188.517 122.321 190.741C119.375 192.122 116.677 192.429 113.695 191.007C111.962 190.177 110.036 189.742 108.088 189.095C110.745 186.081 110.489 186.173 109.158 182.554C108.115 179.72 106.048 178.105 103.811 176.583C103.107 176.101 101.918 176.257 100.948 176.243C97.3486 176.202 94.7325 173.129 95.2584 169.62C95.4094 168.597 95.2813 167.533 95.2813 166.327C98.0941 164.942 99.2375 162.103 99.9419 159.062C100.308 157.466 100.774 156.319 102.553 155.829C104.067 155.407 104.712 152.604 104.04 150.182C103.509 148.265 101.986 148.976 100.674 148.857C98.9174 148.701 97.1657 148.284 95.4734 147.77C95.2036 147.687 94.9383 146.302 95.2127 145.912C98.5835 141.142 96.2601 136.015 96.1046 131.066C96.0726 129.997 94.5724 128.97 93.5662 127.699C95.4643 127.286 97.2617 129.703 99.1461 127.392C100.783 125.378 100.509 123.938 98.8488 122.067L98.8671 122.076Z" fill="white"/>
<path d="M150.871 100.574C149.563 98.4643 147.774 97.2214 145.259 98.4827C144.541 98.845 143.672 99.5284 143.489 100.226C143.054 101.909 142.295 101.9 141.321 100.877C139.08 98.5239 136.194 97.4278 133.225 96.4646C132.517 96.2353 131.693 95.9096 131.035 96.0747C128.112 96.8177 126.315 95.3821 124.856 93.1439C124.673 92.8641 124.439 92.4651 124.508 92.1945C125.185 89.6581 123.488 89.2958 121.672 88.8279C120.104 88.4197 118.617 87.6859 117.062 87.1951C116.463 87.0071 115.759 86.9979 115.127 87.0896C114.716 87.1493 114.35 87.5437 113.961 87.7822C111.5 89.2866 109.448 88.8555 107.805 86.4888C106.447 84.5349 102.664 84.4845 101.297 86.475C101.008 86.8924 101.04 87.6171 101.118 88.1721C101.219 88.883 101.512 89.571 101.827 90.6121C99.0829 90.3415 96.6818 90.2223 94.3263 89.8186C92.9954 89.5893 92.6661 88.6536 92.7301 87.108C92.9313 82.3196 95.0398 78.2101 96.668 73.8941C97.0797 72.8025 96.5583 71.3577 96.4485 69.8625C96.2793 69.9955 96.3845 69.8396 96.4988 69.835C98.4655 69.7662 99.9657 68.9819 100.171 66.8767C100.304 65.5374 98.0356 63.9413 96.0323 64.0972C93.4985 64.2944 91.5364 63.5285 90.2192 61.3728C88.8562 59.1345 86.7706 59.6161 85.0463 59.8317C84.5707 57.5889 84.1042 55.5157 83.7154 53.4289C83.6559 53.1216 83.9166 52.7363 84.0767 52.4061C85.458 49.5257 85.3528 45.8977 89.1992 44.2878C90.7634 43.632 89.7069 38.1602 88.0787 36.9356C86.8621 36.0229 85.6455 35.1055 84.3831 34.257C83.0842 33.3856 82.1512 32.4729 82.0094 30.6841C81.8539 28.6981 78.945 27.0561 76.9738 27.5469C76.1048 27.7625 75.2587 28.0606 74.0466 28.4275C74.1244 26.3085 75.309 23.8639 72.6242 22.997C71.865 22.7539 70.781 23.5337 69.2168 24.0565C68.6634 23.0062 67.9042 21.6211 67.1953 20.2084C66.962 19.7451 66.9574 19.1351 66.6556 18.7499C64.8124 16.4061 64.8947 15.7319 67.3691 14.1266C67.6847 13.9202 68.0231 13.7505 68.6085 13.4157C70.0127 16.1034 72.3315 15.5118 74.8104 15.3696C78.0715 15.1815 81.3691 15.8374 84.653 15.8466C87.5801 15.8512 90.5027 15.4246 93.4299 15.2733C94.4635 15.2182 95.5063 15.4613 96.5445 15.498C99.6089 15.6035 102.673 15.6448 105.733 15.7778C106.616 15.8191 107.499 16.0484 108.358 16.2731C109.808 16.6492 111.231 17.3922 112.69 17.4565C118.658 17.7225 123.886 13.8285 125.629 8.04024C126.09 6.50833 126.53 4.97642 126.987 3.44451C127.475 1.80558 128.694 0.657407 130.646 0C132.173 3.93068 133.724 7.87054 135.238 11.8242C137.772 18.4334 139.981 25.1894 142.89 31.6243C145.387 37.1511 148.575 42.3707 151.63 47.6269C156.409 55.8597 161.665 63.8358 166.087 72.2521C169.54 78.8292 172.079 85.8971 174.905 92.7907C175.34 93.8548 175.152 95.1758 175.285 96.8269C171.429 96.2949 169.893 99.267 167.775 101.487C167.405 101.872 166.261 101.886 165.676 101.624C163.439 100.629 161.399 98.8221 158.733 100.629C158.463 100.813 157.727 100.492 157.306 100.239C154.37 98.4643 153.693 98.4689 150.871 100.56V100.574Z" fill="white"/>
<path d="M93.7309 174.262C94.6045 175.078 95.4644 175.73 96.1321 176.546C97.303 177.972 98.7208 178.404 100.532 178.367C104.287 178.293 107.264 182.137 107.983 185.403C108.06 185.765 107.484 186.384 107.082 186.724C105.119 188.375 105.357 190.315 107.772 191.195C110.763 192.287 113.782 193.324 116.837 194.209C117.697 194.457 118.795 194.278 119.677 193.98C121.681 193.305 123.62 192.429 125.815 191.544C126.584 192.778 127.444 193.929 128.061 195.204C128.957 197.048 130.147 197.699 132.077 196.768C132.607 196.511 133.376 196.181 133.801 196.383C138.379 198.552 142.71 196.438 147.11 195.699C148.899 195.397 150.673 194.97 152.43 194.498C153.125 194.31 154.067 194.012 154.355 193.47C156.294 189.824 159.587 190.196 162.908 190.319C163.882 192.071 162.126 195.007 165.455 195.736C167.779 196.245 169.677 196.319 170.628 193.562C172.11 194.282 173.423 194.741 174.502 195.521C175.06 195.924 175.572 196.942 175.49 197.603C175.129 200.46 174.539 203.29 174.031 206.134C171.383 205.538 168.538 207.615 168.698 210.193C168.835 212.413 168.282 214.055 166.274 215.078C163.973 216.247 163.626 218.596 162.748 220.678C162.213 221.948 161.453 223.278 160.433 224.154C156.861 227.214 153.134 230.085 149.598 232.919C149.132 232.722 148.944 232.704 148.876 232.608C148.043 231.388 147.458 229.512 146.347 229.117C145.327 228.75 143.753 230.012 142.395 230.475C141.846 230.663 141.178 230.842 140.648 230.7C138.26 230.053 135.9 229.287 133.348 228.507C133.302 227.81 133.248 226.92 133.22 226.498C131.331 225.219 129.721 224.132 127.75 222.792C128.299 224.962 128.774 226.824 129.282 228.833C128.546 229.31 127.791 229.796 126.881 230.392C126.51 229.383 126.186 228.503 125.779 227.393C124.26 227.893 122.856 228.351 121.15 228.906C122.481 231.718 121.393 233.621 119.234 235.263C118.077 236.144 118.145 238.776 119.023 240.015C119.293 240.396 119.449 240.983 119.403 241.455C119.174 243.854 118.863 246.239 118.58 248.633C118.827 248.72 119.074 248.807 119.321 248.894C118.324 249.39 117.331 249.881 116.586 250.252C115.406 248.72 114.34 247.34 113.009 245.615C113.512 245.037 114.454 244.083 115.227 243.014C115.547 242.57 115.52 241.872 115.653 241.29C115.113 241.331 114.463 241.194 114.061 241.45C112.684 242.331 112.007 241.666 111.294 240.299C112.03 239.666 112.767 239.033 113.508 238.4L113.48 237.717C112.789 237.717 111.77 237.423 111.463 237.767C110.146 239.253 108.545 239.171 106.853 239.015C104.886 238.836 102.915 238.721 100.957 238.506C99.4435 238.341 98.2269 235.488 98.7208 233.25C98.8855 232.511 99.4023 231.814 99.4206 231.094C99.4343 230.31 99.0547 229.521 98.8443 228.732C98.6248 228.755 98.4007 228.773 98.1811 228.796C97.8061 229.346 97.3624 229.86 97.0651 230.452C96.0086 232.543 95.0939 234.433 92.0295 233.085C90.3922 232.364 84.8031 236.089 83.2984 238.588C82.4705 237.877 81.0847 237.249 81.0207 236.506C80.9384 235.506 81.8531 234.41 82.3882 233.383C82.5163 233.135 82.841 232.984 83.0743 232.791C85.8276 230.489 85.6264 226.196 82.5803 224.081C81.2128 223.132 79.9642 222.292 80.2752 220.316C80.3438 219.884 80.0236 219.174 79.6577 218.921C75.8433 216.33 77.3206 212.624 77.6225 209.207C77.7048 208.257 78.1484 207.271 78.6515 206.441C81.2448 202.144 79.9779 198.213 77.691 194.324C77.4624 193.934 77.3343 193.278 77.499 192.888C79.6349 187.87 81.1396 182.481 85.5532 178.789C86.0243 178.394 86.8613 177.876 87.2455 178.05C88.86 178.789 89.825 177.945 90.8404 176.945C91.7551 176.046 92.7247 175.202 93.7401 174.271L93.7309 174.262Z" fill="#00B2FF"/>
<path d="M82.1636 250.289C80.2609 250.115 78.2759 249.518 76.4693 249.867C73.9721 250.348 73.9858 252.5 75.0698 254.967C73.7663 254.596 73.0802 254.33 72.3713 254.206C70.7111 253.917 70.1119 253.146 70.5281 251.367C70.9398 249.601 70.8071 247.707 71.205 245.936C71.7813 243.372 70.4778 241.923 68.5706 240.735C67.3266 239.96 63.4069 242.015 63.1965 243.652C62.945 245.611 62.7071 247.633 62.9404 249.569C63.041 250.399 64.3216 251.096 65.0854 251.835C65.8538 252.582 67.1299 253.188 67.3403 254.064C68.1132 257.238 66.6085 258.256 62.4419 257.361C62.794 262.81 58.1197 264.186 54.7489 267.328C54.4425 265.25 54.2596 263.686 53.9806 262.141C53.4592 259.224 52.5261 258.586 49.7316 259.058C48.483 259.269 47.2253 259.402 45.5924 259.623C46.1504 257.692 46.6215 256.073 47.0743 254.499C51.401 254.788 51.6251 254.573 52.7274 250.555C52.9469 249.748 53.5323 248.734 54.223 248.431C55.5173 247.858 56.2583 248.853 56.7614 250.005C56.9946 250.537 57.3788 251.004 58.0603 252.078C58.6686 250.183 59.2312 248.817 59.533 247.395C59.7983 246.166 57.8682 244.845 56.519 245.427C51.5657 247.56 46.6124 249.693 41.7688 252.059C39.8433 253 39.4729 255.119 39.3311 257.169C39.0292 261.599 38.1053 262.585 33.7146 263.342C32.3791 263.572 31.0436 263.833 29.237 264.168C29.237 261.755 29.237 259.517 29.237 257.279C29.237 256.361 29.2827 255.44 29.1684 254.536C29.1226 254.197 28.6744 253.908 28.4137 253.596C28.1027 253.866 27.5722 254.1 27.5264 254.412C27.3435 255.614 27.22 256.838 27.2429 258.049C27.2977 261.136 25.6101 263.553 22.3765 263.819C20.6705 263.957 19.3578 264.503 18.9188 266.663C18.1595 270.364 17.972 270.328 14.1347 270.213C13.6865 270.199 13.2383 270.13 12.4562 270.052C12.4562 268.007 12.2961 265.966 12.4927 263.957C12.8266 260.554 10.8417 258.022 9.47412 255.274C9.18141 254.687 8.12946 254.389 7.36108 254.16C4.81355 253.399 3.29966 251.564 3.25392 248.931C3.22191 247.023 3.25392 245.115 3.26764 243.207C3.26764 242.987 3.3454 242.767 3.414 242.409C5.3075 242.189 6.81682 242.253 6.84883 244.854C6.86255 246.124 7.21015 247.427 7.62178 248.642C7.8962 249.45 8.55481 250.128 9.12652 250.991C11.546 248.537 8.19807 246.831 9.08078 244.514C10.7639 245.569 12.2869 246.665 13.9426 247.5C14.6652 247.863 15.6715 247.808 16.5084 247.679C16.7188 247.647 17.0024 246.528 16.8423 246.051C16.6731 245.546 16.0694 244.982 15.5525 244.845C13.5721 244.336 11.546 244.001 9.54273 243.574C7.3062 243.097 6.58356 241.428 7.97396 239.625C8.98016 238.318 9.25001 237.112 8.92985 235.433C8.70117 234.231 9.44211 232.851 9.69823 231.544C9.8766 230.631 9.96808 229.7 10.1007 228.778C9.28203 228.714 8.46334 228.645 7.45713 228.567C6.61557 227.379 6.49208 226.081 7.75899 224.691C8.7652 223.586 9.82172 222.403 8.94815 220.623C8.80636 220.339 9.36893 219.706 9.72567 218.999C10.7685 220.284 11.5689 221.265 12.3738 222.256C14.8985 219.756 14.9168 219.545 12.8769 217.009C10.8782 214.527 8.8704 212.055 6.83511 209.537C8.42675 207.652 10.0961 206.042 11.3036 204.143C12.511 202.245 13.2611 200.048 14.2856 197.823C15.9504 199.823 17.8622 201.447 16.975 204.327C16.8423 204.753 17.2402 205.533 17.6244 205.9C18.8867 207.097 24.645 207.134 26.0125 206.024C27.1377 205.116 28.1759 204.084 29.3605 203.267C30.8881 202.213 31.4735 200.818 31.597 199.02C31.6427 198.355 32.1687 197.383 32.7084 197.181C33.3121 196.956 34.1857 197.433 34.9403 197.621C35.9328 197.869 36.9162 198.126 38.1968 198.456C38.2608 198.603 38.5215 199.066 38.677 199.562C39.1253 200.979 39.6284 202.657 41.3801 202.391C42.4 202.235 43.3148 201.025 44.1472 200.167C44.7783 199.516 45.2037 198.667 45.8806 197.667C45.7342 200.286 45.533 202.428 45.5193 204.575C45.4964 208.093 47.7787 209.409 50.9482 207.79C51.2181 207.652 51.5016 207.538 51.6617 207.464C56.304 209.391 60.6124 211.239 65.8081 208.716C70.2171 206.574 75.0927 207.895 75.1841 214.083C75.207 215.523 75.4677 216.963 75.6232 218.403C75.6415 218.554 75.6232 218.743 75.701 218.848C77.288 220.949 78.6052 223.375 80.5536 225.058C83.435 227.549 83.7323 229.526 80.8509 231.961C80.2792 232.443 79.4102 233.03 79.3782 233.608C79.2181 236.286 77.2057 236.777 75.2939 237.474C74.3609 237.813 73.437 238.047 73.7434 239.497C74.0407 240.877 74.8137 241.162 76.0257 241.102C77.2377 241.042 78.4726 241.203 79.6709 241.065C81.7702 240.831 82.159 241.987 82.0218 243.689C82.008 243.84 82.0126 244.001 81.976 244.143C81.4318 246.147 80.3935 248.179 82.8359 250.014L82.1864 250.303L82.1636 250.289Z" fill="white"/>
<path d="M42.5151 87.117C41.5546 87.5435 40.457 87.7912 39.6611 88.4287C37.9597 89.7863 36.702 89.6304 35.7461 87.6949C35.5768 87.3555 35.3847 87.0161 35.2658 86.6583C34.6301 84.7182 33.6559 83.2276 31.3096 83.6449C30.898 79.9757 31.2136 79.54 34.5661 79.2327C36.6654 79.04 38.7693 78.9208 40.7817 78.774C40.4981 76.999 40.4341 75.3203 39.9127 73.7976C39.5788 72.8252 38.7144 71.8804 37.8408 71.2841C35.9702 69.9999 34.9548 68.4038 34.5615 66.1197C33.848 62.0009 32.9561 57.9051 31.8813 53.869C31.3508 51.8738 31.6252 50.5162 33.3266 49.3604C34.3191 48.6862 35.1789 47.8101 36.6151 46.5855C37.8179 49.1127 38.8928 51.3647 40.027 53.7497C42.7026 50.585 40.9646 47.2918 40.4341 43.9482C40.896 43.7418 41.3534 43.5171 41.8245 43.3336C43.535 42.6686 43.8598 41.3522 42.5471 40.1001C41.4632 39.0636 40.2877 38.1187 38.9705 36.9767C40.8732 36.0089 42.538 35.1604 44.0198 34.4036C44.866 36.3942 45.6527 38.238 46.5354 40.3111C49.4854 37.3252 49.4945 37.0776 47.1574 34.399C47.9669 32.4314 49.179 31.6517 51.0633 33.1194C52.2311 31.6272 51.7753 29.8629 49.6958 27.8265C48.5707 27.9549 47.5096 28.3723 46.668 28.1017C45.0992 27.5971 44.8614 24.4966 46.3296 23.1252C47.3495 22.1712 48.6896 21.5658 49.8696 20.7815C50.8026 20.1623 51.7173 19.5156 52.7876 18.7772C53.2358 19.6074 53.6154 20.4971 54.1551 21.2769C55.0195 22.5336 57.2927 22.4281 57.3979 21.0842C57.6814 17.5709 60.3616 17.603 62.0996 17.1031C63.0006 18.2222 63.7004 19.0891 64.391 19.9559C64.6563 20.2908 64.9307 20.6256 65.1594 20.9833C66.0787 22.4143 66.8882 23.9279 67.9127 25.2763C69.0653 26.7899 70.442 27.7256 72.212 24.8039C72.0565 26.1845 71.9833 26.744 71.9284 27.3082C71.7089 29.6382 73.145 30.8215 75.473 30.2252C79.164 29.285 79.1228 29.2942 80.2388 32.9543C80.44 33.6239 81.0163 34.2568 81.5743 34.7155C82.8046 35.7337 84.131 36.6281 85.4208 37.5729C88.5354 39.8433 88.4897 42.7236 85.1875 44.5812C83.6691 45.4343 83.0836 46.503 83.0196 48.2229C82.9739 49.4384 82.297 50.6171 81.9493 51.828C81.7481 52.5251 81.4554 53.2727 81.5286 53.9607C81.7252 55.7907 82.297 57.5933 82.3473 59.4141C82.4021 61.2671 83.0379 62.2853 84.8902 61.9413C87.1496 61.5239 88.7047 62.3679 89.903 64.1704C91.0052 65.8261 92.6014 66.1885 94.4675 66.1426C95.5606 66.1151 96.6583 66.4086 97.756 66.5554C97.7468 66.8306 97.7377 67.1012 97.724 67.3764C96.8824 67.5002 96.0363 67.6195 95.1993 67.7525C93.5345 68.0185 92.7981 68.9129 93.8135 70.4356C94.934 72.1143 94.6962 73.5912 93.9187 75.3295C92.4414 78.641 90.8269 81.902 90.8497 85.7318C90.8589 87.039 89.999 88.4838 89.1895 89.6212C88.6818 90.3321 87.5658 90.8642 86.6602 90.9743C85.2515 91.144 84.4191 91.5109 84.2316 93.0703C83.884 95.9186 81.6795 96.9781 79.0634 95.8681C78.3407 95.5608 77.0647 95.6434 76.4747 96.1066C73.0353 98.8035 69.7239 101.666 66.2296 104.592C64.7843 103.294 63.4854 101.881 61.9395 100.835C61.0614 100.239 59.6984 99.8309 58.7014 100.046C55.2985 100.78 51.9323 101.725 48.6164 102.789C46.915 103.335 45.7807 103.014 44.683 101.647C43.0914 99.6704 41.2391 98.1201 40.9189 95.1389C40.6033 92.2493 40.832 89.9377 43.1874 87.9609C42.9588 87.6719 42.7301 87.3876 42.5014 87.0986L42.5151 87.117Z" fill="white"/>
<path d="M68.6074 161.025C69.0694 158.512 66.6407 157.255 64.9027 155.673C64.5597 155.361 63.151 155.599 62.7851 156.039C61.1249 158.048 59.1079 158.186 56.8256 157.672C56.2402 157.539 55.5953 157.438 55.0144 157.535C53.0615 157.86 52.4212 156.805 51.9501 155.118C51.0308 151.829 50.9393 151.829 47.5273 152.017C45.7116 152.118 43.9004 152.37 42.0847 152.485C40.4061 152.59 39.8756 153.824 39.7201 155.113C39.2215 159.19 35.3705 159.287 32.9053 161.007C32.7269 161.131 31.8808 160.548 31.5423 160.131C29.9598 158.177 28.3956 156.209 26.9275 154.168C26.0265 152.911 25.0614 152.054 23.3875 152.15C22.8158 152.182 21.9056 151.82 21.7181 151.389C21.5397 150.971 21.9147 149.971 22.3492 149.687C24.2976 148.421 24.3159 146.669 24.0324 144.66C23.8037 143.027 23.8494 141.349 23.7899 140.009C24.8739 139.386 25.6514 138.941 26.4244 138.5C25.8161 137.638 25.1666 136.803 24.6178 135.904C24.1467 135.134 23.4423 134.295 23.4423 133.483C23.4515 129.52 23.7305 125.562 23.7534 121.599C23.7579 120.498 23.2228 119.393 22.8935 118.122C21.3842 119.388 20.3826 120.677 19.0699 121.227C16.8745 122.149 16.7465 119.705 15.6945 118.48C15.4201 118.806 15.1823 119.044 14.9948 119.315C14.5191 119.984 14.0617 120.672 13.5998 121.351C13.2476 120.65 12.8223 119.98 12.5661 119.246C12.2917 118.462 12.0996 117.632 12.0127 116.801C11.8572 115.361 11.4822 114.251 9.72132 114.797C9.34628 113.531 9.02612 112.458 8.67852 111.279C7.7958 111.531 7.09145 111.729 6.06695 112.022C6.06695 111.178 5.77881 110.261 6.11269 109.848C8.99868 106.248 11.3084 102.092 15.4476 99.6522C15.6305 99.5422 15.8683 99.5192 16.3669 99.3633C16.5132 101.102 16.4904 102.771 16.8517 104.353C17.0529 105.239 17.7527 106.216 18.5119 106.67C18.8824 106.89 20.0944 106.17 20.6067 105.592C22.8249 103.06 22.6145 101.675 19.8977 99.6201C19.1751 99.0743 18.4662 98.5056 17.4417 97.7121C19.2254 96.593 20.8399 95.5794 22.5962 94.474C23.6207 96.0334 24.5583 97.4644 25.4959 98.8955C25.7338 98.8496 25.9716 98.8083 26.2048 98.7624V93.7814C28.8256 93.6851 31.3457 92.9513 33.6096 95.4739C35.1418 97.1847 37.3189 98.3818 39.3587 99.5422C41.3895 100.698 42.4597 102.28 42.7936 104.56C42.9902 105.895 43.4659 107.188 43.8135 108.477C44.0971 108.463 44.3212 108.513 44.3806 108.44C48.1585 103.551 54.1683 103.854 59.268 102.079C59.7665 101.904 60.7315 102.4 61.1752 102.872C64.9348 106.917 68.6257 111.027 72.152 115.494C70.3317 114.903 68.9321 114.857 67.7887 116.43C66.4441 118.287 63.9514 119.411 65.0765 122.576C66.2428 125.86 66.8465 129.341 67.7476 132.721C68.4611 135.4 71.4111 137.317 73.8306 136.918C74.7407 138.12 75.5914 139.248 76.4558 140.39C74.0912 142.243 72.8655 147.128 74.4663 149.164C74.7453 149.517 75.0837 150.091 75.4085 150.104C77.8965 150.201 77.7731 152.191 78.1572 153.797C78.578 155.572 78.825 157.397 79.3464 159.14C79.9273 161.089 78.9119 161.617 77.3477 162.117C76.3278 162.442 75.2621 163.084 74.5806 163.892C73.5516 165.112 72.806 165.144 71.8364 163.91C71.0635 162.924 69.9566 162.204 68.6074 161.025Z" fill="white"/>
<path d="M36.9261 168.584C35.4717 168.965 34.0219 169.368 32.5583 169.731C30.0976 170.336 28.0166 169.359 26.393 167.41C25.4737 166.305 24.0467 165.621 22.5511 164.534C23.1685 164.144 23.9506 163.25 24.7968 163.186C27.3031 162.993 29.8324 163.126 32.3525 163.14C32.4897 163.14 32.6223 163.273 32.7641 163.282C34.4518 163.433 40.9098 158.952 41.2437 157.209C41.637 155.15 42.5838 154.104 44.7563 154.471C45.049 154.522 45.36 154.444 45.6619 154.412C49.3208 153.976 49.3757 153.958 50.4642 157.388C50.9216 158.828 51.6808 159.562 53.2176 159.581C54.4296 159.594 55.6371 159.778 56.8445 159.902C59.4515 160.159 62.0677 160.461 63.8057 157.654C65.2875 158.778 66.5544 159.636 66.4812 161.681C66.3761 164.562 66.6322 164.69 69.5731 164.268C69.7103 166.956 71.9971 167.167 73.7214 167.07C74.906 167.006 76.0128 165.47 77.0967 164.64C78.0709 165.162 79.3333 165.837 80.5956 166.516C80.7786 165.575 80.9615 164.64 81.2085 163.392C82.6126 162.534 83.9618 162.488 85.4666 164.291C86.1481 165.112 87.8357 165.217 89.0981 165.378C90.0403 165.497 91.0419 165.195 91.9612 165.085C94.2938 169.258 92.8668 174.088 88.8328 175.987C88.6407 176.078 88.3526 176.212 88.2108 176.134C85.6175 174.698 84.6433 176.922 83.1706 178.253C78.8348 182.169 77.5724 187.738 75.3084 192.755C75.0203 193.393 75.4777 194.448 75.7658 195.246C76.0677 196.08 76.7354 196.796 76.9733 197.64C78.3774 202.548 78.3225 202.759 75.5051 208.34C75.3222 208.281 75.0798 208.272 74.9517 208.143C72.0566 205.359 68.3336 204.772 64.6884 206.808C60.9974 208.872 57.5168 208.125 54.6263 205.676C53.0621 204.35 52.1336 204.685 50.9079 205.483C48.4884 207.056 47.2764 206.639 47.5645 203.446C47.6926 202.034 47.8298 200.584 48.246 199.241C48.6165 198.053 49.051 197.016 47.592 196.383C46.2016 195.782 44.7471 195.016 43.6586 196.943C43.0412 198.039 42.3368 199.08 41.4266 200.534C40.9464 199.433 40.5668 198.791 40.3884 198.099C40.0134 196.631 39.2038 195.865 37.6305 195.975C37.2051 196.003 36.5054 195.938 36.3773 195.686C35.2842 193.576 33.7978 194.581 32.2747 194.966C30.2806 195.47 29.5122 196.53 29.3887 198.654C29.1783 202.327 23.7402 205.726 20.2642 204.575C19.8846 204.451 19.2855 203.983 19.3221 203.768C19.8892 200.52 17.3142 198.69 15.8003 195.947C19.0568 194.108 21.028 190.265 25.6063 190.65C26.3701 190.714 27.2208 189.655 28.0349 189.113C27.2162 188.646 26.4387 187.903 25.5697 187.765C23.4155 187.426 21.2201 187.366 19.0248 187.192C18.4622 184.848 18.6543 183.307 21.1607 182.188C23.2097 181.27 24.9706 179.528 26.5988 177.89C29 175.473 30.1159 175.17 33.1163 176.831C33.4959 177.042 33.9121 177.188 34.342 177.376C35.2751 175.863 34.5067 175.079 33.4456 174.281C32.7595 173.762 32.2244 173.033 31.6207 172.4C32.4485 171.992 33.2535 171.524 34.1088 171.185C34.8085 170.909 35.6409 170.914 36.2767 170.552C36.7844 170.263 37.0817 169.607 37.4704 169.111C37.2875 168.942 37.1091 168.772 36.9261 168.598V168.584Z" fill="white"/>
<path d="M101.977 151.581C102.265 152.778 102.229 154.039 100.18 154.631C99.4478 154.842 98.7938 155.906 98.437 156.727C97.6229 158.589 97.1335 160.594 96.2554 162.419C96.0038 162.942 94.9016 163.235 94.1606 163.3C93.2093 163.382 92.2122 162.947 91.2701 163.052C88.8048 163.323 86.5134 163.575 84.9447 160.91C84.6062 160.341 83.1426 160.442 81.7522 160.135C81.1256 157.388 80.3527 154.159 79.6666 150.907C79.3602 149.453 78.9623 148.302 77.1328 148.26C76.6892 148.251 75.8293 147.361 75.9025 147.045C76.305 145.293 75.9117 143.215 78.0155 142.068C78.697 141.697 79.3373 140.482 79.2733 139.716C79.2138 139.023 78.1345 138.44 77.5627 137.757C77.0779 137.179 76.5474 136.583 76.273 135.9C75.7836 134.698 75.253 133.936 73.7574 134.423C72.0515 134.982 70.3226 134.06 69.8149 132.23C68.8408 128.717 67.7888 125.194 67.2674 121.599C67.1073 120.489 68.4428 119.035 69.3576 117.966C69.6732 117.599 70.7937 117.939 71.5484 117.948C72.5043 117.961 73.4602 117.975 74.4161 117.989C74.32 116.934 74.5761 115.645 74.0593 114.87C72.1338 111.962 69.9522 109.219 67.4595 105.862C68.5206 104.995 69.5405 104.11 70.6108 103.289C72.7604 101.642 74.9054 99.9959 77.1191 98.4365C77.5582 98.1246 78.354 97.9824 78.8571 98.1521C82.4063 99.3446 85.9417 97.2027 86.4082 93.8958C88.2652 92.8546 89.8842 91.9419 91.0688 91.2769C94.7689 91.8272 98.2724 92.4923 101.812 92.8088C103.528 92.9601 104.232 90.5614 103.363 88.0342C105.32 86.5756 105.718 86.6674 106.889 88.8414C108.883 92.529 109.821 92.7629 113.494 90.4926C114.267 90.0155 115.053 89.5615 115.511 89.2909C117.761 90.0201 119.727 90.6531 122.042 91.4007C121.186 91.8227 120.423 92.0061 119.956 92.4831C119.403 93.0519 118.625 94.0655 118.813 94.5379C119.06 95.1617 120.345 95.9781 120.848 95.79C123.176 94.9323 124.662 95.5515 125.902 97.6476C126.181 98.12 127.411 98.2576 128.161 98.1705C131.226 97.8311 133.961 98.7117 137.039 100.285C133.897 100.67 131.953 102.202 130.53 104.518C130.297 104.899 129.707 105.151 129.236 105.27C125.815 106.128 124.534 108.573 125.756 111.806C126.016 112.494 125.911 113.324 125.948 113.82C124.365 114.32 123.144 114.705 121.58 115.2C120.688 114.251 119.622 112.976 118.401 111.871C117.688 111.224 116.727 110.481 115.886 110.49C115.396 110.495 114.925 111.907 114.299 112.93C114.536 112.87 114.358 112.98 114.266 112.93C112.144 111.793 110.118 112.189 108.188 114.118C108.033 114.274 107.818 114.366 107.63 114.48C104.735 116.232 104.589 116.719 105.97 119.425C104.122 119.315 102.146 119.026 100.189 119.126C97.4399 119.273 96.2828 121.649 97.5863 123.961C97.8516 124.433 97.9568 125.369 97.6824 125.667C97.3805 125.993 96.5435 125.901 95.9489 125.864C94.9427 125.804 93.749 125.231 92.9806 125.603C90.7441 126.676 90.648 128.41 92.665 129.997C93.8633 130.937 94.4167 131.951 94.3436 133.482C94.2887 134.611 94.5402 135.753 94.6454 136.89C94.9107 139.706 95.0022 142.403 93.3831 145.031C91.7869 147.623 92.5415 149.146 95.5373 150.058C97.5086 150.659 99.5576 151.008 101.986 151.563L101.977 151.581Z" fill="white"/>
<path d="M0.192279 299.785C0.594581 299.348 1.09129 298.969 1.38668 298.469C3.70313 294.581 7.20625 292.895 11.5908 292.273C16.0405 291.639 20.1299 292.966 24.3147 293.859C25.6111 294.133 26.2585 297.189 25.3794 298.507C25.1686 298.819 24.8612 299.067 24.6546 299.382C22.865 302.154 20.716 302.37 17.4591 301.646C13.4648 300.754 9.21095 300.339 4.97196 301.742C3.6283 302.185 1.67652 300.769 0 300.201C0.0620764 300.063 0.126034 299.921 0.18811 299.783L0.192279 299.785Z" stroke="#00B2FF" stroke-width="1.8391" mask="url(#path-1-inside-1_882_9095)"/>
<path d="M98.8671 122.076C101.021 121.021 102.906 121.067 104.868 121.851C105.755 122.204 106.697 122.402 107.617 122.672C107.827 121.516 108.165 120.365 108.197 119.205C108.211 118.609 107.671 118.003 107.347 117.333C109.711 118.031 110.228 117.742 110.425 115.439C110.567 113.751 111.248 113.27 112.52 114.439C114.399 116.168 115.744 115.609 116.997 113.371C117.921 114.384 118.712 115.27 119.517 116.136C119.984 116.636 120.514 117.558 120.953 117.522C122.902 117.361 125.157 117.43 126.657 116.435C127.933 115.591 128.774 113.554 127.924 111.531C126.84 108.963 127.443 108.059 130.028 107.289C131.002 107 132.049 106.151 132.561 105.266C133.929 102.886 136.33 102.601 138.548 102.01C139.074 101.868 139.875 102.528 140.474 102.936C142.541 104.354 144.672 103.615 145.711 101.354C145.949 100.836 147.353 100.487 148.066 100.666C148.743 100.836 149.118 102.042 149.818 102.354C150.536 102.675 151.903 102.831 152.269 102.418C153.788 100.703 155.05 101.125 156.605 102.285C157.218 102.744 158.471 103.124 158.974 102.803C160.927 101.574 162.482 102.312 164.216 103.23C167.637 105.051 167.728 105.046 170.116 102.024C171.589 100.161 173.061 98.5056 175.815 99.0331C178.641 103.372 180.146 108.174 180.086 113.522C180.045 117.251 180.585 120.998 180.411 124.713C180.269 127.722 179.359 130.685 178.975 133.694C178.788 135.157 179.103 136.675 179.057 138.161C179.016 139.565 179.254 141.252 178.582 142.312C175.078 147.839 174.118 153.806 174.616 160.204C174.804 162.584 174.996 165.043 173.583 167.318C173.235 167.882 173.601 169.299 174.122 169.905C175.092 171.024 176.418 171.836 178.074 173.157C179.785 171.079 181.422 169.088 183.123 167.024C184.665 169.373 180.832 183.284 176.089 193.888C174.763 193.223 173.423 192.59 172.124 191.883C170.784 191.154 169.832 191.273 168.808 192.59C168.236 193.324 167.015 193.548 165.922 194.085C165.684 193.163 165.56 192.879 165.538 192.581C165.208 188.058 165.213 188.118 160.589 188.141C157.607 188.159 154.826 188.269 153.225 191.466C152.905 192.108 151.766 192.489 150.929 192.691C147.54 193.503 144.146 194.328 140.712 194.883C139.147 195.135 137.483 194.805 135.868 194.7C134.761 194.626 133.485 194.08 132.593 194.461C130.663 195.291 129.95 194.383 129.09 192.934C126.524 188.59 127.073 188.517 122.321 190.741C119.375 192.122 116.677 192.429 113.695 191.007C111.962 190.177 110.036 189.742 108.088 189.095C110.745 186.081 110.489 186.173 109.158 182.554C108.115 179.72 106.048 178.105 103.811 176.583C103.107 176.101 101.918 176.257 100.948 176.243C97.3486 176.202 94.7325 173.129 95.2584 169.62C95.4094 168.597 95.2813 167.533 95.2813 166.327C98.0941 164.942 99.2375 162.103 99.9419 159.062C100.308 157.466 100.774 156.319 102.553 155.829C104.067 155.407 104.712 152.604 104.04 150.182C103.509 148.265 101.986 148.976 100.674 148.857C98.9174 148.701 97.1657 148.284 95.4734 147.77C95.2036 147.687 94.9383 146.302 95.2127 145.912C98.5835 141.142 96.2601 136.015 96.1046 131.066C96.0726 129.997 94.5724 128.97 93.5662 127.699C95.4643 127.286 97.2617 129.703 99.1461 127.392C100.783 125.378 100.509 123.938 98.8488 122.067L98.8671 122.076Z" stroke="#00B2FF" stroke-width="1.8391" mask="url(#path-1-inside-1_882_9095)"/>
<path d="M150.871 100.574C149.563 98.4643 147.774 97.2214 145.259 98.4827C144.541 98.845 143.672 99.5284 143.489 100.226C143.054 101.909 142.295 101.9 141.321 100.877C139.08 98.5239 136.194 97.4278 133.225 96.4646C132.517 96.2353 131.693 95.9096 131.035 96.0747C128.112 96.8177 126.315 95.3821 124.856 93.1439C124.673 92.8641 124.439 92.4651 124.508 92.1945C125.185 89.6581 123.488 89.2958 121.672 88.8279C120.104 88.4197 118.617 87.6859 117.062 87.1951C116.463 87.0071 115.759 86.9979 115.127 87.0896C114.716 87.1493 114.35 87.5437 113.961 87.7822C111.5 89.2866 109.448 88.8555 107.805 86.4888C106.447 84.5349 102.664 84.4845 101.297 86.475C101.008 86.8924 101.04 87.6171 101.118 88.1721C101.219 88.883 101.512 89.571 101.827 90.6121C99.0829 90.3415 96.6818 90.2223 94.3263 89.8186C92.9954 89.5893 92.6661 88.6536 92.7301 87.108C92.9313 82.3196 95.0398 78.2101 96.668 73.8941C97.0797 72.8025 96.5583 71.3577 96.4485 69.8625C96.2793 69.9955 96.3845 69.8396 96.4988 69.835C98.4655 69.7662 99.9657 68.9819 100.171 66.8767C100.304 65.5374 98.0356 63.9413 96.0323 64.0972C93.4985 64.2944 91.5364 63.5285 90.2192 61.3728C88.8562 59.1345 86.7706 59.6161 85.0463 59.8317C84.5707 57.5889 84.1042 55.5157 83.7154 53.4289C83.6559 53.1216 83.9166 52.7363 84.0767 52.4061C85.458 49.5257 85.3528 45.8977 89.1992 44.2878C90.7634 43.632 89.7069 38.1602 88.0787 36.9356C86.8621 36.0229 85.6455 35.1055 84.3831 34.257C83.0842 33.3856 82.1512 32.4729 82.0094 30.6841C81.8539 28.6981 78.945 27.0561 76.9738 27.5469C76.1048 27.7625 75.2587 28.0606 74.0466 28.4275C74.1244 26.3085 75.309 23.8639 72.6242 22.997C71.865 22.7539 70.781 23.5337 69.2168 24.0565C68.6634 23.0062 67.9042 21.6211 67.1953 20.2084C66.962 19.7451 66.9574 19.1351 66.6556 18.7499C64.8124 16.4061 64.8947 15.7319 67.3691 14.1266C67.6847 13.9202 68.0231 13.7505 68.6085 13.4157C70.0127 16.1034 72.3315 15.5118 74.8104 15.3696C78.0715 15.1815 81.3691 15.8374 84.653 15.8466C87.5801 15.8512 90.5027 15.4246 93.4299 15.2733C94.4635 15.2182 95.5063 15.4613 96.5445 15.498C99.6089 15.6035 102.673 15.6448 105.733 15.7778C106.616 15.8191 107.499 16.0484 108.358 16.2731C109.808 16.6492 111.231 17.3922 112.69 17.4565C118.658 17.7225 123.886 13.8285 125.629 8.04024C126.09 6.50833 126.53 4.97642 126.987 3.44451C127.475 1.80558 128.694 0.657407 130.646 0C132.173 3.93068 133.724 7.87054 135.238 11.8242C137.772 18.4334 139.981 25.1894 142.89 31.6243C145.387 37.1511 148.575 42.3707 151.63 47.6269C156.409 55.8597 161.665 63.8358 166.087 72.2521C169.54 78.8292 172.079 85.8971 174.905 92.7907C175.34 93.8548 175.152 95.1758 175.285 96.8269C171.429 96.2949 169.893 99.267 167.775 101.487C167.405 101.872 166.261 101.886 165.676 101.624C163.439 100.629 161.399 98.8221 158.733 100.629C158.463 100.813 157.727 100.492 157.306 100.239C154.37 98.4643 153.693 98.4689 150.871 100.56V100.574Z" stroke="#00B2FF" stroke-width="1.8391" mask="url(#path-1-inside-1_882_9095)"/>
<path d="M93.7309 174.262C94.6045 175.078 95.4644 175.73 96.1321 176.546C97.303 177.972 98.7208 178.404 100.532 178.367C104.287 178.293 107.264 182.137 107.983 185.403C108.06 185.765 107.484 186.384 107.082 186.724C105.119 188.375 105.357 190.315 107.772 191.195C110.763 192.287 113.782 193.324 116.837 194.209C117.697 194.457 118.795 194.278 119.677 193.98C121.681 193.305 123.62 192.429 125.815 191.544C126.584 192.778 127.444 193.929 128.061 195.204C128.957 197.048 130.147 197.699 132.077 196.768C132.607 196.511 133.376 196.181 133.801 196.383C138.379 198.552 142.71 196.438 147.11 195.699C148.899 195.397 150.673 194.97 152.43 194.498C153.125 194.31 154.067 194.012 154.355 193.47C156.294 189.824 159.587 190.196 162.908 190.319C163.882 192.071 162.126 195.007 165.455 195.736C167.779 196.245 169.677 196.319 170.628 193.562C172.11 194.282 173.423 194.741 174.502 195.521C175.06 195.924 175.572 196.942 175.49 197.603C175.129 200.46 174.539 203.29 174.031 206.134C171.383 205.538 168.538 207.615 168.698 210.193C168.835 212.413 168.282 214.055 166.274 215.078C163.973 216.247 163.626 218.596 162.748 220.678C162.213 221.948 161.453 223.278 160.433 224.154C156.861 227.214 153.134 230.085 149.598 232.919C149.132 232.722 148.944 232.704 148.876 232.608C148.043 231.388 147.458 229.512 146.347 229.117C145.327 228.75 143.753 230.012 142.395 230.475C141.846 230.663 141.178 230.842 140.648 230.7C138.26 230.053 135.9 229.287 133.348 228.507C133.302 227.81 133.248 226.92 133.22 226.498C131.331 225.219 129.721 224.132 127.75 222.792C128.299 224.962 128.774 226.824 129.282 228.833C128.546 229.31 127.791 229.796 126.881 230.392C126.51 229.383 126.186 228.503 125.779 227.393C124.26 227.893 122.856 228.351 121.15 228.906C122.481 231.718 121.393 233.621 119.234 235.263C118.077 236.144 118.145 238.776 119.023 240.015C119.293 240.396 119.449 240.983 119.403 241.455C119.174 243.854 118.863 246.239 118.58 248.633C118.827 248.72 119.074 248.807 119.321 248.894C118.324 249.39 117.331 249.881 116.586 250.252C115.406 248.72 114.34 247.34 113.009 245.615C113.512 245.037 114.454 244.083 115.227 243.014C115.547 242.57 115.52 241.872 115.653 241.29C115.113 241.331 114.463 241.194 114.061 241.45C112.684 242.331 112.007 241.666 111.294 240.299C112.03 239.666 112.767 239.033 113.508 238.4L113.48 237.717C112.789 237.717 111.77 237.423 111.463 237.767C110.146 239.253 108.545 239.171 106.853 239.015C104.886 238.836 102.915 238.721 100.957 238.506C99.4435 238.341 98.2269 235.488 98.7208 233.25C98.8855 232.511 99.4023 231.814 99.4206 231.094C99.4343 230.31 99.0547 229.521 98.8443 228.732C98.6248 228.755 98.4007 228.773 98.1811 228.796C97.8061 229.346 97.3624 229.86 97.0651 230.452C96.0086 232.543 95.0939 234.433 92.0295 233.085C90.3922 232.364 84.8031 236.089 83.2984 238.588C82.4705 237.877 81.0847 237.249 81.0207 236.506C80.9384 235.506 81.8531 234.41 82.3882 233.383C82.5163 233.135 82.841 232.984 83.0743 232.791C85.8276 230.489 85.6264 226.196 82.5803 224.081C81.2128 223.132 79.9642 222.292 80.2752 220.316C80.3438 219.884 80.0236 219.174 79.6577 218.921C75.8433 216.33 77.3206 212.624 77.6225 209.207C77.7048 208.257 78.1484 207.271 78.6515 206.441C81.2448 202.144 79.9779 198.213 77.691 194.324C77.4624 193.934 77.3343 193.278 77.499 192.888C79.6349 187.87 81.1396 182.481 85.5532 178.789C86.0243 178.394 86.8613 177.876 87.2455 178.05C88.86 178.789 89.825 177.945 90.8404 176.945C91.7551 176.046 92.7247 175.202 93.7401 174.271L93.7309 174.262Z" stroke="#00B2FF" stroke-width="1.8391" mask="url(#path-1-inside-1_882_9095)"/>
<path d="M82.1636 250.289C80.2609 250.115 78.2759 249.518 76.4693 249.867C73.9721 250.348 73.9858 252.5 75.0698 254.967C73.7663 254.596 73.0802 254.33 72.3713 254.206C70.7111 253.917 70.1119 253.146 70.5281 251.367C70.9398 249.601 70.8071 247.707 71.205 245.936C71.7813 243.372 70.4778 241.923 68.5706 240.735C67.3266 239.96 63.4069 242.015 63.1965 243.652C62.945 245.611 62.7071 247.633 62.9404 249.569C63.041 250.399 64.3216 251.096 65.0854 251.835C65.8538 252.582 67.1299 253.188 67.3403 254.064C68.1132 257.238 66.6085 258.256 62.4419 257.361C62.794 262.81 58.1197 264.186 54.7489 267.328C54.4425 265.25 54.2596 263.686 53.9806 262.141C53.4592 259.224 52.5261 258.586 49.7316 259.058C48.483 259.269 47.2253 259.402 45.5924 259.623C46.1504 257.692 46.6215 256.073 47.0743 254.499C51.401 254.788 51.6251 254.573 52.7274 250.555C52.9469 249.748 53.5323 248.734 54.223 248.431C55.5173 247.858 56.2583 248.853 56.7614 250.005C56.9946 250.537 57.3788 251.004 58.0603 252.078C58.6686 250.183 59.2312 248.817 59.533 247.395C59.7983 246.166 57.8682 244.845 56.519 245.427C51.5657 247.56 46.6124 249.693 41.7688 252.059C39.8433 253 39.4729 255.119 39.3311 257.169C39.0292 261.599 38.1053 262.585 33.7146 263.342C32.3791 263.572 31.0436 263.833 29.237 264.168C29.237 261.755 29.237 259.517 29.237 257.279C29.237 256.361 29.2827 255.44 29.1684 254.536C29.1226 254.197 28.6744 253.908 28.4137 253.596C28.1027 253.866 27.5722 254.1 27.5264 254.412C27.3435 255.614 27.22 256.838 27.2429 258.049C27.2977 261.136 25.6101 263.553 22.3765 263.819C20.6705 263.957 19.3578 264.503 18.9188 266.663C18.1595 270.364 17.972 270.328 14.1347 270.213C13.6865 270.199 13.2383 270.13 12.4562 270.052C12.4562 268.007 12.2961 265.966 12.4927 263.957C12.8266 260.554 10.8417 258.022 9.47412 255.274C9.18141 254.687 8.12946 254.389 7.36108 254.16C4.81355 253.399 3.29966 251.564 3.25392 248.931C3.22191 247.023 3.25392 245.115 3.26764 243.207C3.26764 242.987 3.3454 242.767 3.414 242.409C5.3075 242.189 6.81682 242.253 6.84883 244.854C6.86255 246.124 7.21015 247.427 7.62178 248.642C7.8962 249.45 8.55481 250.128 9.12652 250.991C11.546 248.537 8.19807 246.831 9.08078 244.514C10.7639 245.569 12.2869 246.665 13.9426 247.5C14.6652 247.863 15.6715 247.808 16.5084 247.679C16.7188 247.647 17.0024 246.528 16.8423 246.051C16.6731 245.546 16.0694 244.982 15.5525 244.845C13.5721 244.336 11.546 244.001 9.54273 243.574C7.3062 243.097 6.58356 241.428 7.97396 239.625C8.98016 238.318 9.25001 237.112 8.92985 235.433C8.70117 234.231 9.44211 232.851 9.69823 231.544C9.8766 230.631 9.96808 229.7 10.1007 228.778C9.28203 228.714 8.46334 228.645 7.45713 228.567C6.61557 227.379 6.49208 226.081 7.75899 224.691C8.7652 223.586 9.82172 222.403 8.94815 220.623C8.80636 220.339 9.36893 219.706 9.72567 218.999C10.7685 220.284 11.5689 221.265 12.3738 222.256C14.8985 219.756 14.9168 219.545 12.8769 217.009C10.8782 214.527 8.8704 212.055 6.83511 209.537C8.42675 207.652 10.0961 206.042 11.3036 204.143C12.511 202.245 13.2611 200.048 14.2856 197.823C15.9504 199.823 17.8622 201.447 16.975 204.327C16.8423 204.753 17.2402 205.533 17.6244 205.9C18.8867 207.097 24.645 207.134 26.0125 206.024C27.1377 205.116 28.1759 204.084 29.3605 203.267C30.8881 202.213 31.4735 200.818 31.597 199.02C31.6427 198.355 32.1687 197.383 32.7084 197.181C33.3121 196.956 34.1857 197.433 34.9403 197.621C35.9328 197.869 36.9162 198.126 38.1968 198.456C38.2608 198.603 38.5215 199.066 38.677 199.562C39.1253 200.979 39.6284 202.657 41.3801 202.391C42.4 202.235 43.3148 201.025 44.1472 200.167C44.7783 199.516 45.2037 198.667 45.8806 197.667C45.7342 200.286 45.533 202.428 45.5193 204.575C45.4964 208.093 47.7787 209.409 50.9482 207.79C51.2181 207.652 51.5016 207.538 51.6617 207.464C56.304 209.391 60.6124 211.239 65.8081 208.716C70.2171 206.574 75.0927 207.895 75.1841 214.083C75.207 215.523 75.4677 216.963 75.6232 218.403C75.6415 218.554 75.6232 218.743 75.701 218.848C77.288 220.949 78.6052 223.375 80.5536 225.058C83.435 227.549 83.7323 229.526 80.8509 231.961C80.2792 232.443 79.4102 233.03 79.3782 233.608C79.2181 236.286 77.2057 236.777 75.2939 237.474C74.3609 237.813 73.437 238.047 73.7434 239.497C74.0407 240.877 74.8137 241.162 76.0257 241.102C77.2377 241.042 78.4726 241.203 79.6709 241.065C81.7702 240.831 82.159 241.987 82.0218 243.689C82.008 243.84 82.0126 244.001 81.976 244.143C81.4318 246.147 80.3935 248.179 82.8359 250.014L82.1864 250.303L82.1636 250.289Z" stroke="#00B2FF" stroke-width="1.8391" mask="url(#path-1-inside-1_882_9095)"/>
<path d="M42.5151 87.117C41.5546 87.5435 40.457 87.7912 39.6611 88.4287C37.9597 89.7863 36.702 89.6304 35.7461 87.6949C35.5768 87.3555 35.3847 87.0161 35.2658 86.6583C34.6301 84.7182 33.6559 83.2276 31.3096 83.6449C30.898 79.9757 31.2136 79.54 34.5661 79.2327C36.6654 79.04 38.7693 78.9208 40.7817 78.774C40.4981 76.999 40.4341 75.3203 39.9127 73.7976C39.5788 72.8252 38.7144 71.8804 37.8408 71.2841C35.9702 69.9999 34.9548 68.4038 34.5615 66.1197C33.848 62.0009 32.9561 57.9051 31.8813 53.869C31.3508 51.8738 31.6252 50.5162 33.3266 49.3604C34.3191 48.6862 35.1789 47.8101 36.6151 46.5855C37.8179 49.1127 38.8928 51.3647 40.027 53.7497C42.7026 50.585 40.9646 47.2918 40.4341 43.9482C40.896 43.7418 41.3534 43.5171 41.8245 43.3336C43.535 42.6686 43.8598 41.3522 42.5471 40.1001C41.4632 39.0636 40.2877 38.1187 38.9705 36.9767C40.8732 36.0089 42.538 35.1604 44.0198 34.4036C44.866 36.3942 45.6527 38.238 46.5354 40.3111C49.4854 37.3252 49.4945 37.0776 47.1574 34.399C47.9669 32.4314 49.179 31.6517 51.0633 33.1194C52.2311 31.6272 51.7753 29.8629 49.6958 27.8265C48.5707 27.9549 47.5096 28.3723 46.668 28.1017C45.0992 27.5971 44.8614 24.4966 46.3296 23.1252C47.3495 22.1712 48.6896 21.5658 49.8696 20.7815C50.8026 20.1623 51.7173 19.5156 52.7876 18.7772C53.2358 19.6074 53.6154 20.4971 54.1551 21.2769C55.0195 22.5336 57.2927 22.4281 57.3979 21.0842C57.6814 17.5709 60.3616 17.603 62.0996 17.1031C63.0006 18.2222 63.7004 19.0891 64.391 19.9559C64.6563 20.2908 64.9307 20.6256 65.1594 20.9833C66.0787 22.4143 66.8882 23.9279 67.9127 25.2763C69.0653 26.7899 70.442 27.7256 72.212 24.8039C72.0565 26.1845 71.9833 26.744 71.9284 27.3082C71.7089 29.6382 73.145 30.8215 75.473 30.2252C79.164 29.285 79.1228 29.2942 80.2388 32.9543C80.44 33.6239 81.0163 34.2568 81.5743 34.7155C82.8046 35.7337 84.131 36.6281 85.4208 37.5729C88.5354 39.8433 88.4897 42.7236 85.1875 44.5812C83.6691 45.4343 83.0836 46.503 83.0196 48.2229C82.9739 49.4384 82.297 50.6171 81.9493 51.828C81.7481 52.5251 81.4554 53.2727 81.5286 53.9607C81.7252 55.7907 82.297 57.5933 82.3473 59.4141C82.4021 61.2671 83.0379 62.2853 84.8902 61.9413C87.1496 61.5239 88.7047 62.3679 89.903 64.1704C91.0052 65.8261 92.6014 66.1885 94.4675 66.1426C95.5606 66.1151 96.6583 66.4086 97.756 66.5554C97.7468 66.8306 97.7377 67.1012 97.724 67.3764C96.8824 67.5002 96.0363 67.6195 95.1993 67.7525C93.5345 68.0185 92.7981 68.9129 93.8135 70.4356C94.934 72.1143 94.6962 73.5912 93.9187 75.3295C92.4414 78.641 90.8269 81.902 90.8497 85.7318C90.8589 87.039 89.999 88.4838 89.1895 89.6212C88.6818 90.3321 87.5658 90.8642 86.6602 90.9743C85.2515 91.144 84.4191 91.5109 84.2316 93.0703C83.884 95.9186 81.6795 96.9781 79.0634 95.8681C78.3407 95.5608 77.0647 95.6434 76.4747 96.1066C73.0353 98.8035 69.7239 101.666 66.2296 104.592C64.7843 103.294 63.4854 101.881 61.9395 100.835C61.0614 100.239 59.6984 99.8309 58.7014 100.046C55.2985 100.78 51.9323 101.725 48.6164 102.789C46.915 103.335 45.7807 103.014 44.683 101.647C43.0914 99.6704 41.2391 98.1201 40.9189 95.1389C40.6033 92.2493 40.832 89.9377 43.1874 87.9609C42.9588 87.6719 42.7301 87.3876 42.5014 87.0986L42.5151 87.117Z" stroke="#00B2FF" stroke-width="1.8391" mask="url(#path-1-inside-1_882_9095)"/>
<path d="M68.6074 161.025C69.0694 158.512 66.6407 157.255 64.9027 155.673C64.5597 155.361 63.151 155.599 62.7851 156.039C61.1249 158.048 59.1079 158.186 56.8256 157.672C56.2402 157.539 55.5953 157.438 55.0144 157.535C53.0615 157.86 52.4212 156.805 51.9501 155.118C51.0308 151.829 50.9393 151.829 47.5273 152.017C45.7116 152.118 43.9004 152.37 42.0847 152.485C40.4061 152.59 39.8756 153.824 39.7201 155.113C39.2215 159.19 35.3705 159.287 32.9053 161.007C32.7269 161.131 31.8808 160.548 31.5423 160.131C29.9598 158.177 28.3956 156.209 26.9275 154.168C26.0265 152.911 25.0614 152.054 23.3875 152.15C22.8158 152.182 21.9056 151.82 21.7181 151.389C21.5397 150.971 21.9147 149.971 22.3492 149.687C24.2976 148.421 24.3159 146.669 24.0324 144.66C23.8037 143.027 23.8494 141.349 23.7899 140.009C24.8739 139.386 25.6514 138.941 26.4244 138.5C25.8161 137.638 25.1666 136.803 24.6178 135.904C24.1467 135.134 23.4423 134.295 23.4423 133.483C23.4515 129.52 23.7305 125.562 23.7534 121.599C23.7579 120.498 23.2228 119.393 22.8935 118.122C21.3842 119.388 20.3826 120.677 19.0699 121.227C16.8745 122.149 16.7465 119.705 15.6945 118.48C15.4201 118.806 15.1823 119.044 14.9948 119.315C14.5191 119.984 14.0617 120.672 13.5998 121.351C13.2476 120.65 12.8223 119.98 12.5661 119.246C12.2917 118.462 12.0996 117.632 12.0127 116.801C11.8572 115.361 11.4822 114.251 9.72132 114.797C9.34628 113.531 9.02612 112.458 8.67852 111.279C7.7958 111.531 7.09145 111.729 6.06695 112.022C6.06695 111.178 5.77881 110.261 6.11269 109.848C8.99868 106.248 11.3084 102.092 15.4476 99.6522C15.6305 99.5422 15.8683 99.5192 16.3669 99.3633C16.5132 101.102 16.4904 102.771 16.8517 104.353C17.0529 105.239 17.7527 106.216 18.5119 106.67C18.8824 106.89 20.0944 106.17 20.6067 105.592C22.8249 103.06 22.6145 101.675 19.8977 99.6201C19.1751 99.0743 18.4662 98.5056 17.4417 97.7121C19.2254 96.593 20.8399 95.5794 22.5962 94.474C23.6207 96.0334 24.5583 97.4644 25.4959 98.8955C25.7338 98.8496 25.9716 98.8083 26.2048 98.7624V93.7814C28.8256 93.6851 31.3457 92.9513 33.6096 95.4739C35.1418 97.1847 37.3189 98.3818 39.3587 99.5422C41.3895 100.698 42.4597 102.28 42.7936 104.56C42.9902 105.895 43.4659 107.188 43.8135 108.477C44.0971 108.463 44.3212 108.513 44.3806 108.44C48.1585 103.551 54.1683 103.854 59.268 102.079C59.7665 101.904 60.7315 102.4 61.1752 102.872C64.9348 106.917 68.6257 111.027 72.152 115.494C70.3317 114.903 68.9321 114.857 67.7887 116.43C66.4441 118.287 63.9514 119.411 65.0765 122.576C66.2428 125.86 66.8465 129.341 67.7476 132.721C68.4611 135.4 71.4111 137.317 73.8306 136.918C74.7407 138.12 75.5914 139.248 76.4558 140.39C74.0912 142.243 72.8655 147.128 74.4663 149.164C74.7453 149.517 75.0837 150.091 75.4085 150.104C77.8965 150.201 77.7731 152.191 78.1572 153.797C78.578 155.572 78.825 157.397 79.3464 159.14C79.9273 161.089 78.9119 161.617 77.3477 162.117C76.3278 162.442 75.2621 163.084 74.5806 163.892C73.5516 165.112 72.806 165.144 71.8364 163.91C71.0635 162.924 69.9566 162.204 68.6074 161.025Z" stroke="#00B2FF" stroke-width="1.8391" mask="url(#path-1-inside-1_882_9095)"/>
<path d="M36.9261 168.584C35.4717 168.965 34.0219 169.368 32.5583 169.731C30.0976 170.336 28.0166 169.359 26.393 167.41C25.4737 166.305 24.0467 165.621 22.5511 164.534C23.1685 164.144 23.9506 163.25 24.7968 163.186C27.3031 162.993 29.8324 163.126 32.3525 163.14C32.4897 163.14 32.6223 163.273 32.7641 163.282C34.4518 163.433 40.9098 158.952 41.2437 157.209C41.637 155.15 42.5838 154.104 44.7563 154.471C45.049 154.522 45.36 154.444 45.6619 154.412C49.3208 153.976 49.3757 153.958 50.4642 157.388C50.9216 158.828 51.6808 159.562 53.2176 159.581C54.4296 159.594 55.6371 159.778 56.8445 159.902C59.4515 160.159 62.0677 160.461 63.8057 157.654C65.2875 158.778 66.5544 159.636 66.4812 161.681C66.3761 164.562 66.6322 164.69 69.5731 164.268C69.7103 166.956 71.9971 167.167 73.7214 167.07C74.906 167.006 76.0128 165.47 77.0967 164.64C78.0709 165.162 79.3333 165.837 80.5956 166.516C80.7786 165.575 80.9615 164.64 81.2085 163.392C82.6126 162.534 83.9618 162.488 85.4666 164.291C86.1481 165.112 87.8357 165.217 89.0981 165.378C90.0403 165.497 91.0419 165.195 91.9612 165.085C94.2938 169.258 92.8668 174.088 88.8328 175.987C88.6407 176.078 88.3526 176.212 88.2108 176.134C85.6175 174.698 84.6433 176.922 83.1706 178.253C78.8348 182.169 77.5724 187.738 75.3084 192.755C75.0203 193.393 75.4777 194.448 75.7658 195.246C76.0677 196.08 76.7354 196.796 76.9733 197.64C78.3774 202.548 78.3225 202.759 75.5051 208.34C75.3222 208.281 75.0798 208.272 74.9517 208.143C72.0566 205.359 68.3336 204.772 64.6884 206.808C60.9974 208.872 57.5168 208.125 54.6263 205.676C53.0621 204.35 52.1336 204.685 50.9079 205.483C48.4884 207.056 47.2764 206.639 47.5645 203.446C47.6926 202.034 47.8298 200.584 48.246 199.241C48.6165 198.053 49.051 197.016 47.592 196.383C46.2016 195.782 44.7471 195.016 43.6586 196.943C43.0412 198.039 42.3368 199.08 41.4266 200.534C40.9464 199.433 40.5668 198.791 40.3884 198.099C40.0134 196.631 39.2038 195.865 37.6305 195.975C37.2051 196.003 36.5054 195.938 36.3773 195.686C35.2842 193.576 33.7978 194.581 32.2747 194.966C30.2806 195.47 29.5122 196.53 29.3887 198.654C29.1783 202.327 23.7402 205.726 20.2642 204.575C19.8846 204.451 19.2855 203.983 19.3221 203.768C19.8892 200.52 17.3142 198.69 15.8003 195.947C19.0568 194.108 21.028 190.265 25.6063 190.65C26.3701 190.714 27.2208 189.655 28.0349 189.113C27.2162 188.646 26.4387 187.903 25.5697 187.765C23.4155 187.426 21.2201 187.366 19.0248 187.192C18.4622 184.848 18.6543 183.307 21.1607 182.188C23.2097 181.27 24.9706 179.528 26.5988 177.89C29 175.473 30.1159 175.17 33.1163 176.831C33.4959 177.042 33.9121 177.188 34.342 177.376C35.2751 175.863 34.5067 175.079 33.4456 174.281C32.7595 173.762 32.2244 173.033 31.6207 172.4C32.4485 171.992 33.2535 171.524 34.1088 171.185C34.8085 170.909 35.6409 170.914 36.2767 170.552C36.7844 170.263 37.0817 169.607 37.4704 169.111C37.2875 168.942 37.1091 168.772 36.9261 168.598V168.584Z" stroke="#00B2FF" stroke-width="1.8391" mask="url(#path-1-inside-1_882_9095)"/>
<path d="M101.977 151.581C102.265 152.778 102.229 154.039 100.18 154.631C99.4478 154.842 98.7938 155.906 98.437 156.727C97.6229 158.589 97.1335 160.594 96.2554 162.419C96.0038 162.942 94.9016 163.235 94.1606 163.3C93.2093 163.382 92.2122 162.947 91.2701 163.052C88.8048 163.323 86.5134 163.575 84.9447 160.91C84.6062 160.341 83.1426 160.442 81.7522 160.135C81.1256 157.388 80.3527 154.159 79.6666 150.907C79.3602 149.453 78.9623 148.302 77.1328 148.26C76.6892 148.251 75.8293 147.361 75.9025 147.045C76.305 145.293 75.9117 143.215 78.0155 142.068C78.697 141.697 79.3373 140.482 79.2733 139.716C79.2138 139.023 78.1345 138.44 77.5627 137.757C77.0779 137.179 76.5474 136.583 76.273 135.9C75.7836 134.698 75.253 133.936 73.7574 134.423C72.0515 134.982 70.3226 134.06 69.8149 132.23C68.8408 128.717 67.7888 125.194 67.2674 121.599C67.1073 120.489 68.4428 119.035 69.3576 117.966C69.6732 117.599 70.7937 117.939 71.5484 117.948C72.5043 117.961 73.4602 117.975 74.4161 117.989C74.32 116.934 74.5761 115.645 74.0593 114.87C72.1338 111.962 69.9522 109.219 67.4595 105.862C68.5206 104.995 69.5405 104.11 70.6108 103.289C72.7604 101.642 74.9054 99.9959 77.1191 98.4365C77.5582 98.1246 78.354 97.9824 78.8571 98.1521C82.4063 99.3446 85.9417 97.2027 86.4082 93.8958C88.2652 92.8546 89.8842 91.9419 91.0688 91.2769C94.7689 91.8272 98.2724 92.4923 101.812 92.8088C103.528 92.9601 104.232 90.5614 103.363 88.0342C105.32 86.5756 105.718 86.6674 106.889 88.8414C108.883 92.529 109.821 92.7629 113.494 90.4926C114.267 90.0155 115.053 89.5615 115.511 89.2909C117.761 90.0201 119.727 90.6531 122.042 91.4007C121.186 91.8227 120.423 92.0061 119.956 92.4831C119.403 93.0519 118.625 94.0655 118.813 94.5379C119.06 95.1617 120.345 95.9781 120.848 95.79C123.176 94.9323 124.662 95.5515 125.902 97.6476C126.181 98.12 127.411 98.2576 128.161 98.1705C131.226 97.8311 133.961 98.7117 137.039 100.285C133.897 100.67 131.953 102.202 130.53 104.518C130.297 104.899 129.707 105.151 129.236 105.27C125.815 106.128 124.534 108.573 125.756 111.806C126.016 112.494 125.911 113.324 125.948 113.82C124.365 114.32 123.144 114.705 121.58 115.2C120.688 114.251 119.622 112.976 118.401 111.871C117.688 111.224 116.727 110.481 115.886 110.49C115.396 110.495 114.925 111.907 114.299 112.93C114.536 112.87 114.358 112.98 114.266 112.93C112.144 111.793 110.118 112.189 108.188 114.118C108.033 114.274 107.818 114.366 107.63 114.48C104.735 116.232 104.589 116.719 105.97 119.425C104.122 119.315 102.146 119.026 100.189 119.126C97.4399 119.273 96.2828 121.649 97.5863 123.961C97.8516 124.433 97.9568 125.369 97.6824 125.667C97.3805 125.993 96.5435 125.901 95.9489 125.864C94.9427 125.804 93.749 125.231 92.9806 125.603C90.7441 126.676 90.648 128.41 92.665 129.997C93.8633 130.937 94.4167 131.951 94.3436 133.482C94.2887 134.611 94.5402 135.753 94.6454 136.89C94.9107 139.706 95.0022 142.403 93.3831 145.031C91.7869 147.623 92.5415 149.146 95.5373 150.058C97.5086 150.659 99.5576 151.008 101.986 151.563L101.977 151.581Z" stroke="#00B2FF" stroke-width="1.8391" mask="url(#path-1-inside-1_882_9095)"/>
</svg>
