<svg width="196" height="261" viewBox="0 0 196 261" fill="none" xmlns="http://www.w3.org/2000/svg">
<rect y="21.0061" width="196" height="239.556" rx="9.67901" fill="#FFB64A"/>
<path fill-rule="evenodd" clip-rule="evenodd" d="M181.482 48.8333C181.482 43.4877 177.148 39.1543 171.802 39.1543H24.1976C18.852 39.1543 14.5186 43.4877 14.5186 48.8333V232.735C14.5186 238.08 18.852 242.414 24.1976 242.414H140.951V207.932C140.951 202.587 145.284 198.253 150.63 198.253H181.482V48.8333Z" fill="#E0E0E0"/>
<path d="M140.951 242.414L161.216 220.333L181.482 198.253H150.63C145.284 198.253 140.951 202.587 140.951 207.932V242.414Z" fill="#CACACA"/>
<path d="M37.5061 185.549H130.667" stroke="#9C96A4" stroke-width="7.25926" stroke-linecap="round"/>
<path d="M37.5061 157.722H154.864" stroke="#9C96A4" stroke-width="7.25926" stroke-linecap="round"/>
<path d="M37.5061 128.685H154.864" stroke="#9C96A4" stroke-width="7.25926" stroke-linecap="round"/>
<path d="M37.5061 99.6482H154.864" stroke="#9C96A4" stroke-width="7.25926" stroke-linecap="round"/>
<path fill-rule="evenodd" clip-rule="evenodd" d="M115.905 22.2157C116.065 21.231 116.148 20.2206 116.148 19.1908C116.148 8.83379 107.752 0.437744 97.3948 0.437744C87.0377 0.437744 78.6417 8.83379 78.6417 19.1908C78.6417 20.2206 78.7247 21.231 78.8844 22.2157H72.5929C61.9017 22.2157 53.2349 30.8826 53.2349 41.5737V53.6725C53.2349 56.3453 55.4016 58.512 58.0744 58.512H136.716C139.389 58.512 141.556 56.3453 141.556 53.6725V41.5737C141.556 30.8826 132.889 22.2157 122.198 22.2157H115.905ZM107.679 19.1908C107.679 24.8705 103.074 29.4748 97.3948 29.4748C91.7151 29.4748 87.1108 24.8705 87.1108 19.1908C87.1108 13.5112 91.7151 8.90688 97.3948 8.90688C103.074 8.90688 107.679 13.5112 107.679 19.1908Z" fill="#958D96"/>
</svg>
