<svg width="96" height="30" viewBox="0 0 96 30" fill="none" xmlns="http://www.w3.org/2000/svg">
<path d="M89.5417 22.6183C89.7821 24.3428 90.1318 26.0463 90.5908 27.7287C90.6782 28.0021 90.722 28.286 90.722 28.5804C90.722 29.5268 90.1209 30 88.9188 30C88.2412 30 87.7166 29.8212 87.3451 29.4637C86.9954 29.1062 86.6675 28.4332 86.3615 27.4448L86.3287 27.3186C85.4982 28.307 84.7441 28.9695 84.0666 29.306C83.4108 29.6425 82.6459 29.8107 81.7716 29.8107C80.4383 29.8107 79.3345 29.3375 78.4603 28.3912C77.6079 27.4238 77.1816 26.1725 77.1816 24.6372C77.1816 22.9548 77.5532 21.3985 78.2963 19.9685C79.0395 18.5384 80.0558 17.3712 81.3454 16.4669C82.6349 15.5415 84.0775 14.9842 85.673 14.795C86.0883 10.8202 86.8752 7.36067 88.0336 4.4164C89.2138 1.47213 90.7766 0 92.7219 0C93.6617 0 94.4376 0.410095 95.0496 1.23028C95.6835 2.05047 96.0004 3.29127 96.0004 4.95268C96.0004 7.26604 95.4103 9.96845 94.23 13.0599C93.0497 16.1514 91.487 19.3375 89.5417 22.6183ZM92.3612 3.09148C91.7274 3.09148 91.1263 4.64774 90.558 7.76025C90.0116 10.8728 89.64 14.2587 89.4433 17.918C91.8694 12.8707 93.0825 8.76972 93.0825 5.61514C93.0825 4.81598 93.006 4.19559 92.853 3.75394C92.7219 3.3123 92.5579 3.09148 92.3612 3.09148ZM82.9191 26.6246C83.3562 26.6246 83.7715 26.4669 84.1649 26.1514C84.5802 25.836 85.1048 25.2261 85.7386 24.3218C85.52 22.7865 85.4107 21.1987 85.4107 19.5584C85.4107 18.9064 85.4217 18.4017 85.4435 18.0442C84.2414 18.3807 83.2469 19.1483 82.4601 20.347C81.6732 21.5457 81.2798 22.8707 81.2798 24.3218C81.2798 25.857 81.8262 26.6246 82.9191 26.6246Z" fill="#00B2FF"/>
<path d="M79.5193 22.6183C79.8034 22.6183 80.022 22.7444 80.175 22.9968C80.3498 23.2492 80.4373 23.5962 80.4373 24.0378C80.4373 24.879 80.2296 25.531 79.8144 25.9936C79.0056 26.94 77.8582 27.8128 76.3719 28.6119C74.9075 29.4111 73.3338 29.8107 71.6508 29.8107C69.3559 29.8107 67.5745 29.2113 66.3068 28.0126C65.0391 26.8138 64.4053 25.1735 64.4053 23.0914C64.4053 21.6403 64.7222 20.2944 65.356 19.0536C65.9899 17.7918 66.8642 16.7928 67.9789 16.0567C69.1154 15.3207 70.3941 14.9526 71.8147 14.9526C73.0824 14.9526 74.0988 15.3207 74.8638 16.0567C75.6288 16.7718 76.0113 17.7497 76.0113 18.9905C76.0113 20.4416 75.4648 21.6929 74.372 22.7444C73.301 23.7749 71.476 24.5951 68.8969 25.205C69.4433 26.1724 70.4815 26.6561 72.0115 26.6561C72.995 26.6561 74.1097 26.3301 75.3556 25.6782C76.6233 25.0052 77.7161 24.1324 78.6341 23.0599C78.8964 22.7655 79.1914 22.6183 79.5193 22.6183ZM71.2574 18.0441C70.4487 18.0441 69.7602 18.4963 69.1919 19.4006C68.6455 20.3049 68.3723 21.3985 68.3723 22.6813V22.7444C69.6618 22.45 70.6782 22.0084 71.4213 21.4195C72.1645 20.8307 72.536 20.1472 72.536 19.369C72.536 18.9695 72.4158 18.654 72.1754 18.4227C71.9568 18.1703 71.6508 18.0441 71.2574 18.0441Z" fill="#00B2FF"/>
<path d="M66.6482 22.6183C66.9323 22.6183 67.1509 22.7444 67.3039 22.9968C67.4788 23.2492 67.5662 23.5962 67.5662 24.0378C67.5662 24.879 67.3585 25.531 66.9433 25.9936C66.1346 26.94 64.9871 27.8128 63.5008 28.6119C62.0364 29.4111 60.4627 29.8107 58.7797 29.8107C56.4848 29.8107 54.7034 29.2113 53.4357 28.0126C52.168 26.8138 51.5342 25.1735 51.5342 23.0914C51.5342 21.6403 51.8511 20.2944 52.485 19.0536C53.1188 17.7918 53.9931 16.7928 55.1078 16.0567C56.2443 15.3207 57.523 14.9526 58.9437 14.9526C60.2113 14.9526 61.2277 15.3207 61.9927 16.0567C62.7577 16.7718 63.1402 17.7497 63.1402 18.9905C63.1402 20.4416 62.5937 21.6929 61.5009 22.7444C60.4299 23.7749 58.6049 24.5951 56.0258 25.205C56.5722 26.1724 57.6104 26.6561 59.1404 26.6561C60.1239 26.6561 61.2386 26.3301 62.4845 25.6782C63.7522 25.0052 64.845 24.1324 65.763 23.0599C66.0253 22.7655 66.3203 22.6183 66.6482 22.6183ZM58.3863 18.0441C57.5776 18.0441 56.8891 18.4963 56.3208 19.4006C55.7744 20.3049 55.5012 21.3985 55.5012 22.6813V22.7444C56.7908 22.45 57.8071 22.0084 58.5502 21.4195C59.2934 20.8307 59.6649 20.1472 59.6649 19.369C59.6649 18.9695 59.5447 18.654 59.3043 18.4227C59.0857 18.1703 58.7797 18.0441 58.3863 18.0441Z" fill="#00B2FF"/>
<path d="M38.0893 29.8107C37.2588 29.8107 36.6686 29.3901 36.3189 28.5488C35.9911 27.7076 35.8271 26.3617 35.8271 24.511C35.8271 21.777 36.2315 19.1798 37.0402 16.7192C37.2369 16.1093 37.5538 15.6677 37.991 15.3943C38.45 15.0999 39.0838 14.9526 39.8925 14.9526C40.3297 14.9526 40.6357 15.0052 40.8105 15.1104C40.9854 15.2155 41.0728 15.4153 41.0728 15.7097C41.0728 16.0462 40.9089 16.8033 40.581 17.981C40.3624 18.8222 40.1876 19.5583 40.0564 20.1892C39.9253 20.8201 39.816 21.5983 39.7286 22.5236C40.4499 20.715 41.2586 19.2429 42.1547 18.1072C43.0508 16.9716 43.9251 16.1619 44.7775 15.6782C45.6518 15.1945 46.4496 14.9526 47.1709 14.9526C48.5916 14.9526 49.3019 15.6361 49.3019 17.0031C49.3019 17.8233 49.0615 19.3059 48.5806 21.4511C48.1653 23.2807 47.9577 24.49 47.9577 25.0788C47.9577 25.92 48.2746 26.3406 48.9085 26.3406C49.3456 26.3406 49.8592 26.0883 50.4494 25.5835C51.0614 25.0578 51.8701 24.2166 52.8755 23.0599C53.1378 22.7655 53.4328 22.6183 53.7607 22.6183C54.0448 22.6183 54.2634 22.7444 54.4164 22.9968C54.5913 23.2492 54.6787 23.5962 54.6787 24.0378C54.6787 24.879 54.471 25.531 54.0558 25.9936C53.1159 27.1083 52.0996 28.0231 51.0067 28.7381C49.9357 29.4532 48.7118 29.8107 47.3348 29.8107C46.2201 29.8107 45.3786 29.5057 44.8103 28.8959C44.242 28.2649 43.9579 27.3606 43.9579 26.1829C43.9579 25.5941 44.1109 24.5425 44.4169 23.0283C44.701 21.7034 44.8431 20.7886 44.8431 20.2839C44.8431 19.9474 44.7229 19.7791 44.4825 19.7791C44.1983 19.7791 43.794 20.1367 43.2694 20.8517C42.7667 21.5457 42.2421 22.471 41.6957 23.6277C41.1711 24.7844 40.7449 26.0042 40.4171 27.287C40.1767 28.2755 39.8925 28.9484 39.5647 29.3059C39.2587 29.6424 38.7669 29.8107 38.0893 29.8107Z" fill="#00B2FF"/>
<path d="M37.5125 22.6183C37.7966 22.6183 38.0152 22.7444 38.1682 22.9968C38.343 23.2492 38.4304 23.5962 38.4304 24.0378C38.4304 24.879 38.2228 25.531 37.8075 25.9936C36.9988 26.94 35.8513 27.8128 34.3651 28.6119C32.9007 29.4111 31.327 29.8107 29.644 29.8107C27.349 29.8107 25.5677 29.2113 24.3 28.0126C23.0323 26.8138 22.3984 25.1735 22.3984 23.0914C22.3984 21.6403 22.7154 20.2944 23.3492 19.0536C23.9831 17.7918 24.8573 16.7928 25.972 16.0567C27.1086 15.3207 28.3872 14.9526 29.8079 14.9526C31.0756 14.9526 32.092 15.3207 32.8569 16.0567C33.6219 16.7718 34.0044 17.7497 34.0044 18.9905C34.0044 20.4416 33.458 21.6929 32.3652 22.7444C31.2942 23.7749 29.4691 24.5951 26.89 25.205C27.4364 26.1724 28.4746 26.6561 30.0046 26.6561C30.9882 26.6561 32.1029 26.3301 33.3487 25.6782C34.6164 25.0052 35.7093 24.1324 36.6272 23.0599C36.8895 22.7655 37.1846 22.6183 37.5125 22.6183ZM29.2506 18.0441C28.4419 18.0441 27.7534 18.4963 27.1851 19.4006C26.6387 20.3049 26.3655 21.3985 26.3655 22.6813V22.7444C27.655 22.45 28.6714 22.0084 29.4145 21.4195C30.1576 20.8307 30.5292 20.1472 30.5292 19.369C30.5292 18.9695 30.409 18.654 30.1685 18.4227C29.95 18.1703 29.644 18.0441 29.2506 18.0441Z" fill="#00B2FF"/>
<path d="M24.3923 20.0631C24.4578 20.0421 24.5671 20.0316 24.7201 20.0316C25.048 20.0316 25.2993 20.1367 25.4742 20.347C25.649 20.5573 25.7364 20.8412 25.7364 21.1987C25.7364 21.8507 25.6053 22.3659 25.343 22.7445C25.0807 23.102 24.6873 23.3649 24.1628 23.5331C23.1573 23.8486 22.0864 24.0063 20.9498 24.0063C19.9881 24.0063 19.081 23.8801 18.2286 23.6278C17.5948 24.6162 16.8954 25.6362 16.1304 26.6877C15.2561 27.8864 14.502 28.7066 13.8682 29.1483C13.2562 29.5899 12.5568 29.8107 11.7699 29.8107C10.8956 29.8107 10.229 29.4848 9.77001 28.8328C9.33288 28.1809 9.05967 27.1083 8.95038 25.6151L8.78646 23.3123C8.10889 25.0789 7.4969 26.4248 6.95048 27.3502C6.42592 28.2755 5.89042 28.9169 5.344 29.2745C4.81944 29.632 4.19652 29.8107 3.47524 29.8107C2.57911 29.8107 1.86876 29.4742 1.3442 28.8013C0.841489 28.1283 0.524565 27.0663 0.393423 25.6151C0.131141 22.6709 0 20.0946 0 17.8864V16.7823C0.0218569 16.0883 0.218569 15.6046 0.590135 15.3312C0.961702 15.0578 1.51905 14.9211 2.26218 14.9211C2.83046 14.9211 3.24574 15.0473 3.50803 15.2997C3.79216 15.531 3.93423 15.9306 3.93423 16.4984C3.93423 18.9169 4.08723 22.061 4.39323 25.9306C5.87949 22.9232 7.24555 19.7897 8.49139 16.53C8.73181 15.8991 9.01595 15.4785 9.34381 15.2681C9.69352 15.0368 10.1088 14.9211 10.5896 14.9211C11.1798 14.9211 11.5841 15.0368 11.8027 15.2681C12.0431 15.4995 12.1633 15.9096 12.1633 16.4984C12.1633 18.9169 12.3163 22.061 12.6223 25.9306C13.9337 24.0589 14.9173 22.5657 15.573 21.4511C15.2452 20.8412 15.0812 20.1157 15.0812 19.2745C15.0812 18.5594 15.2452 17.8654 15.573 17.1924C15.9009 16.5195 16.3489 15.9727 16.9172 15.5521C17.4855 15.1314 18.1303 14.9211 18.8515 14.9211C19.4854 14.9211 19.999 15.142 20.3924 15.5836C20.7859 16.0042 20.9826 16.6246 20.9826 17.4448C20.9826 18.3912 20.7203 19.4742 20.1957 20.694C21.0263 20.652 22.1301 20.4942 23.507 20.2208L24.3923 20.0631Z" fill="#00B2FF"/>
</svg>
