<svg width="28" height="29" viewBox="0 0 28 29" fill="none" xmlns="http://www.w3.org/2000/svg">
<circle cx="14" cy="14.5" r="14" fill="#00B2FF"/>
<path d="M5.77668 17.3797C5.54024 17.3797 5.37224 17.2552 5.27268 17.0063C5.17935 16.7575 5.13268 16.3592 5.13268 15.8117C5.13268 15.0028 5.24779 14.2343 5.47802 13.5063C5.53402 13.3259 5.62424 13.1952 5.74868 13.1143C5.87935 13.0272 6.05979 12.9837 6.29002 12.9837C6.41446 12.9837 6.50157 12.9992 6.55135 13.0303C6.60113 13.0615 6.62602 13.1206 6.62602 13.2077C6.62602 13.3072 6.57935 13.5312 6.48602 13.8797C6.42379 14.1286 6.37402 14.3463 6.33668 14.533C6.29935 14.7135 6.26824 14.9406 6.24335 15.2143C6.41135 14.729 6.61046 14.3183 6.84068 13.9823C7.07713 13.6463 7.31668 13.3975 7.55935 13.2357C7.80824 13.0677 8.04157 12.9837 8.25935 12.9837C8.47713 12.9837 8.62957 13.0335 8.71668 13.133C8.81002 13.2326 8.85668 13.385 8.85668 13.5903C8.85668 13.7895 8.79757 14.1503 8.67935 14.673C8.62957 14.897 8.59535 15.065 8.57668 15.177C8.88779 14.4117 9.23313 13.8548 9.61268 13.5063C9.99224 13.1579 10.3469 12.9837 10.6767 12.9837C11.0811 12.9837 11.2833 13.1859 11.2833 13.5903C11.2833 13.833 11.2149 14.2717 11.078 14.9063C10.9598 15.4477 10.9007 15.8055 10.9007 15.9797C10.9007 16.2286 10.9909 16.353 11.1713 16.353C11.2958 16.353 11.442 16.2783 11.61 16.129C11.7842 15.9735 12.0145 15.7246 12.3007 15.3823C12.3753 15.2952 12.4593 15.2517 12.5527 15.2517C12.6336 15.2517 12.6958 15.289 12.7394 15.3637C12.7891 15.4383 12.814 15.541 12.814 15.6717C12.814 15.9206 12.7549 16.1135 12.6367 16.2503C12.3691 16.5801 12.0798 16.8508 11.7687 17.0623C11.4638 17.2739 11.1153 17.3797 10.7233 17.3797C10.406 17.3797 10.1665 17.2895 10.0047 17.109C9.8429 16.9223 9.76202 16.6548 9.76202 16.3063C9.76202 16.1321 9.80557 15.821 9.89268 15.373C9.97357 14.981 10.014 14.7103 10.014 14.561C10.014 14.4615 9.97979 14.4117 9.91135 14.4117C9.83046 14.4117 9.71535 14.5175 9.56602 14.729C9.41668 14.9343 9.26735 15.2081 9.11802 15.5503C8.96868 15.8926 8.84735 16.2535 8.75402 16.633C8.68557 16.9317 8.60468 17.1308 8.51135 17.2303C8.42424 17.3299 8.28113 17.3797 8.08202 17.3797C7.87668 17.3797 7.72113 17.2832 7.61535 17.0903C7.51579 16.8912 7.46602 16.6517 7.46602 16.3717C7.46602 16.1352 7.49713 15.793 7.55935 15.345C7.60913 14.9468 7.63402 14.6855 7.63402 14.561C7.63402 14.4615 7.59979 14.4117 7.53135 14.4117C7.43802 14.4117 7.31979 14.5237 7.17668 14.7477C7.03357 14.9717 6.89357 15.2579 6.75668 15.6063C6.62602 15.9548 6.52024 16.297 6.43935 16.633C6.3709 16.9255 6.29002 17.1246 6.19668 17.2303C6.10957 17.3299 5.96957 17.3797 5.77668 17.3797ZM16.222 15.2517C16.3029 15.2517 16.3651 15.289 16.4087 15.3637C16.4584 15.4383 16.4833 15.541 16.4833 15.6717C16.4833 15.9206 16.4242 16.1135 16.306 16.2503C16.0758 16.5303 15.7491 16.7886 15.326 17.025C14.9091 17.2615 14.4611 17.3797 13.982 17.3797C13.3287 17.3797 12.8216 17.2023 12.4607 16.8477C12.0998 16.493 11.9193 16.0077 11.9193 15.3917C11.9193 14.9623 12.0096 14.5641 12.19 14.197C12.3704 13.8237 12.6193 13.5281 12.9367 13.3103C13.2602 13.0926 13.6242 12.9837 14.0287 12.9837C14.3896 12.9837 14.6789 13.0926 14.8967 13.3103C15.1144 13.5219 15.2233 13.8112 15.2233 14.1783C15.2233 14.6077 15.0678 14.9779 14.7567 15.289C14.4518 15.5939 13.9322 15.8366 13.198 16.017C13.3536 16.3032 13.6491 16.4463 14.0847 16.4463C14.3647 16.4463 14.682 16.3499 15.0367 16.157C15.3976 15.9579 15.7087 15.6997 15.97 15.3823C16.0447 15.2952 16.1287 15.2517 16.222 15.2517ZM13.87 13.8983C13.6398 13.8983 13.4438 14.0321 13.282 14.2997C13.1264 14.5672 13.0487 14.8908 13.0487 15.2703V15.289C13.4158 15.2019 13.7051 15.0712 13.9167 14.897C14.1282 14.7228 14.234 14.5206 14.234 14.2903C14.234 14.1721 14.1998 14.0788 14.1313 14.0103C14.0691 13.9357 13.982 13.8983 13.87 13.8983ZM19.8861 15.2517C19.9669 15.2517 20.0292 15.289 20.0727 15.3637C20.1225 15.4383 20.1474 15.541 20.1474 15.6717C20.1474 15.9206 20.0883 16.1135 19.9701 16.2503C19.7398 16.5303 19.4132 16.7886 18.9901 17.025C18.5732 17.2615 18.1252 17.3797 17.6461 17.3797C16.9927 17.3797 16.4856 17.2023 16.1247 16.8477C15.7638 16.493 15.5834 16.0077 15.5834 15.3917C15.5834 14.9623 15.6736 14.5641 15.8541 14.197C16.0345 13.8237 16.2834 13.5281 16.6007 13.3103C16.9243 13.0926 17.2883 12.9837 17.6927 12.9837C18.0536 12.9837 18.3429 13.0926 18.5607 13.3103C18.7785 13.5219 18.8874 13.8112 18.8874 14.1783C18.8874 14.6077 18.7318 14.9779 18.4207 15.289C18.1158 15.5939 17.5963 15.8366 16.8621 16.017C17.0176 16.3032 17.3132 16.4463 17.7487 16.4463C18.0287 16.4463 18.3461 16.3499 18.7007 16.157C19.0616 15.9579 19.3727 15.6997 19.6341 15.3823C19.7087 15.2952 19.7927 15.2517 19.8861 15.2517ZM17.5341 13.8983C17.3038 13.8983 17.1078 14.0321 16.9461 14.2997C16.7905 14.5672 16.7127 14.8908 16.7127 15.2703V15.289C17.0798 15.2019 17.3692 15.0712 17.5807 14.897C17.7923 14.7228 17.8981 14.5206 17.8981 14.2903C17.8981 14.1721 17.8638 14.0788 17.7954 14.0103C17.7332 13.9357 17.6461 13.8983 17.5341 13.8983ZM20.9275 13.8703C20.915 14.1815 20.9088 14.4241 20.9088 14.5983C20.9088 15.0463 20.9306 15.3979 20.9741 15.653C21.0239 15.9019 21.1017 16.0823 21.2075 16.1943C21.3195 16.3001 21.4719 16.353 21.6648 16.353C21.7643 16.353 21.8826 16.3219 22.0195 16.2597C22.1563 16.1975 22.2808 16.1166 22.3928 16.017C22.4612 15.9548 22.5297 15.9237 22.5981 15.9237C22.6728 15.9237 22.7319 15.9672 22.7755 16.0543C22.8252 16.1352 22.8501 16.2348 22.8501 16.353C22.8501 16.4712 22.8252 16.5863 22.7755 16.6983C22.7319 16.8103 22.6635 16.9037 22.5701 16.9783C22.2466 17.2459 21.8795 17.3797 21.4688 17.3797C20.8777 17.3797 20.4452 17.1339 20.1715 16.6423C19.8977 16.1446 19.7608 15.4975 19.7608 14.701C19.7608 14.4272 19.7701 14.1503 19.7888 13.8703H19.4248C19.2381 13.8703 19.1106 13.8361 19.0421 13.7677C18.9799 13.6992 18.9488 13.5903 18.9488 13.441C18.9488 13.0926 19.0888 12.9183 19.3688 12.9183H19.9008C20.0066 12.2339 20.1683 11.6086 20.3861 11.0423C20.6039 10.4761 20.8652 10.025 21.1701 9.68901C21.4812 9.35301 21.8141 9.18501 22.1688 9.18501C22.4301 9.18501 22.6355 9.30012 22.7848 9.53034C22.9341 9.76056 23.0088 10.0499 23.0088 10.3983C23.0088 11.3628 22.6043 12.2028 21.7955 12.9183H22.8408C22.9403 12.9183 23.0119 12.9401 23.0555 12.9837C23.099 13.0272 23.1208 13.1081 23.1208 13.2263C23.1208 13.6557 22.7692 13.8703 22.0661 13.8703H20.9275ZM21.9168 10.081C21.8235 10.081 21.7177 10.1992 21.5995 10.4357C21.4875 10.6659 21.3786 10.9895 21.2728 11.4063C21.1732 11.817 21.0892 12.2743 21.0208 12.7783C21.3879 12.461 21.6617 12.1063 21.8421 11.7143C22.0288 11.3161 22.1221 10.9552 22.1221 10.6317C22.1221 10.2646 22.0537 10.081 21.9168 10.081Z" fill="#FAFAFA"/>
</svg>
