<svg width="174" height="41" viewBox="0 0 174 41" fill="none" xmlns="http://www.w3.org/2000/svg">
<g clip-path="url(#clip0_882_9099)">
<path d="M31.6833 19.5669C28.1212 17.1473 23.5548 18.1341 21.158 21.7717C19.1579 24.8106 16.1371 25.1904 14.9635 25.1904C11.1534 25.1904 8.54173 22.5108 7.76896 19.7362C7.7607 19.7073 7.75657 19.6866 7.7483 19.6577C7.74004 19.6247 7.73177 19.5958 7.72351 19.5627C7.42184 18.4066 7.34332 17.8534 7.34332 16.623C7.34332 9.99194 14.1494 2.60947 23.9598 2.60947C33.7702 2.60947 39.7457 10.2479 41.2292 14.4924C41.2044 14.4181 41.1796 14.3438 41.1548 14.2654C38.3035 5.97039 30.4229 0 21.1456 0C9.47152 0 0 9.45932 0 21.1276C0 31.5572 7.52928 40.488 17.9719 40.488C26.3029 40.488 31.8982 35.8224 34.4686 29.3895C35.8777 25.8717 34.8777 21.7387 31.6792 19.5669H31.6833Z" fill="#003763"/>
<path d="M41.3612 14.9094C40.1256 10.7681 34.336 2.61353 23.9595 2.61353C14.1491 2.61353 7.34302 9.996 7.34302 16.627C7.34302 17.8574 7.4174 18.4107 7.7232 19.5668C7.5951 19.0589 7.52898 18.5552 7.52898 18.0598C7.52898 11.1562 14.4508 6.37083 21.5627 6.37083C31.1913 6.37083 38.9974 14.1703 38.9974 23.7907C38.9974 31.3342 34.6542 37.8578 28.3399 40.9958C36.4766 38.056 42.2868 30.273 42.2868 21.1275C42.2868 18.964 41.9976 17.0564 41.357 14.9094H41.3612Z" fill="#E4022D"/>
<path d="M57.2797 12.6267L62.4907 20.9382L60.8253 21.9993L57.2838 16.2065L53.8002 22.1521L52.0935 21.0744L57.2838 12.6308L57.2797 12.6267ZM55.2507 23.6261V27.4123H66.619V29.2662H53.1473V23.6261H55.2507ZM66.181 23.5311H64.0982V12.7217H66.181V16.6028H68.6067V18.6673H66.181V23.5311Z" fill="#575756"/>
<path d="M79.0081 16.9458C79.0081 17.5032 78.8965 18.0234 78.6651 18.5065C78.4378 18.9937 78.1361 19.419 77.756 19.7823C77.3634 20.1498 76.9088 20.4388 76.3923 20.6535C75.8757 20.8682 75.3261 20.9756 74.7434 20.9756C74.1607 20.9756 73.6153 20.8682 73.0946 20.6535C72.578 20.4388 72.1235 20.1498 71.7309 19.7823C71.3507 19.419 71.049 18.9896 70.8218 18.5065C70.5945 18.0193 70.4788 17.4991 70.4788 16.9458C70.4788 16.3925 70.5945 15.8681 70.8218 15.3727C71.049 14.8813 71.3507 14.4602 71.7309 14.1051C72.1235 13.7252 72.578 13.4321 73.0946 13.2133C73.6111 12.9986 74.1607 12.8912 74.7434 12.8912C75.3261 12.8912 75.8757 12.9986 76.3923 13.2133C76.9088 13.428 77.3634 13.7252 77.756 14.1051C78.1361 14.4602 78.4378 14.8813 78.6651 15.3727C78.8924 15.864 79.0081 16.3884 79.0081 16.9458ZM71.7144 21.9211H73.7806V23.5851H82.9298V21.9211H84.996V29.2664H71.7144V21.9211ZM76.9997 16.9458C76.9997 16.3265 76.7766 15.798 76.3344 15.3562C75.8922 14.9144 75.3633 14.6955 74.7434 14.6955C74.1236 14.6955 73.5987 14.9185 73.1607 15.3562C72.7268 15.798 72.5078 16.3265 72.5078 16.9458C72.5078 17.5651 72.7268 18.0895 73.1607 18.5272C73.5946 18.9607 74.1236 19.1795 74.7434 19.1795C75.3633 19.1795 75.8922 18.9607 76.3344 18.5272C76.7766 18.0895 76.9997 17.5651 76.9997 16.9458ZM82.9298 25.2366H73.7806V27.5653H82.9298V25.2366ZM82.8926 12.7219H84.996V20.7485H82.8926V17.5693H80.0329V15.7319H82.8926V12.7219Z" fill="#575756"/>
<path d="M103.41 22.3751H87.8762V20.6533H94.6038V19.555H89.1283V12.9116H102.145V14.6334H91.178V15.4674H102.145V17.0364H91.178V17.8869H102.187V19.555H96.6742V20.6533H103.418V22.3751H103.41ZM99.7941 26.5205C99.7941 27.049 99.6826 27.5486 99.4636 28.0151C99.2404 28.4817 98.947 28.8863 98.5833 29.2249C98.2032 29.58 97.7693 29.8608 97.2775 30.0672C96.7857 30.2737 96.2527 30.381 95.6865 30.381C95.1204 30.381 94.5832 30.2778 94.0873 30.0672C93.5872 29.8608 93.1492 29.58 92.769 29.2249C92.4012 28.8822 92.1078 28.4817 91.8888 28.0151C91.6657 27.5486 91.5582 27.049 91.5582 26.5205C91.5582 25.992 91.6698 25.4965 91.8888 25.0341C92.1078 24.5716 92.4012 24.1711 92.769 23.8326C93.1492 23.4775 93.5872 23.1967 94.0873 22.9903C94.5873 22.7838 95.1204 22.6765 95.6865 22.6765C96.2527 22.6765 96.7857 22.7797 97.2775 22.9903C97.7693 23.1967 98.2073 23.4775 98.5833 23.8326C98.9511 24.1753 99.2445 24.5716 99.4636 25.0341C99.6826 25.4965 99.7941 25.992 99.7941 26.5205ZM97.7651 26.504C97.7651 25.9342 97.5626 25.447 97.1577 25.0382C96.7527 24.6294 96.2609 24.423 95.6782 24.423C95.0956 24.423 94.5997 24.6294 94.1906 25.0382C93.7773 25.447 93.5748 25.9383 93.5748 26.504C93.5748 27.0696 93.7815 27.5568 94.1906 27.9615C94.5997 28.3661 95.0956 28.5684 95.6782 28.5684C96.2609 28.5684 96.7527 28.3661 97.1577 27.9615C97.5626 27.5568 97.7651 27.0738 97.7651 26.504Z" fill="#575756"/>
<path d="M113.563 21.0702L110.038 15.9421L106.534 21.2065L104.848 20.0917L110.038 12.5193L115.249 19.9224L113.563 21.0785V21.0702ZM118.225 26.0125C118.225 26.5823 118.109 27.115 117.874 27.6104C117.638 28.11 117.332 28.5477 116.952 28.9275C116.547 29.3074 116.08 29.6047 115.543 29.8276C115.006 30.0465 114.44 30.158 113.844 30.158C113.249 30.158 112.683 30.0465 112.138 29.8276C111.596 29.6047 111.121 29.3074 110.716 28.9275C110.324 28.5477 110.014 28.11 109.778 27.6104C109.543 27.1108 109.427 26.5782 109.427 26.0125C109.427 25.4469 109.543 24.9101 109.778 24.4147C110.01 23.9151 110.324 23.4774 110.716 23.0975C111.121 22.7177 111.592 22.4204 112.138 22.1974C112.679 21.9786 113.249 21.8671 113.844 21.8671C114.44 21.8671 115.002 21.9786 115.543 22.1974C116.08 22.4163 116.551 22.7177 116.952 23.0975C117.332 23.4774 117.638 23.9151 117.874 24.4147C118.105 24.9143 118.225 25.4469 118.225 26.0125ZM116.175 25.9919C116.175 25.3602 115.944 24.8193 115.473 24.3651C115.006 23.9109 114.456 23.6838 113.824 23.6838C113.192 23.6838 112.646 23.9109 112.187 24.3651C111.725 24.8193 111.497 25.3643 111.497 25.9919C111.497 26.6195 111.729 27.181 112.187 27.6311C112.65 28.077 113.196 28.3041 113.824 28.3041C114.452 28.3041 115.006 28.0811 115.473 27.6311C115.94 27.1851 116.175 26.636 116.175 25.9919ZM119.076 15.7316H121.502V17.796H119.076V21.3758H116.993V12.7257H119.076V15.7357V15.7316Z" fill="#575756"/>
<path d="M122.807 15.6204V13.7665H132.886V15.6204H128.642L133.341 26.657L131.502 27.4538L127.882 18.8203L124.32 27.586L122.427 26.7932L127.126 15.6245H122.807V15.6204ZM136.771 29.6091H134.688V12.7219H136.771V19.2704H139.196V21.372H136.771V29.605V29.6091Z" fill="#575756"/>
<path d="M147.268 22.4534V24.7243H145.185V22.4534H140.582V20.711H151.855V22.4534H147.272H147.268ZM143.743 23.9274V27.4494H155.814V29.2661H141.644V23.9274H143.747H143.743ZM150.127 16.3014C150.127 16.8175 150.016 17.3088 149.797 17.7671C149.574 18.2296 149.28 18.6342 148.913 18.9893C148.545 19.332 148.119 19.6004 147.623 19.8027C147.131 20.005 146.607 20.1041 146.049 20.1041C145.491 20.1041 144.97 20.005 144.474 19.8027C143.983 19.6004 143.544 19.3278 143.168 18.9893C142.813 18.6342 142.528 18.2296 142.309 17.7671C142.086 17.3047 141.974 16.8175 141.974 16.3014C141.974 15.7852 142.086 15.298 142.309 14.8439C142.528 14.3897 142.817 13.985 143.168 13.6341C143.549 13.279 143.983 13.0065 144.474 12.8124C144.966 12.6184 145.491 12.5193 146.049 12.5193C146.607 12.5193 147.127 12.6184 147.623 12.8124C148.115 13.0065 148.545 13.2831 148.913 13.6341C149.28 13.9892 149.574 14.3897 149.797 14.8439C150.016 15.298 150.127 15.7852 150.127 16.3014ZM148.14 16.3179C148.14 15.7481 147.937 15.2691 147.532 14.8686C147.127 14.4723 146.636 14.2741 146.053 14.2741C145.47 14.2741 144.978 14.4723 144.573 14.8686C144.168 15.265 143.966 15.7481 143.966 16.3179C143.966 16.8877 144.168 17.3666 144.573 17.7671C144.978 18.1635 145.47 18.3617 146.053 18.3617C146.636 18.3617 147.127 18.1635 147.532 17.7671C147.937 17.3707 148.14 16.8877 148.14 16.3179ZM153.272 19.2329H150.867V17.5111H153.272V12.7216H155.355V24.9143H153.272V19.237V19.2329Z" fill="#575756"/>
<path d="M158.462 23.3868H173.996V25.2407H167.269V29.5926H165.165V25.2407H158.458V23.3868H158.462ZM161.781 15.1332H170.665V12.9944H172.748V21.1159H159.715V12.9944H161.781V15.1332ZM170.665 16.9499H161.781V19.2786H170.665V16.9499Z" fill="#575756"/>
</g>
<defs>
<clipPath id="clip0_882_9099">
<rect width="174" height="41" fill="white"/>
</clipPath>
</defs>
</svg>
