<svg width="202" height="202" viewBox="0 0 202 202" fill="none" xmlns="http://www.w3.org/2000/svg">
<path fill-rule="evenodd" clip-rule="evenodd" d="M29.0057 162.554V163.06C29.0057 164.15 28.5725 165.196 27.8014 165.967C27.0303 166.738 25.9845 167.171 24.8941 167.171H18.7267C17.6362 167.171 16.5904 166.738 15.8194 165.967C15.0483 165.196 14.6151 164.15 14.6151 163.06V140.456C14.6151 139.366 15.0483 138.32 15.8194 137.549C16.5904 136.778 17.6362 136.345 18.7267 136.345H24.8941C25.82 136.344 26.719 136.656 27.4455 137.231C28.1719 137.805 28.6833 138.607 28.8967 139.508C31.6186 138.528 34.7989 137.36 35.7713 136.916C36.5977 136.54 37.5516 136.412 38.3451 136.365C39.1641 136.325 39.9848 136.339 40.8018 136.408C41.7165 136.483 42.6275 136.598 43.5319 136.754L43.5792 136.762L43.5936 136.764L43.6367 136.772L57.39 139.856L57.4743 139.885L57.4969 139.893L57.5915 139.922L57.98 140.033C58.3192 140.127 58.8064 140.253 59.3882 140.38C60.5703 140.637 62.0607 140.878 63.4484 140.878C64.7312 140.878 66.0593 141.357 66.7665 142.656C67.375 143.77 67.2331 144.995 67.007 145.842C66.7212 146.899 66.1333 148.009 65.387 148.953C66.3944 148.572 67.4983 148.122 68.6824 147.637L68.9353 147.534C72.2719 146.163 76.2272 144.539 79.7179 143.963C83.7062 143.303 86.6069 144.751 87.9226 147.318C89.0944 149.604 88.823 152.604 87.0592 154.411C86.6172 154.865 85.9429 155.342 85.2665 155.78C84.5429 156.251 83.6527 156.779 82.6639 157.342C80.3921 158.614 78.0925 159.836 75.7667 161.006C70.8904 163.479 65.7797 165.884 64.1556 166.478C62.2725 167.167 60.2496 167.233 58.3069 167.132C57.1337 167.059 55.9622 166.96 54.7935 166.834C53.9379 166.745 53.0812 166.667 52.2238 166.598C48.2602 166.297 45.2176 165.329 42.4176 164.439L42.0764 164.33C39.1818 163.413 36.4887 162.597 32.9219 162.453C32.1078 162.42 30.4797 162.484 29.0057 162.554ZM37.4755 140.656C37.6092 140.594 37.9586 140.505 38.5815 140.468C39.1654 140.434 39.8315 140.456 40.4831 140.505C41.2628 140.569 42.0393 140.667 42.8103 140.799L56.3169 143.828L56.4094 143.856C56.5231 143.892 56.6807 143.937 56.8822 143.992C57.281 144.103 57.8443 144.249 58.5124 144.395C59.7151 144.658 61.3289 144.934 62.9694 144.981C62.8233 145.376 62.6271 145.752 62.3856 146.097C62.0566 146.574 61.6969 146.942 61.4008 147.154C60.5456 147.767 59.8549 148.021 59.4355 148.13C59.2927 148.17 59.147 148.197 58.9997 148.213H58.9544L47.9313 148.081L47.5407 152.16L47.6496 152.18L49.1072 152.437C50.0672 152.606 51.385 152.832 52.82 153.066C55.6446 153.527 59.049 154.037 60.9815 154.154C62.3177 154.236 63.8719 153.825 65.3171 153.342C66.824 152.838 68.5283 152.141 70.2428 151.438C73.7726 149.991 77.3682 148.517 80.3881 148.017C82.999 147.586 83.9303 148.54 84.2633 149.191C84.7423 150.127 84.4833 151.165 84.1153 151.539C84.0269 151.631 83.7041 151.893 83.0298 152.33C82.4007 152.735 81.5887 153.223 80.6348 153.763C78.4192 155.004 76.1764 156.195 73.9083 157.336C68.9908 159.83 64.098 162.118 62.7412 162.616C61.6434 163.018 60.2845 163.115 58.5186 163.025C57.4783 162.963 56.4398 162.875 55.4041 162.759C54.4487 162.659 53.492 162.571 52.5342 162.496C49.0558 162.233 46.4121 161.392 43.5771 160.492L43.3201 160.41C40.3845 159.478 37.2432 158.51 33.0885 158.344C32.1531 158.307 30.4879 158.364 29.0057 158.434V143.836C31.8961 142.802 36.1742 141.25 37.4755 140.656ZM24.8941 140.454H18.7267V163.058H24.8941V140.454Z" fill="#00B2FF"/>
<path fill-rule="evenodd" clip-rule="evenodd" d="M172.97 162.554V163.06C172.97 164.15 173.403 165.196 174.174 165.967C174.945 166.738 175.991 167.171 177.082 167.171H183.249C184.339 167.171 185.385 166.738 186.156 165.967C186.927 165.196 187.361 164.15 187.361 163.06V140.456C187.361 139.366 186.927 138.32 186.156 137.549C185.385 136.778 184.339 136.345 183.249 136.345H177.082C176.156 136.344 175.257 136.656 174.53 137.231C173.804 137.805 173.292 138.607 173.079 139.508C170.357 138.528 167.177 137.36 166.204 136.916C165.378 136.54 164.424 136.412 163.631 136.365C162.812 136.325 161.991 136.339 161.174 136.408C160.259 136.483 159.348 136.598 158.444 136.754L158.397 136.762L158.382 136.764L158.339 136.772L144.586 139.856L144.501 139.885L144.479 139.893L144.384 139.922L143.996 140.033C143.656 140.127 143.169 140.253 142.587 140.38C141.405 140.637 139.915 140.878 138.527 140.878C137.244 140.878 135.916 141.357 135.209 142.656C134.601 143.77 134.743 144.995 134.969 145.842C135.254 146.899 135.842 148.009 136.589 148.953C135.581 148.572 134.477 148.122 133.293 147.637L133.04 147.534C129.704 146.163 125.748 144.539 122.258 143.963C118.27 143.303 115.369 144.751 114.053 147.318C112.881 149.604 113.153 152.604 114.917 154.411C115.359 154.865 116.033 155.342 116.709 155.78C117.433 156.251 118.323 156.779 119.312 157.342C121.584 158.614 123.883 159.836 126.209 161.006C131.085 163.479 136.196 165.884 137.82 166.478C139.703 167.167 141.726 167.233 143.669 167.132C144.842 167.059 146.013 166.96 147.182 166.834C148.038 166.745 148.894 166.667 149.752 166.598C153.715 166.297 156.758 165.329 159.558 164.439L159.899 164.33C162.794 163.413 165.487 162.597 169.054 162.453C169.868 162.42 171.496 162.484 172.97 162.554ZM164.5 140.656C164.367 140.594 164.017 140.505 163.394 140.468C162.81 140.434 162.144 140.456 161.493 140.505C160.713 140.569 159.936 140.667 159.165 140.799L145.659 143.828L145.566 143.856C145.453 143.892 145.295 143.937 145.094 143.992C144.695 144.103 144.131 144.249 143.463 144.395C142.261 144.658 140.647 144.934 139.006 144.981C139.152 145.376 139.349 145.752 139.59 146.097C139.919 146.574 140.279 146.942 140.575 147.154C141.43 147.767 142.121 148.021 142.54 148.13C142.683 148.17 142.829 148.197 142.976 148.213H143.021L154.044 148.081L154.435 152.16L154.326 152.18L152.869 152.437C151.908 152.606 150.591 152.832 149.156 153.066C146.331 153.527 142.927 154.037 140.994 154.154C139.658 154.236 138.104 153.825 136.659 153.342C135.152 152.838 133.447 152.141 131.733 151.438C128.203 149.991 124.608 148.517 121.588 148.017C118.977 147.586 118.045 148.54 117.712 149.191C117.233 150.127 117.492 151.165 117.86 151.539C117.949 151.631 118.272 151.893 118.946 152.33C119.575 152.735 120.387 153.223 121.341 153.763C123.557 155.004 125.799 156.195 128.067 157.336C132.985 159.83 137.878 162.118 139.234 162.616C140.332 163.018 141.691 163.115 143.457 163.025C144.497 162.963 145.536 162.875 146.572 162.759C147.527 162.659 148.484 162.571 149.441 162.496C152.92 162.233 155.564 161.392 158.399 160.492L158.656 160.41C161.591 159.478 164.732 158.51 168.887 158.344C169.823 158.307 171.488 158.364 172.97 158.434V143.836C170.08 142.802 165.801 141.25 164.5 140.656ZM177.082 140.454H183.249V163.058H177.082V140.454Z" fill="#00B2FF"/>
<path d="M64.1604 62.1154V117.755C64.1604 118.698 64.4638 119.473 65.0705 120.08C65.6772 120.687 66.454 120.99 67.4009 120.99H134.571C135.514 120.99 136.29 120.687 136.896 120.08C137.503 119.473 137.806 118.698 137.806 117.755V62.1154H116.765V97.8231L100.983 89.9325L85.2021 97.8231V62.1154H64.1604ZM67.4009 126.25C65.0442 126.25 63.0382 125.423 61.3829 123.767C59.7277 122.112 58.9 120.108 58.9 117.755V60.4216C58.9 59.3975 59.0631 58.4331 59.3892 57.5283C59.7154 56.6235 60.2064 55.7906 60.8622 55.0296L69.0579 45.1926C69.8189 44.1651 70.771 43.3901 71.9143 42.8675C73.0576 42.345 74.2832 42.0837 75.5913 42.0837H126.175C127.48 42.0837 128.722 42.345 129.9 42.8675C131.078 43.3901 132.048 44.1634 132.809 45.1874L141.105 55.2348C141.76 55.9958 142.251 56.8462 142.577 57.7861C142.904 58.7224 143.067 59.7044 143.067 60.7319V117.755C143.067 120.104 142.239 122.109 140.584 123.767C138.928 125.423 136.924 126.25 134.571 126.25H67.4009ZM66.1594 56.855H135.702L128.706 48.4488C128.366 48.1122 127.976 47.8439 127.538 47.644C127.1 47.4441 126.644 47.3442 126.17 47.3442H75.6913C75.2213 47.3442 74.7654 47.4459 74.3236 47.6493C73.8817 47.8527 73.4959 48.1227 73.1663 48.4594L66.1594 56.855ZM90.4573 62.1154V89.2223L100.978 83.9619L111.499 89.2223V62.1207L90.4573 62.1154Z" fill="#00B2FF"/>
</svg>
