<svg width="202" height="202" viewBox="0 0 202 202" fill="none" xmlns="http://www.w3.org/2000/svg">
<path fill-rule="evenodd" clip-rule="evenodd" d="M29.0058 162.554V163.06C29.0058 164.15 28.5726 165.196 27.8015 165.967C27.0305 166.738 25.9847 167.171 24.8942 167.171H18.7268C17.6364 167.171 16.5906 166.738 15.8195 165.967C15.0484 165.196 14.6152 164.15 14.6152 163.06V140.456C14.6152 139.366 15.0484 138.32 15.8195 137.549C16.5906 136.778 17.6364 136.345 18.7268 136.345H24.8942C25.8202 136.344 26.7192 136.656 27.4456 137.231C28.172 137.805 28.6834 138.607 28.8968 139.508C31.6187 138.528 34.799 137.36 35.7714 136.916C36.5978 136.54 37.5517 136.412 38.3452 136.365C39.1642 136.325 39.9849 136.339 40.8019 136.408C41.7166 136.483 42.6276 136.598 43.532 136.754L43.5793 136.762L43.5937 136.764L43.6369 136.772L57.3901 139.856L57.4744 139.885L57.497 139.893L57.5916 139.922L57.9801 140.033C58.3193 140.127 58.8065 140.253 59.3883 140.38C60.5704 140.637 62.0609 140.878 63.4485 140.878C64.7313 140.878 66.0594 141.357 66.7666 142.656C67.3751 143.77 67.2332 144.995 67.0071 145.842C66.7213 146.899 66.1334 148.009 65.3871 148.953C66.3945 148.572 67.4984 148.122 68.6826 147.637L68.9354 147.534C72.272 146.163 76.2273 144.539 79.7181 143.963C83.7063 143.303 86.607 144.751 87.9227 147.318C89.0945 149.604 88.8232 152.604 87.0593 154.411C86.6173 154.865 85.943 155.342 85.2667 155.78C84.543 156.251 83.6529 156.779 82.664 157.342C80.3922 158.614 78.0926 159.836 75.7668 161.006C70.8905 163.479 65.7798 165.884 64.1557 166.478C62.2726 167.167 60.2497 167.233 58.307 167.132C57.1338 167.059 55.9624 166.96 54.7936 166.834C53.938 166.745 53.0814 166.667 52.2239 166.598C48.2603 166.297 45.2178 165.329 42.4178 164.439L42.0765 164.33C39.182 163.413 36.4889 162.597 32.9221 162.453C32.108 162.42 30.4798 162.484 29.0058 162.554ZM37.4756 140.656C37.6093 140.594 37.9588 140.505 38.5817 140.468C39.1655 140.434 39.8316 140.456 40.4833 140.505C41.2629 140.569 42.0394 140.667 42.8104 140.799L56.317 143.828L56.4095 143.856C56.5232 143.892 56.6809 143.937 56.8823 143.992C57.2811 144.103 57.8444 144.249 58.5126 144.395C59.7152 144.658 61.329 144.934 62.9695 144.981C62.8234 145.376 62.6272 145.752 62.3857 146.097C62.0568 146.574 61.697 146.942 61.401 147.154C60.5457 147.767 59.855 148.021 59.4356 148.13C59.2929 148.17 59.1471 148.197 58.9998 148.213H58.9546L47.9314 148.081L47.5408 152.16L47.6498 152.18L49.1073 152.437C50.0674 152.606 51.3851 152.832 52.8201 153.066C55.6447 153.527 59.0491 154.037 60.9816 154.154C62.3178 154.236 63.872 153.825 65.3172 153.342C66.8241 152.838 68.5284 152.141 70.2429 151.438C73.7727 149.991 77.3683 148.517 80.3883 148.017C82.9991 147.586 83.9304 148.54 84.2634 149.191C84.7424 150.127 84.4834 151.165 84.1154 151.539C84.027 151.631 83.7042 151.893 83.0299 152.33C82.4009 152.735 81.5888 153.223 80.6349 153.763C78.4193 155.004 76.1766 156.195 73.9084 157.336C68.9909 159.83 64.0982 162.118 62.7413 162.616C61.6435 163.018 60.2847 163.115 58.5187 163.025C57.4784 162.963 56.4399 162.875 55.4042 162.759C54.4488 162.659 53.4921 162.571 52.5343 162.496C49.0559 162.233 46.4122 161.392 43.5772 160.492L43.3203 160.41C40.3846 159.478 37.2433 158.51 33.0886 158.344C32.1532 158.307 30.488 158.364 29.0058 158.434V143.836C31.8962 142.802 36.1743 141.25 37.4756 140.656ZM24.8942 140.454H18.7268V163.058H24.8942V140.454Z" fill="white"/>
<path fill-rule="evenodd" clip-rule="evenodd" d="M172.97 162.554V163.06C172.97 164.15 173.403 165.196 174.174 165.967C174.945 166.738 175.991 167.171 177.082 167.171H183.249C184.34 167.171 185.385 166.738 186.156 165.967C186.928 165.196 187.361 164.15 187.361 163.06V140.456C187.361 139.366 186.928 138.32 186.156 137.549C185.385 136.778 184.34 136.345 183.249 136.345H177.082C176.156 136.344 175.257 136.656 174.53 137.231C173.804 137.805 173.293 138.607 173.079 139.508C170.357 138.528 167.177 137.36 166.205 136.916C165.378 136.54 164.424 136.412 163.631 136.365C162.812 136.325 161.991 136.339 161.174 136.408C160.259 136.483 159.348 136.598 158.444 136.754L158.397 136.762L158.382 136.764L158.339 136.772L144.586 139.856L144.502 139.885L144.479 139.893L144.384 139.922L143.996 140.033C143.657 140.127 143.169 140.253 142.588 140.38C141.406 140.637 139.915 140.878 138.527 140.878C137.245 140.878 135.917 141.357 135.209 142.656C134.601 143.77 134.743 144.995 134.969 145.842C135.255 146.899 135.843 148.009 136.589 148.953C135.581 148.572 134.478 148.122 133.293 147.637L133.041 147.534C129.704 146.163 125.749 144.539 122.258 143.963C118.27 143.303 115.369 144.751 114.053 147.318C112.881 149.604 113.153 152.604 114.917 154.411C115.359 154.865 116.033 155.342 116.709 155.78C117.433 156.251 118.323 156.779 119.312 157.342C121.584 158.614 123.883 159.836 126.209 161.006C131.085 163.479 136.196 165.884 137.82 166.478C139.703 167.167 141.726 167.233 143.669 167.132C144.842 167.059 146.014 166.96 147.182 166.834C148.038 166.745 148.895 166.667 149.752 166.598C153.716 166.297 156.758 165.329 159.558 164.439L159.899 164.33C162.794 163.413 165.487 162.597 169.054 162.453C169.868 162.42 171.496 162.484 172.97 162.554ZM164.5 140.656C164.367 140.594 164.017 140.505 163.394 140.468C162.81 140.434 162.144 140.456 161.493 140.505C160.713 140.569 159.937 140.667 159.166 140.799L145.659 143.828L145.566 143.856C145.453 143.892 145.295 143.937 145.094 143.992C144.695 144.103 144.132 144.249 143.463 144.395C142.261 144.658 140.647 144.934 139.006 144.981C139.153 145.376 139.349 145.752 139.59 146.097C139.919 146.574 140.279 146.942 140.575 147.154C141.43 147.767 142.121 148.021 142.54 148.13C142.683 148.17 142.829 148.197 142.976 148.213H143.021L154.045 148.081L154.435 152.16L154.326 152.18L152.869 152.437C151.909 152.606 150.591 152.832 149.156 153.066C146.331 153.527 142.927 154.037 140.994 154.154C139.658 154.236 138.104 153.825 136.659 153.342C135.152 152.838 133.448 152.141 131.733 151.438C128.203 149.991 124.608 148.517 121.588 148.017C118.977 147.586 118.046 148.54 117.713 149.191C117.234 150.127 117.493 151.165 117.861 151.539C117.949 151.631 118.272 151.893 118.946 152.33C119.575 152.735 120.387 153.223 121.341 153.763C123.557 155.004 125.799 156.195 128.068 157.336C132.985 159.83 137.878 162.118 139.235 162.616C140.332 163.018 141.691 163.115 143.457 163.025C144.498 162.963 145.536 162.875 146.572 162.759C147.527 162.659 148.484 162.571 149.442 162.496C152.92 162.233 155.564 161.392 158.399 160.492L158.656 160.41C161.591 159.478 164.733 158.51 168.887 158.344C169.823 158.307 171.488 158.364 172.97 158.434V143.836C170.08 142.802 165.802 141.25 164.5 140.656ZM177.082 140.454H183.249V163.058H177.082V140.454Z" fill="white"/>
<path d="M64.1603 62.1154V117.755C64.1603 118.698 64.4637 119.473 65.0704 120.08C65.6771 120.687 66.4539 120.99 67.4007 120.99H134.571C135.514 120.99 136.289 120.687 136.896 120.08C137.503 119.473 137.806 118.698 137.806 117.755V62.1154H116.764V97.8231L100.983 89.9325L85.202 97.8231V62.1154H64.1603ZM67.4007 126.25C65.0441 126.25 63.0381 125.423 61.3828 123.767C59.7275 122.112 58.8999 120.108 58.8999 117.755V60.4216C58.8999 59.3975 59.063 58.4331 59.3891 57.5283C59.7153 56.6235 60.2062 55.7906 60.862 55.0296L69.0578 45.1926C69.8188 44.1651 70.7709 43.3901 71.9142 42.8675C73.0574 42.345 74.2831 42.0837 75.5912 42.0837H126.175C127.48 42.0837 128.721 42.345 129.9 42.8675C131.078 43.3901 132.048 44.1634 132.809 45.1874L141.104 55.2348C141.76 55.9958 142.251 56.8462 142.577 57.7861C142.903 58.7224 143.067 59.7044 143.067 60.7319V117.755C143.067 120.104 142.239 122.109 140.584 123.767C138.928 125.423 136.924 126.25 134.571 126.25H67.4007ZM66.1593 56.855H135.702L128.706 48.4488C128.365 48.1122 127.976 47.8439 127.538 47.644C127.099 47.4441 126.644 47.3442 126.17 47.3442H75.6912C75.2212 47.3442 74.7653 47.4459 74.3234 47.6493C73.8816 47.8527 73.4958 48.1227 73.1662 48.4594L66.1593 56.855ZM90.4571 62.1154V89.2223L100.978 83.9619L111.499 89.2223V62.1207L90.4571 62.1154Z" fill="white"/>
</svg>
