<svg width="22" height="21" viewBox="0 0 22 21" fill="none" xmlns="http://www.w3.org/2000/svg">
<path d="M7.93922 15.3451C5.86343 15.3451 4.1055 14.6252 2.66545 13.1854C1.2256 11.7453 0.505676 9.98737 0.505676 7.91158C0.505676 5.83578 1.2256 4.07785 2.66545 2.6378C4.1055 1.19795 5.86343 0.478027 7.93922 0.478027C10.015 0.478027 11.7729 1.19795 13.213 2.6378C14.6528 4.07785 15.3728 5.83578 15.3728 7.91158C15.3728 8.7797 15.2271 9.60882 14.9358 10.3989C14.6442 11.1891 14.2554 11.8763 13.7691 12.4606L20.7635 19.455C20.9319 19.6231 21.018 19.8346 21.0219 20.0895C21.0257 20.3444 20.9396 20.5598 20.7635 20.7359C20.5875 20.912 20.374 21 20.1229 21C19.8721 21 19.6587 20.912 19.4826 20.7359L12.4882 13.7415C11.8804 14.2433 11.1815 14.636 10.3913 14.9197C9.60122 15.2033 8.78385 15.3451 7.93922 15.3451ZM7.93922 13.5221C9.50549 13.5221 10.8321 12.9785 11.919 11.8914C13.0061 10.8044 13.5497 9.47784 13.5497 7.91158C13.5497 6.34531 13.0061 5.01871 11.919 3.93178C10.8321 2.84465 9.50549 2.30109 7.93922 2.30109C6.37295 2.30109 5.04636 2.84465 3.95943 3.93178C2.8723 5.01871 2.32874 6.34531 2.32874 7.91158C2.32874 9.47784 2.8723 10.8044 3.95943 11.8914C5.04636 12.9785 6.37295 13.5221 7.93922 13.5221Z" fill="#00B2FF"/>
</svg>
