<svg width="20" height="21" viewBox="0 0 20 21" fill="none" xmlns="http://www.w3.org/2000/svg">
<rect y="0.5" width="20" height="20" rx="10" fill="#D3D3D3"/>
<path d="M6.51468 15.8857V14.6714C7.47658 13.8143 8.29563 13.019 8.97182 12.2857C9.65753 11.5524 10.1813 10.8714 10.5432 10.2428C10.9052 9.60473 11.0861 9.01426 11.0861 8.4714C11.0861 8.12854 11.0242 7.82854 10.9004 7.5714C10.7766 7.31426 10.5956 7.11902 10.3575 6.98569C10.129 6.84283 9.84325 6.7714 9.50039 6.7714C9.11944 6.7714 8.76706 6.88092 8.44325 7.09997C8.12896 7.3095 7.83849 7.56188 7.57182 7.85711L6.40039 6.72854C6.89563 6.19521 7.40039 5.79521 7.91468 5.52854C8.43849 5.25235 9.05753 5.11426 9.77182 5.11426C10.4385 5.11426 11.0194 5.25235 11.5147 5.52854C12.0194 5.79521 12.4099 6.1714 12.6861 6.65711C12.9623 7.14283 13.1004 7.71426 13.1004 8.3714C13.1004 9.0095 12.9385 9.66188 12.6147 10.3285C12.3004 10.9857 11.8766 11.6428 11.3432 12.3C10.8099 12.9571 10.2194 13.6047 9.57182 14.2428C9.84801 14.2047 10.1432 14.1762 10.4575 14.1571C10.7813 14.1285 11.0671 14.1143 11.3147 14.1143H13.6004V15.8857H6.51468Z" fill="#828282"/>
</svg>
