<svg width="202" height="202" viewBox="0 0 202 202" fill="none" xmlns="http://www.w3.org/2000/svg">
<path d="M26 56H130C132.209 56 134 57.7909 134 60V66.5H164.428C165.995 66.5 167.417 67.4146 168.067 68.84L180 95V142C180 144.209 178.209 146 176 146H134H26C23.7909 146 22 144.209 22 142V112V60C22 57.7909 23.7909 56 26 56Z" fill="#00B2FF"/>
<path d="M134 146H26C23.7909 146 22 144.209 22 142V112M134 146V112M134 146H176C178.209 146 180 144.209 180 142V95M134 66.5V60C134 57.7909 132.209 56 130 56H26C23.7909 56 22 57.7909 22 60V112M134 66.5H164.428C165.995 66.5 167.417 67.4146 168.067 68.84L180 95M134 66.5V95M180 95H134M134 95V112M22 112H134" stroke="white" stroke-width="6"/>
<circle cx="141" cy="146" r="16" fill="#00B2FF" stroke="white" stroke-width="6"/>
<circle cx="60" cy="146" r="16" fill="#00B2FF" stroke="white" stroke-width="6"/>
</svg>
