<svg width="215" height="68" viewBox="0 0 215 68" fill="none" xmlns="http://www.w3.org/2000/svg">
<path d="M200.575 51.0142C201.112 54.8656 201.893 58.67 202.918 62.4274C203.113 63.038 203.211 63.6721 203.211 64.3297C203.211 66.4432 201.868 67.5 199.184 67.5C197.67 67.5 196.499 67.1008 195.669 66.3023C194.888 65.5039 194.156 64.0009 193.472 61.7934L193.399 61.5116C191.544 63.7191 189.86 65.1986 188.347 65.9501C186.883 66.7015 185.174 67.0773 183.222 67.0773C180.244 67.0773 177.779 66.0205 175.826 63.9069C173.923 61.7464 172.971 58.9518 172.971 55.5231C172.971 51.7657 173.801 48.2901 175.46 45.0962C177.12 41.9024 179.39 39.2957 182.27 37.276C185.15 35.2094 188.371 33.9648 191.935 33.5421C192.862 24.6651 194.62 16.9388 197.207 10.3633C199.843 3.78777 203.333 0.5 207.677 0.5C209.776 0.5 211.509 1.41588 212.876 3.24764C214.291 5.07939 214.999 7.85051 214.999 11.561C214.999 16.7275 213.681 22.7629 211.045 29.6672C208.409 36.5715 204.919 43.6872 200.575 51.0142ZM206.872 7.40431C205.456 7.40431 204.114 10.88 202.845 17.8312C201.624 24.7825 200.794 32.3444 200.355 40.5168C205.773 29.2445 208.483 20.0857 208.483 13.0405C208.483 11.2557 208.312 9.87014 207.97 8.88381C207.677 7.89748 207.311 7.40431 206.872 7.40431ZM185.784 59.9616C186.761 59.9616 187.688 59.6094 188.567 58.9048C189.494 58.2003 190.666 56.8382 192.081 54.8186C191.593 51.3899 191.349 47.8439 191.349 44.1803C191.349 42.7243 191.373 41.5971 191.422 40.7986C188.738 41.5501 186.516 43.2645 184.759 45.9416C183.002 48.6188 182.123 51.5778 182.123 54.8186C182.123 58.2473 183.344 59.9616 185.784 59.9616Z" fill="white"/>
<path d="M178.19 51.0154C178.825 51.0154 179.313 51.2972 179.655 51.8608C180.045 52.4244 180.24 53.1994 180.24 54.1857C180.24 56.0645 179.777 57.5205 178.849 58.5538C177.043 60.6673 174.48 62.6165 171.161 64.4013C167.891 66.1861 164.376 67.0785 160.617 67.0785C155.492 67.0785 151.514 65.7399 148.682 63.0627C145.851 60.3855 144.436 56.722 144.436 52.0722C144.436 48.8314 145.143 45.8254 146.559 43.0543C147.975 40.2362 149.927 38.0052 152.417 36.3613C154.955 34.7175 157.81 33.8955 160.983 33.8955C163.815 33.8955 166.084 34.7175 167.793 36.3613C169.501 37.9583 170.356 40.1423 170.356 42.9134C170.356 46.1542 169.135 48.9488 166.695 51.2972C164.303 53.5986 160.227 55.4304 154.467 56.7925C155.687 58.953 158.006 60.0333 161.423 60.0333C163.619 60.0333 166.109 59.3053 168.891 57.8492C171.722 56.3463 174.163 54.3971 176.213 52.0017C176.799 51.3442 177.458 51.0154 178.19 51.0154ZM159.739 40.7998C157.933 40.7998 156.395 41.8096 155.126 43.8293C153.905 45.8489 153.295 48.2912 153.295 51.1563V51.2972C156.175 50.6396 158.445 49.6533 160.105 48.3382C161.764 47.0231 162.594 45.4966 162.594 43.7588C162.594 42.8664 162.326 42.1619 161.789 41.6452C161.301 41.0816 160.617 40.7998 159.739 40.7998Z" fill="white"/>
<path d="M149.448 51.0154C150.083 51.0154 150.571 51.2972 150.912 51.8608C151.303 52.4244 151.498 53.1994 151.498 54.1857C151.498 56.0645 151.034 57.5205 150.107 58.5538C148.301 60.6673 145.738 62.6165 142.419 64.4013C139.148 66.1861 135.634 67.0785 131.875 67.0785C126.75 67.0785 122.771 65.7399 119.94 63.0627C117.109 60.3855 115.693 56.722 115.693 52.0722C115.693 48.8314 116.401 45.8254 117.817 43.0543C119.232 40.2362 121.185 38.0052 123.674 36.3613C126.213 34.7175 129.068 33.8955 132.241 33.8955C135.072 33.8955 137.342 34.7175 139.051 36.3613C140.759 37.9583 141.613 40.1423 141.613 42.9134C141.613 46.1542 140.393 48.9488 137.952 51.2972C135.561 53.5986 131.485 55.4304 125.725 56.7925C126.945 58.953 129.264 60.0333 132.681 60.0333C134.877 60.0333 137.367 59.3053 140.149 57.8492C142.98 56.3463 145.421 54.3971 147.471 52.0017C148.057 51.3442 148.716 51.0154 149.448 51.0154ZM130.996 40.7998C129.19 40.7998 127.653 41.8096 126.384 43.8293C125.163 45.8489 124.553 48.2912 124.553 51.1563V51.2972C127.433 50.6396 129.703 49.6533 131.363 48.3382C133.022 47.0231 133.852 45.4966 133.852 43.7588C133.852 42.8664 133.584 42.1619 133.047 41.6452C132.558 41.0816 131.875 40.7998 130.996 40.7998Z" fill="white"/>
<path d="M85.6665 67.0785C83.8116 67.0785 82.4936 66.1391 81.7126 64.2604C80.9804 62.3817 80.6143 59.3757 80.6143 55.2425C80.6143 49.1367 81.5173 43.3361 83.3234 37.8408C83.7627 36.4788 84.4705 35.4924 85.4468 34.8818C86.4719 34.2243 87.8875 33.8955 89.6936 33.8955C90.6699 33.8955 91.3533 34.0129 91.7438 34.2478C92.1343 34.4826 92.3295 34.9288 92.3295 35.5864C92.3295 36.3378 91.9634 38.0287 91.2312 40.6589C90.7431 42.5376 90.3526 44.1815 90.0597 45.5906C89.7668 46.9996 89.5227 48.7374 89.3275 50.804C90.9383 46.7648 92.7444 43.477 94.7458 40.9407C96.7472 38.4044 98.6997 36.5962 100.603 35.5159C102.556 34.4356 104.338 33.8955 105.949 33.8955C109.121 33.8955 110.708 35.422 110.708 38.4749C110.708 40.3067 110.171 43.6179 109.097 48.4087C108.17 52.4949 107.706 55.1955 107.706 56.5107C107.706 58.3894 108.414 59.3287 109.829 59.3287C110.806 59.3287 111.953 58.7651 113.271 57.6379C114.637 56.4637 116.443 54.585 118.689 52.0017C119.275 51.3442 119.934 51.0154 120.666 51.0154C121.3 51.0154 121.789 51.2972 122.13 51.8608C122.521 52.4244 122.716 53.1994 122.716 54.1857C122.716 56.0645 122.252 57.5205 121.325 58.5538C119.226 61.0431 116.956 63.0862 114.515 64.6831C112.123 66.28 109.39 67.0785 106.315 67.0785C103.825 67.0785 101.946 66.3974 100.677 65.0354C99.4075 63.6263 98.7729 61.6067 98.7729 58.9765C98.7729 57.6614 99.1146 55.313 99.798 51.9313C100.433 48.9723 100.75 46.9292 100.75 45.8019C100.75 45.0504 100.481 44.6747 99.9445 44.6747C99.3099 44.6747 98.4068 45.4731 97.2353 47.0701C96.1126 48.62 94.9411 50.6866 93.7207 53.2699C92.5492 55.8531 91.5973 58.5773 90.8651 61.4423C90.3282 63.6498 89.6936 65.1528 88.9614 65.9512C88.278 66.7027 87.1797 67.0785 85.6665 67.0785Z" fill="white"/>
<path d="M84.3787 51.0154C85.0132 51.0154 85.5014 51.2972 85.8431 51.8608C86.2336 52.4244 86.4288 53.1994 86.4288 54.1857C86.4288 56.0645 85.9651 57.5205 85.0376 58.5538C83.2315 60.6673 80.6688 62.6165 77.3495 64.4013C74.079 66.1861 70.5644 67.0785 66.8057 67.0785C61.6803 67.0785 57.702 65.7399 54.8708 63.0627C52.0396 60.3855 50.624 56.722 50.624 52.0722C50.624 48.8314 51.3318 45.8254 52.7474 43.0543C54.163 40.2362 56.1156 38.0052 58.6051 36.3613C61.1434 34.7175 63.999 33.8955 67.1718 33.8955C70.003 33.8955 72.2729 34.7175 73.9813 36.3613C75.6898 37.9583 76.5441 40.1423 76.5441 42.9134C76.5441 46.1542 75.3237 48.9488 72.883 51.2972C70.4912 53.5986 66.4152 55.4304 60.6552 56.7925C61.8756 58.953 64.1942 60.0333 67.6112 60.0333C69.8078 60.0333 72.2973 59.3053 75.0797 57.8492C77.9109 56.3463 80.3515 54.3971 82.4017 52.0017C82.9875 51.3442 83.6465 51.0154 84.3787 51.0154ZM65.9271 40.7998C64.121 40.7998 62.5834 41.8096 61.3142 43.8293C60.0939 45.8489 59.4837 48.2912 59.4837 51.1563V51.2972C62.3637 50.6396 64.6335 49.6533 66.2932 48.3382C67.9529 47.0231 68.7827 45.4966 68.7827 43.7588C68.7827 42.8664 68.5142 42.1619 67.9773 41.6452C67.4891 41.0816 66.8057 40.7998 65.9271 40.7998Z" fill="white"/>
<path d="M55.0756 45.306C55.2221 45.259 55.4662 45.2355 55.8079 45.2355C56.5401 45.2355 57.1014 45.4704 57.4919 45.94C57.8824 46.4097 58.0777 47.0438 58.0777 47.8422C58.0777 49.2983 57.7848 50.449 57.199 51.2944C56.6133 52.0929 55.7346 52.68 54.5631 53.0557C52.3177 53.7602 49.9258 54.1125 47.3875 54.1125C45.2397 54.1125 43.2139 53.8307 41.3102 53.2671C39.8946 55.4746 38.3326 57.7525 36.6241 60.1009C34.6715 62.7781 32.9875 64.6099 31.5719 65.5962C30.2051 66.5825 28.6431 67.0757 26.8858 67.0757C24.9332 67.0757 23.4444 66.3477 22.4193 64.8917C21.443 63.4357 20.8329 61.0403 20.5888 57.7055L20.2227 52.5625C18.7095 56.5079 17.3427 59.5138 16.1224 61.5804C14.9508 63.647 13.7549 65.0795 12.5345 65.878C11.363 66.6765 9.97183 67.0757 8.36098 67.0757C6.35962 67.0757 4.77318 66.3242 3.60165 64.8212C2.47893 63.3182 1.77114 60.9463 1.47826 57.7055C0.892491 51.13 0.599609 45.3764 0.599609 40.4448V37.9789C0.648423 36.429 1.08775 35.3487 1.91758 34.7381C2.74741 34.1276 3.99216 33.8223 5.65182 33.8223C6.92098 33.8223 7.84844 34.1041 8.4342 34.6677C9.06878 35.1843 9.38607 36.0767 9.38607 37.3449C9.38607 42.7462 9.72776 49.7679 10.4112 58.4101C13.7305 51.6936 16.7813 44.6954 19.5637 37.4153C20.1007 36.0063 20.7352 35.0669 21.4674 34.5972C22.2485 34.0806 23.1759 33.8223 24.2498 33.8223C25.5678 33.8223 26.4708 34.0806 26.959 34.5972C27.4959 35.1139 27.7644 36.0298 27.7644 37.3449C27.7644 42.7462 28.1061 49.7679 28.7895 58.4101C31.7183 54.2299 33.9149 50.8952 35.3793 48.4059C34.6471 47.0438 34.281 45.4234 34.281 43.5447C34.281 41.9477 34.6471 40.3978 35.3793 38.8948C36.1115 37.3918 37.1122 36.1707 38.3814 35.2313C39.6505 34.2919 41.0905 33.8223 42.7014 33.8223C44.117 33.8223 45.2641 34.3154 46.1428 35.3018C47.0214 36.2411 47.4607 37.6267 47.4607 39.4584C47.4607 41.572 46.875 43.9909 45.7034 46.715C47.5583 46.6211 50.0234 46.2688 53.0987 45.6582L55.0756 45.306Z" fill="white"/>
</svg>
