<svg width="26" height="25" viewBox="0 0 26 25" fill="none" xmlns="http://www.w3.org/2000/svg">
<path d="M13 20.9125L6.77502 24.6625C6.50002 24.8375 6.21252 24.9125 5.91252 24.8875C5.61252 24.8625 5.35002 24.7625 5.12502 24.5875C4.90002 24.4125 4.72502 24.1938 4.60002 23.9313C4.47502 23.6688 4.45002 23.375 4.52502 23.05L6.17502 15.9625L0.662523 11.2C0.412523 10.975 0.256273 10.7188 0.193773 10.4313C0.131273 10.1438 0.150023 9.86255 0.250023 9.58755C0.350023 9.31255 0.500023 9.08755 0.700023 8.91255C0.900023 8.73755 1.17502 8.62505 1.52502 8.57505L8.80002 7.93755L11.6125 1.26255C11.7375 0.962549 11.9313 0.737549 12.1938 0.587549C12.4563 0.437549 12.725 0.362549 13 0.362549C13.275 0.362549 13.5438 0.437549 13.8063 0.587549C14.0688 0.737549 14.2625 0.962549 14.3875 1.26255L17.2 7.93755L24.475 8.57505C24.825 8.62505 25.1 8.73755 25.3 8.91255C25.5 9.08755 25.65 9.31255 25.75 9.58755C25.85 9.86255 25.8688 10.1438 25.8063 10.4313C25.7438 10.7188 25.5875 10.975 25.3375 11.2L19.825 15.9625L21.475 23.05C21.55 23.375 21.525 23.6688 21.4 23.9313C21.275 24.1938 21.1 24.4125 20.875 24.5875C20.65 24.7625 20.3875 24.8625 20.0875 24.8875C19.7875 24.9125 19.5 24.8375 19.225 24.6625L13 20.9125Z" fill="#FCCC73"/>
</svg>
